<svg width="290" height="208" viewBox="0 0 290 208" fill="none" xmlns="http://www.w3.org/2000/svg">
<path d="M6.85638 204.995C6.85638 204.995 18.5247 203.052 20.0845 199.55C21.6443 196.048 23.399 191.159 26.9235 189.172C31.2654 186.72 34.9549 191.174 39.1543 188.265C44.2085 184.763 44.5985 176.979 57.4442 175.426C70.2898 173.874 69.8924 188.265 70.6722 190.604C71.4521 192.944 78.8386 188.265 83.1205 191.354C87.4024 194.444 86.2325 200.698 87.4024 201.853C88.5722 203.007 94.0164 200.69 95.5762 201.853C97.136 203.015 99.0782 204.192 99.0782 204.192L108.024 206.914H0.999714L6.85638 204.995Z" stroke="#263238" stroke-linecap="round" stroke-linejoin="round"/>
<path d="M237.022 172.389C237.022 172.389 243.066 171.384 243.876 169.569C244.686 167.755 245.593 165.213 247.423 164.185C249.673 162.918 251.585 165.22 253.76 163.72C256.384 161.898 256.587 157.871 263.246 157.061C269.905 156.251 269.695 163.72 270.1 164.928C270.505 166.135 274.337 163.72 276.557 165.333C278.776 166.945 278.169 170.169 278.806 170.777C279.444 171.384 282.233 170.169 283.043 170.777C283.853 171.384 284.858 171.984 284.858 171.984L289.492 173.401H234L237.022 172.389Z" stroke="#263238" stroke-linecap="round" stroke-linejoin="round"/>
<path d="M190.861 24.7636C190.861 24.7636 181.532 23.2114 180.28 20.4143C179.028 17.6171 177.633 13.7027 174.813 12.1129C171.341 10.1557 168.394 13.7102 165.065 11.363C161.023 8.55844 160.708 2.36434 150.442 1.09702C140.176 -0.170296 140.491 11.363 139.868 13.2228C139.246 15.0825 133.337 11.3631 129.91 13.8452C126.483 16.3273 127.428 21.3441 126.49 22.2515C125.553 23.1589 121.203 21.3141 119.959 22.2515C118.714 23.1889 117.161 24.1112 117.161 24.1112L110 26.2934H195.525L190.861 24.7636Z" stroke="#263238" stroke-linecap="round" stroke-linejoin="round"/>
</svg>
