<svg width="68" height="68" viewBox="0 0 68 68" fill="none" xmlns="http://www.w3.org/2000/svg">
<path d="M7.6215 53.4335C2.84049 47.2171 0.513907 39.4589 1.08514 31.6374C1.65638 23.816 5.0855 16.4781 10.719 11.0224C16.3525 5.56658 23.7964 2.37434 31.6322 2.05402C39.4679 1.73369 47.1476 4.30768 53.2076 9.28542C59.2676 14.2632 63.2842 21.2966 64.492 29.0454C65.6997 36.7941 64.0141 44.7163 59.7565 51.3022C55.4988 57.8881 48.9668 62.6772 41.4052 64.7567C33.8437 66.8363 25.7813 66.0609 18.7547 62.5784C16.7556 61.5832 14.8653 60.383 13.1144 58.9971L3.76885 67.4163L7.6215 53.4335Z" fill="#263238" stroke="#263238" stroke-linecap="round" stroke-linejoin="round"/>
<path d="M10.0813 52.4532C5.29437 46.2337 2.96329 38.4703 3.53236 30.6426C4.10143 22.8149 7.53086 15.4703 13.167 10.0085C18.8032 4.54679 26.2519 1.34987 34.0936 1.02706C41.9354 0.704263 49.6217 3.27816 55.6877 8.25817C61.7537 13.2382 65.7751 20.2761 66.9856 28.0306C68.1961 35.785 66.511 43.7137 62.2515 50.3056C57.9919 56.8975 51.4558 61.6916 43.8888 63.7742C36.3218 65.8567 28.253 65.0822 21.2204 61.5981C19.2219 60.6042 17.3317 59.406 15.58 58.0227L6.23456 66.4301L10.0813 52.4532Z" fill="white" stroke="#263238" stroke-linecap="round" stroke-linejoin="round"/>
<path d="M21.1973 61.5982C27.0095 64.4751 33.5585 65.5185 39.977 64.5903C46.3955 63.6621 52.3806 60.806 57.1396 56.4003L51.4934 47.1551L47.865 49.4443L38.3248 23.3076L30.1416 55.3619L24.6074 51.9282L21.1973 61.5982Z" fill="#263238" stroke="#263238" stroke-linecap="round" stroke-linejoin="round"/>
<path d="M38.3242 23.3078V6.5166" stroke="#263238" stroke-linecap="round" stroke-linejoin="round"/>
<path d="M38.2301 7.52539C38.2301 7.52539 31.4982 7.97969 30.8197 8.96498C30.1413 9.95026 29.9112 12.4459 29.6398 12.5934C29.3684 12.7409 25.4803 12.6701 25.1794 13.1834C24.8785 13.6967 24.2708 15.98 23.8932 16.511C23.5156 17.042 20.3533 17.4196 20.3533 17.4196C20.7847 17.7105 21.2408 17.9632 21.7162 18.1748C22.1705 18.3223 23.3799 18.5524 23.3799 18.5524L21.4153 19.0834C22.1509 19.7072 23.0536 20.1011 24.0112 20.2161C24.6057 20.2403 25.1974 20.1223 25.7371 19.8719C26.2769 19.6215 26.7491 19.246 27.1146 18.7766C27.3388 18.399 29.9112 18.5524 30.743 18.3223C31.5749 18.0922 31.4215 16.6585 31.7991 16.2101C32.1767 15.7617 38.2891 15.449 38.2891 15.449L38.2301 7.52539Z" fill="#5E79EC" stroke="#263238" stroke-linecap="round" stroke-linejoin="round"/>
</svg>
