<svg width="205" height="24" viewBox="0 0 205 24" fill="none" xmlns="http://www.w3.org/2000/svg">
<path fill-rule="evenodd" clip-rule="evenodd" d="M30.4872 23.5432C28.6716 24.3922 26.5115 23.6086 25.6626 21.793L17.9002 5.19195C17.0513 3.37636 17.8349 1.21633 19.6505 0.367388C21.4661 -0.481554 23.6261 0.302071 24.4751 2.11767L32.2374 18.7187C33.0864 20.5343 32.3028 22.6943 30.4872 23.5432ZM19.3675 23.9711C19.8437 23.9493 20.3109 23.8336 20.7423 23.6308C21.1747 23.4299 21.5632 23.1457 21.8854 22.7943C22.2076 22.4429 22.4573 22.0313 22.62 21.5832C22.7827 21.135 22.8553 20.6592 22.8336 20.1829C22.8118 19.7066 22.6963 19.2393 22.4934 18.8079L14.7163 2.21041C14.4899 1.69495 14.1411 1.24254 13.7001 0.892497C13.2592 0.54245 12.7394 0.30534 12.186 0.201754C11.9394 0.135112 11.6848 0.10311 11.4293 0.10667H11.4056C11.1501 0.10311 10.8955 0.135112 10.6489 0.201754C10.0957 0.305537 9.57623 0.54274 9.13552 0.892775C8.69481 1.24281 8.34618 1.69511 8.11988 2.21041L0.341465 18.8079C-0.0660489 19.6795 -0.110633 20.6772 0.217521 21.5817C0.545674 22.4862 1.21968 23.2232 2.09128 23.6308C2.96287 24.0383 3.96065 24.0829 4.86512 23.7547C5.76958 23.4266 6.50665 22.7525 6.91416 21.8809L11.4293 12.2827L15.9194 21.8809C16.1204 22.3132 16.4047 22.7016 16.7562 23.0237C17.1076 23.3457 17.5192 23.5952 17.9673 23.7578C18.4155 23.9204 18.8913 23.9929 19.3675 23.9711ZM35.372 21.794C36.221 23.6096 38.381 24.3933 40.1966 23.5443C42.0122 22.6954 42.7958 20.5353 41.9469 18.7197L34.1845 2.11873C33.3356 0.303139 31.1756 -0.480486 29.36 0.368455C27.5444 1.2174 26.7607 3.37742 27.6097 5.19302L35.372 21.794ZM49.9072 23.5449C48.0916 24.3938 45.9316 23.6102 45.0827 21.7946L37.3203 5.19356C36.4714 3.37796 37.255 1.21793 39.0706 0.368993C40.8862 -0.479948 43.0462 0.303673 43.8952 2.11927L51.6575 18.7203C52.5065 20.5359 51.7228 22.6959 49.9072 23.5449Z" fill="#5E79EC"/>
<path d="M68.4297 16.1562L67.6016 13.4375H63.4375L62.6094 16.1562H60L64.0312 4.6875H66.9922L71.0391 16.1562H68.4297ZM67.0234 11.4062C66.2578 8.94271 65.8255 7.54948 65.7266 7.22656C65.6328 6.90365 65.5651 6.64844 65.5234 6.46094C65.3516 7.1276 64.8594 8.77604 64.0469 11.4062H67.0234Z" fill="#323232"/>
<path d="M71.0469 7.42188H73.6562L75.3047 12.3359C75.4453 12.763 75.5417 13.2682 75.5938 13.8516H75.6406C75.6979 13.3151 75.8099 12.8099 75.9766 12.3359L77.5938 7.42188H80.1484L76.4531 17.2734C76.1146 18.1849 75.6302 18.8672 75 19.3203C74.375 19.7734 73.6432 20 72.8047 20C72.3932 20 71.9896 19.9557 71.5938 19.8672V17.9766C71.8802 18.0443 72.1927 18.0781 72.5312 18.0781C72.9531 18.0781 73.3203 17.9479 73.6328 17.6875C73.9505 17.4323 74.1979 17.0443 74.375 16.5234L74.5156 16.0938L71.0469 7.42188Z" fill="#323232"/>
<path d="M88.6328 7.42188V9.21094H85.7734V16.1562H83.3906V9.21094H80.5234V7.42188H88.6328Z" fill="#323232"/>
<path d="M93.7344 16.3125C91.0156 16.3125 89.6562 14.8203 89.6562 11.8359C89.6562 10.3516 90.026 9.21875 90.7656 8.4375C91.5052 7.65104 92.5651 7.25781 93.9453 7.25781C94.9557 7.25781 95.862 7.45573 96.6641 7.85156L95.9609 9.69531C95.5859 9.54427 95.237 9.42188 94.9141 9.32812C94.5911 9.22917 94.2682 9.17969 93.9453 9.17969C92.7057 9.17969 92.0859 10.0599 92.0859 11.8203C92.0859 13.5286 92.7057 14.3828 93.9453 14.3828C94.4036 14.3828 94.8281 14.3229 95.2188 14.2031C95.6094 14.0781 96 13.8854 96.3906 13.625V15.6641C96.0052 15.9089 95.6146 16.0781 95.2188 16.1719C94.8281 16.2656 94.3333 16.3125 93.7344 16.3125Z" fill="#323232"/>
<path d="M105.648 7.42188V9.21094H102.789V16.1562H100.406V9.21094H97.5391V7.42188H105.648Z" fill="#323232"/>
<path d="M112.828 16.1562L112.367 14.9688H112.305C111.904 15.474 111.49 15.8255 111.062 16.0234C110.641 16.2161 110.089 16.3125 109.406 16.3125C108.568 16.3125 107.906 16.0729 107.422 15.5938C106.943 15.1146 106.703 14.4323 106.703 13.5469C106.703 12.6198 107.026 11.9375 107.672 11.5C108.323 11.0573 109.302 10.8125 110.609 10.7656L112.125 10.7188V10.3359C112.125 9.45052 111.672 9.00781 110.766 9.00781C110.068 9.00781 109.247 9.21875 108.305 9.64062L107.516 8.03125C108.521 7.50521 109.635 7.24219 110.859 7.24219C112.031 7.24219 112.93 7.4974 113.555 8.00781C114.18 8.51823 114.492 9.29427 114.492 10.3359V16.1562H112.828ZM112.125 12.1094L111.203 12.1406C110.51 12.1615 109.995 12.2865 109.656 12.5156C109.318 12.7448 109.148 13.0938 109.148 13.5625C109.148 14.2344 109.534 14.5703 110.305 14.5703C110.857 14.5703 111.297 14.4115 111.625 14.0938C111.958 13.776 112.125 13.3542 112.125 12.8281V12.1094Z" fill="#323232"/>
<path d="M123.336 7.375C124.794 7.49479 125.938 7.94531 126.766 8.72656C127.594 9.50781 128.008 10.5286 128.008 11.7891C128.008 13.0755 127.599 14.1068 126.781 14.8828C125.964 15.6536 124.815 16.099 123.336 16.2188V20H121.125V16.2188C119.651 16.0833 118.497 15.6224 117.664 14.8359C116.836 14.0443 116.422 13.0286 116.422 11.7891C116.422 10.4714 116.823 9.43229 117.625 8.67188C118.427 7.90625 119.594 7.47396 121.125 7.375V4H123.336V7.375ZM118.875 11.7891C118.875 12.5234 119.076 13.1224 119.477 13.5859C119.878 14.0443 120.427 14.3203 121.125 14.4141V9.16406C120.453 9.2526 119.909 9.53646 119.492 10.0156C119.081 10.4948 118.875 11.0859 118.875 11.7891ZM125.562 11.7891C125.562 11.1016 125.367 10.5234 124.977 10.0547C124.586 9.58073 124.039 9.29427 123.336 9.19531V14.4141C124.029 14.3203 124.573 14.0417 124.969 13.5781C125.365 13.1146 125.562 12.5182 125.562 11.7891Z" fill="#323232"/>
<path d="M136.367 7.375C137.826 7.49479 138.969 7.94531 139.797 8.72656C140.625 9.50781 141.039 10.5286 141.039 11.7891C141.039 13.0755 140.63 14.1068 139.812 14.8828C138.995 15.6536 137.846 16.099 136.367 16.2188V20H134.156V16.2188C132.682 16.0833 131.529 15.6224 130.695 14.8359C129.867 14.0443 129.453 13.0286 129.453 11.7891C129.453 10.4714 129.854 9.43229 130.656 8.67188C131.458 7.90625 132.625 7.47396 134.156 7.375V4H136.367V7.375ZM131.906 11.7891C131.906 12.5234 132.107 13.1224 132.508 13.5859C132.909 14.0443 133.458 14.3203 134.156 14.4141V9.16406C133.484 9.2526 132.94 9.53646 132.523 10.0156C132.112 10.4948 131.906 11.0859 131.906 11.7891ZM138.594 11.7891C138.594 11.1016 138.398 10.5234 138.008 10.0547C137.617 9.58073 137.07 9.29427 136.367 9.19531V14.4141C137.06 14.3203 137.604 14.0417 138 13.5781C138.396 13.1146 138.594 12.5182 138.594 11.7891Z" fill="#323232"/>
<path d="M151.773 6.58594C150.862 6.58594 150.156 6.92969 149.656 7.61719C149.156 8.29948 148.906 9.2526 148.906 10.4766C148.906 13.0234 149.862 14.2969 151.773 14.2969C152.576 14.2969 153.547 14.0964 154.688 13.6953V15.7266C153.75 16.1172 152.703 16.3125 151.547 16.3125C149.885 16.3125 148.615 15.8099 147.734 14.8047C146.854 13.7943 146.414 12.3464 146.414 10.4609C146.414 9.27344 146.63 8.23438 147.062 7.34375C147.495 6.44792 148.115 5.76302 148.922 5.28906C149.734 4.8099 150.685 4.57031 151.773 4.57031C152.883 4.57031 153.997 4.83854 155.117 5.375L154.336 7.34375C153.909 7.14062 153.479 6.96354 153.047 6.8125C152.615 6.66146 152.19 6.58594 151.773 6.58594Z" fill="#323232"/>
<path d="M160.555 8.95312C160.049 8.95312 159.654 9.11458 159.367 9.4375C159.081 9.75521 158.917 10.2083 158.875 10.7969H162.219C162.208 10.2083 162.055 9.75521 161.758 9.4375C161.461 9.11458 161.06 8.95312 160.555 8.95312ZM160.891 16.3125C159.484 16.3125 158.385 15.9245 157.594 15.1484C156.802 14.3724 156.406 13.2734 156.406 11.8516C156.406 10.388 156.771 9.25781 157.5 8.46094C158.234 7.65885 159.247 7.25781 160.539 7.25781C161.773 7.25781 162.734 7.60938 163.422 8.3125C164.109 9.01562 164.453 9.98698 164.453 11.2266V12.3828H158.82C158.846 13.0599 159.047 13.5885 159.422 13.9688C159.797 14.349 160.323 14.5391 161 14.5391C161.526 14.5391 162.023 14.4844 162.492 14.375C162.961 14.2656 163.451 14.0911 163.961 13.8516V15.6953C163.544 15.9036 163.099 16.0573 162.625 16.1562C162.151 16.2604 161.573 16.3125 160.891 16.3125Z" fill="#323232"/>
<path d="M171.188 16.3125C170.161 16.3125 169.357 15.9401 168.773 15.1953H168.648C168.732 15.9245 168.773 16.3464 168.773 16.4609V20H166.391V7.42188H168.328L168.664 8.55469H168.773C169.331 7.6901 170.156 7.25781 171.25 7.25781C172.281 7.25781 173.089 7.65625 173.672 8.45312C174.255 9.25 174.547 10.3568 174.547 11.7734C174.547 12.7057 174.409 13.5156 174.133 14.2031C173.862 14.8906 173.474 15.4141 172.969 15.7734C172.464 16.1328 171.87 16.3125 171.188 16.3125ZM170.484 9.16406C169.896 9.16406 169.466 9.34635 169.195 9.71094C168.924 10.0703 168.784 10.6667 168.773 11.5V11.7578C168.773 12.6953 168.911 13.3672 169.188 13.7734C169.469 14.1797 169.911 14.3828 170.516 14.3828C171.583 14.3828 172.117 13.5026 172.117 11.7422C172.117 10.8828 171.984 10.2396 171.719 9.8125C171.458 9.38021 171.047 9.16406 170.484 9.16406Z" fill="#323232"/>
<path d="M184.578 9.71094C184.578 10.1797 184.43 10.5807 184.133 10.9141C183.841 11.2422 183.409 11.4531 182.836 11.5469V11.6094C183.456 11.6823 183.945 11.8958 184.305 12.25C184.669 12.599 184.852 13.0312 184.852 13.5469C184.852 14.3958 184.518 15.0443 183.852 15.4922C183.185 15.9349 182.232 16.1562 180.992 16.1562H176.516V7.42188H180.992C182.19 7.42188 183.086 7.61719 183.68 8.00781C184.279 8.39323 184.578 8.96094 184.578 9.71094ZM182.383 13.4219C182.383 13.0781 182.25 12.8307 181.984 12.6797C181.719 12.5234 181.32 12.4453 180.789 12.4453H178.898V14.5078H180.836C181.341 14.5078 181.724 14.4141 181.984 14.2266C182.25 14.0339 182.383 13.7656 182.383 13.4219ZM182.164 9.89844C182.164 9.36719 181.742 9.10156 180.898 9.10156H178.898V10.8281H180.625C181.13 10.8281 181.513 10.7552 181.773 10.6094C182.034 10.4635 182.164 10.2266 182.164 9.89844Z" fill="#323232"/>
<path d="M189.055 7.42188V10.875C189.055 11.2396 188.995 12.1302 188.875 13.5469L192.906 7.42188H195.773V16.1562H193.469V12.6719C193.469 12.0521 193.521 11.1771 193.625 10.0469L189.609 16.1562H186.75V7.42188H189.055Z" fill="#323232"/>
<path d="M201.828 16.3125C199.109 16.3125 197.75 14.8203 197.75 11.8359C197.75 10.3516 198.12 9.21875 198.859 8.4375C199.599 7.65104 200.659 7.25781 202.039 7.25781C203.049 7.25781 203.956 7.45573 204.758 7.85156L204.055 9.69531C203.68 9.54427 203.331 9.42188 203.008 9.32812C202.685 9.22917 202.362 9.17969 202.039 9.17969C200.799 9.17969 200.18 10.0599 200.18 11.8203C200.18 13.5286 200.799 14.3828 202.039 14.3828C202.497 14.3828 202.922 14.3229 203.312 14.2031C203.703 14.0781 204.094 13.8854 204.484 13.625V15.6641C204.099 15.9089 203.708 16.0781 203.312 16.1719C202.922 16.2656 202.427 16.3125 201.828 16.3125Z" fill="#323232"/>
</svg>
