<svg width="24" height="24" viewBox="0 0 24 24" fill="none" xmlns="http://www.w3.org/2000/svg">
<path fill-rule="evenodd" clip-rule="evenodd" d="M2.85059 4.5957C2.57444 4.5957 2.35059 4.81956 2.35059 5.0957V18.3703C2.35059 18.5852 2.43527 18.7912 2.58601 18.9432C2.73675 19.0952 2.94119 19.1805 3.15437 19.1805H20.8375C21.0507 19.1805 21.2552 19.0952 21.4059 18.9432C21.5566 18.7912 21.6413 18.5852 21.6413 18.3703V5.0957C21.6413 4.81956 21.4175 4.5957 21.1413 4.5957H2.85059ZM2.89656 18.1661L9.62158 11.9985L2.66186 5.61875C2.4583 5.43216 2.44455 5.11587 2.63114 4.91231C2.81774 4.70875 3.13402 4.695 3.33758 4.8816L11.9997 12.8219L20.6619 4.8816C20.8654 4.695 21.1817 4.70875 21.3683 4.91231C21.5549 5.11587 21.5411 5.43216 21.3376 5.61875L14.3783 11.9981L21.1037 18.1661C21.3072 18.3527 21.3209 18.669 21.1343 18.8725C20.9476 19.076 20.6313 19.0897 20.4278 18.903L13.6383 12.6764L12.3376 13.8688C12.1464 14.044 11.853 14.044 11.6619 13.8688L10.3615 12.6768L3.57246 18.903C3.36895 19.0897 3.05266 19.076 2.86602 18.8725C2.67937 18.669 2.69305 18.3527 2.89656 18.1661Z" fill="#5E79EC"/>
</svg>
