<svg width="496" height="534" viewBox="0 0 496 534" fill="none" xmlns="http://www.w3.org/2000/svg">
<path d="M93.8727 106.91C93.8727 106.91 53.0087 119.484 51.874 123.194C50.7393 126.905 41.0178 180.067 41.0178 180.067L38.1504 192.334C38.1504 192.334 39.3004 210.611 39.3004 211.761C39.3004 212.911 47.8719 214.337 51.874 212.053C55.876 209.768 64.7235 198.252 64.7235 198.252L71.593 171.112C71.593 171.112 75.0124 203.113 77.8798 203.681C80.7472 204.248 145.026 199.97 149.595 197.118C154.164 194.266 161.019 163.108 161.019 163.108C161.019 163.108 187.086 173.397 201.024 172.308C214.962 171.219 226.171 162.602 226.738 156.315C227.306 150.028 212.447 137.163 212.447 137.163L191.594 139.739C191.594 139.739 171.66 126.89 169.299 124.881C166.937 122.872 160.727 116.601 157.032 113.166C153.336 109.732 150.178 107.738 147.602 107.171C145.026 106.604 123.605 104.303 122.455 104.303C121.305 104.303 93.8727 106.91 93.8727 106.91Z" fill="white" stroke="#263238" stroke-linecap="round" stroke-linejoin="round"/>
<path d="M71.593 171.204L63.0215 145.198" stroke="#263238" stroke-linecap="round" stroke-linejoin="round"/>
<path d="M111.583 122.627L73.5859 132.057C73.5859 132.057 84.4421 159.489 88.4442 177.199C92.4463 194.91 91.2963 202.347 91.2963 202.347" stroke="#263238" stroke-linecap="round" stroke-linejoin="round"/>
<path d="M161.018 163.2C161.018 163.2 160.451 154.92 160.16 146.624C159.868 138.329 151.297 122.627 151.297 122.627" stroke="#263238" stroke-linecap="round" stroke-linejoin="round"/>
<path d="M91.8793 139.203C91.8824 139.659 91.7497 140.106 91.4981 140.487C91.2465 140.867 90.8875 141.164 90.4666 141.34C90.0457 141.516 89.582 141.563 89.1344 141.475C88.6868 141.387 88.2755 141.167 87.953 140.845C87.6304 140.522 87.411 140.111 87.3228 139.663C87.2345 139.216 87.2813 138.752 87.4573 138.331C87.6333 137.91 87.9305 137.551 88.3111 137.299C88.6916 137.048 89.1384 136.915 89.5946 136.918C90.2006 136.918 90.7817 137.159 91.2102 137.587C91.6386 138.016 91.8793 138.597 91.8793 139.203Z" stroke="#263238" stroke-linecap="round" stroke-linejoin="round"/>
<path d="M102.152 182.06C102.152 182.512 102.018 182.954 101.767 183.33C101.516 183.705 101.16 183.998 100.742 184.171C100.325 184.344 99.8652 184.389 99.422 184.301C98.9788 184.213 98.5717 183.995 98.2522 183.676C97.9327 183.356 97.7151 182.949 97.6269 182.506C97.5388 182.063 97.584 181.603 97.7569 181.186C97.9298 180.769 98.2227 180.412 98.5984 180.161C98.9741 179.91 99.4158 179.776 99.8677 179.776C100.474 179.776 101.055 180.016 101.483 180.445C101.912 180.873 102.152 181.454 102.152 182.06Z" stroke="#263238" stroke-linecap="round" stroke-linejoin="round"/>
<path d="M145.869 178.058C145.869 178.51 145.735 178.952 145.484 179.327C145.233 179.703 144.876 179.996 144.459 180.169C144.041 180.342 143.582 180.387 143.139 180.299C142.696 180.211 142.289 179.993 141.969 179.674C141.649 179.354 141.432 178.947 141.344 178.504C141.256 178.061 141.301 177.601 141.474 177.184C141.647 176.766 141.939 176.41 142.315 176.158C142.691 175.907 143.133 175.773 143.585 175.773C143.885 175.773 144.182 175.833 144.459 175.947C144.736 176.062 144.988 176.23 145.2 176.443C145.412 176.655 145.58 176.907 145.695 177.184C145.81 177.461 145.869 177.758 145.869 178.058V178.058Z" stroke="#263238" stroke-linecap="round" stroke-linejoin="round"/>
<path d="M140.732 132.348C141.994 132.348 143.017 131.326 143.017 130.064C143.017 128.802 141.994 127.779 140.732 127.779C139.47 127.779 138.447 128.802 138.447 130.064C138.447 131.326 139.47 132.348 140.732 132.348Z" stroke="#263238" stroke-linecap="round" stroke-linejoin="round"/>
<path d="M97.8753 92.5733L90.4385 94.8733L90.7298 108.29C90.7298 108.29 104.162 118.87 109.299 121.155C114.436 123.44 125.307 109.732 126.442 107.432C127.576 105.131 126.733 96.008 126.733 96.008C126.733 96.008 123.59 93.1559 113.301 91.7299C103.012 90.3039 97.8753 92.5733 97.8753 92.5733Z" fill="#5E79EC" stroke="#263238" stroke-miterlimit="10"/>
<path d="M95.2988 79.4785C95.2988 79.4785 95.5902 93.4781 96.1575 96.9128C96.7248 100.348 110.448 111.48 112.733 110.621C115.018 109.762 123.881 99.1975 123.881 99.1975L125.307 89.7674L95.2988 79.4785Z" fill="white" stroke="#263238" stroke-linecap="round" stroke-linejoin="round"/>
<path d="M19.5818 188.914C19.5818 188.914 13.8624 194.066 13.5864 197.21C13.3104 200.353 22.1579 213.77 24.4426 215.488C26.7273 217.205 35.5901 216.346 42.1529 213.203C48.7157 210.059 50.4484 203.497 49.8197 195.201C49.191 186.906 45.2196 184.912 41.2482 183.486C37.2768 182.06 32.0481 184.345 30.392 184.912C28.736 185.48 19.5818 188.914 19.5818 188.914Z" fill="#5E79EC" stroke="#263238" stroke-miterlimit="10"/>
<path d="M41.8768 188.914C41.8768 188.914 31.588 171.48 29.3033 164.059C27.0186 156.637 25.5772 149.492 25.5772 149.492C26.9756 146.349 27.566 142.907 27.2946 139.479C27.0186 133.192 23.0165 128.347 21.0078 124.621C18.9991 120.894 20.1491 115.42 17.5884 115.773C16.9579 115.819 16.346 116.007 15.7978 116.322C15.2496 116.637 14.7792 117.071 14.4214 117.592C14.0636 118.113 13.8276 118.708 13.7309 119.333C13.6341 119.958 13.679 120.596 13.8623 121.201C14.445 124.345 15.5797 129.773 15.5797 129.773C15.5797 129.773 10.1516 132.625 9.29292 135.201C8.43423 137.777 6.44087 150.059 8.43424 153.202C10.4276 156.346 15.0124 163.2 15.0124 163.2C15.0124 163.2 15.5797 189.482 16.7297 194.342C17.8797 199.203 27.2946 213.494 36.4487 208.925C45.6029 204.355 41.8768 188.914 41.8768 188.914Z" fill="white" stroke="#263238" stroke-linecap="round" stroke-linejoin="round"/>
<path d="M9.00124 103.951C9.00124 103.951 6.45585 157.879 7.37587 160.44C8.29588 163.001 9.92125 162.985 11.746 160.793C13.5707 158.6 12.8346 106.328 13.5553 104.871C14.276 103.414 19.5814 98.7375 21.3908 92.4814C23.2001 86.2253 22.9241 77.5311 19.5814 71.8883C16.2387 66.2456 5.18316 65.8776 2.08578 79.5551C-1.01161 93.2327 9.00124 103.951 9.00124 103.951Z" fill="#BDBDBD" stroke="#263238" stroke-linecap="round" stroke-linejoin="round"/>
<path d="M16.3001 131.643C16.3001 131.643 5.73524 129.282 4.99922 131.275C4.26321 133.269 4.44722 134.925 5.55124 135.875C6.65526 136.826 15.0274 138.053 17.0208 137.148C19.0141 136.243 18.1248 132.747 16.3001 131.643Z" fill="white" stroke="#263238" stroke-linecap="round" stroke-linejoin="round"/>
<path d="M7.1916 136.75C6.76503 136.689 6.33025 136.724 5.91926 136.854C5.50827 136.983 5.13153 137.203 4.81672 137.497C4.50192 137.792 4.25708 138.153 4.1002 138.554C3.94332 138.955 3.8784 139.387 3.91021 139.816C3.91021 143.282 7.72827 143.098 10.8257 143.634C13.923 144.171 18.1245 144.002 18.4925 141.457C18.5666 140.661 18.468 139.859 18.2033 139.104C17.9387 138.35 17.5143 137.662 16.9591 137.087L7.1916 136.75Z" fill="white" stroke="#263238" stroke-linecap="round" stroke-linejoin="round"/>
<path d="M4.81556 141.855C4.41707 143.276 4.29218 144.759 4.44756 146.226C4.81557 148.05 6.45626 148.234 10.4737 149.292C14.4911 150.35 16.6071 149.292 17.3891 147.652C17.7571 146.373 17.6255 145.003 17.0211 143.818C17.0211 143.818 6.27226 142.944 4.81556 141.855Z" fill="white" stroke="#263238" stroke-linecap="round" stroke-linejoin="round"/>
<path d="M5.55091 147.682C5.05206 149.024 4.98769 150.488 5.3669 151.868C6.08758 153.509 11.9297 156.975 14.2911 155.518C16.6524 154.061 12.6504 150.228 12.6504 150.228L5.55091 147.682Z" fill="white" stroke="#263238" stroke-linecap="round" stroke-linejoin="round"/>
<path d="M215.147 167.31C222.691 165.96 228.61 155.733 229.146 152.237C229.683 148.741 222.691 129.374 222.691 129.374L190.383 145.781C190.383 145.781 192.269 154.659 194.431 158.692" fill="white"/>
<path d="M215.147 167.31C222.691 165.96 228.61 155.733 229.146 152.237C229.683 148.741 222.691 129.374 222.691 129.374L190.383 145.781C190.383 145.781 192.269 154.659 194.431 158.692" stroke="#263238" stroke-linecap="round" stroke-linejoin="round"/>
<path d="M192.008 129.619C192.008 129.619 184.188 133.928 185.277 137.163C186.366 140.399 193.082 151.7 197.39 152.236C201.699 152.773 221.924 142.009 224.301 133.928C226.678 125.847 218.167 119.668 215.683 116.708C213.199 113.749 207.342 116.708 204.383 119.392C201.423 122.075 192.008 129.619 192.008 129.619Z" fill="#5E79EC" stroke="#263238" stroke-miterlimit="10"/>
<path d="M165.358 95.4407C165.358 95.4407 156.74 88.9852 153.244 87.0992C149.748 85.2131 145.976 77.1323 147.111 74.4489C148.246 71.7656 149.534 70.9529 151.144 74.4489C152.754 77.945 155.452 81.1804 157.277 81.7171C159.102 82.2538 162.123 79.8311 162.123 79.8311C162.123 79.8311 160.773 71.7502 158.626 70.4009C156.48 69.0515 153.505 70.4009 151.895 70.6769C150.285 70.9529 147.862 68.2542 150.009 66.9048C152.156 65.5555 155.391 63.1328 158.626 63.4088C161.862 63.6848 166.155 69.3275 166.155 69.3275C166.155 69.3275 162.659 62.0594 162.399 58.594C162.223 56.7121 162.223 54.8178 162.399 52.9359C162.399 52.9359 160.236 49.4399 162.399 47.8298C164.561 46.2198 170.74 52.9359 170.74 52.9359C170.74 52.9359 172.887 50.2525 175.34 54.822C177.793 59.3914 181.474 74.7556 182.608 81.4717C183.199 86.3056 183.112 91.1985 182.348 96.008C182.348 96.008 210.04 118.64 212.263 121.554C214.487 124.467 213.337 127.197 210.73 130.754C208.123 134.311 194.308 138.819 194.308 138.819L169.774 99.5194L165.358 95.4407Z" fill="white" stroke="#263238" stroke-linecap="round" stroke-linejoin="round"/>
<path d="M175.586 97.5874C175.586 97.5874 170.74 95.9774 172.09 88.3872C172.761 84.2228 173.935 80.1552 175.586 76.2737" stroke="#263238" stroke-linecap="round" stroke-linejoin="round"/>
<path d="M170.74 52.9053L175.31 69.3276" stroke="#263238" stroke-linecap="round" stroke-linejoin="round"/>
<path d="M162.398 52.9053C162.398 52.9053 165.895 57.5054 166.431 58.5634C166.968 59.6214 170.203 70.1402 170.203 70.1402" stroke="#263238" stroke-linecap="round" stroke-linejoin="round"/>
<path d="M77.8641 203.773L77.8027 214.675L151.097 210.351L149.595 197.21L77.8641 203.773Z" fill="#263238" stroke="#263238" stroke-miterlimit="10"/>
<path d="M71.8081 470.547C71.8081 470.547 67.208 481.28 61.4732 491.876C55.7385 502.471 52.8251 511.81 54.8185 513.527C56.8118 515.244 66.472 517.529 73.4795 509.862C80.4869 502.195 79.4749 495.878 81.8056 489.545C84.1363 483.212 86.1297 468.247 86.1297 468.247L71.8081 470.547Z" fill="white" stroke="#263238" stroke-linecap="round" stroke-linejoin="round"/>
<path d="M67.4832 505.201C60.4297 506.213 58.8963 500.601 58.5743 497.733C54.8636 505.783 53.1922 512.177 54.8176 513.527C56.811 515.198 66.4711 517.529 73.4786 509.862C80.4861 502.195 79.474 495.878 81.8047 489.545C81.8047 489.468 81.8047 489.392 81.8814 489.33C79.612 494.145 74.9353 504.143 67.4832 505.201Z" fill="#263238" stroke="#263238" stroke-miterlimit="10"/>
<path d="M145.777 467.879V491.876C145.777 496.875 145.44 500.202 150.101 501.536C154.762 502.87 159.439 502.533 166.094 503.207C172.749 503.882 178.759 507.194 185.092 506.535C191.425 505.875 202.741 503.468 202.082 498.868C201.423 494.268 188.082 494.268 180.093 489.208C172.105 484.148 163.104 474.886 163.104 474.886C163.104 474.886 162.429 467.219 162.429 465.885C162.429 464.551 145.777 467.879 145.777 467.879Z" fill="white" stroke="#263238" stroke-linecap="round" stroke-linejoin="round"/>
<path d="M184.663 491.416L180.385 496.537C180.385 496.537 168.118 497.212 159.731 493.21L145.747 486.463V491.876C145.747 496.874 145.409 500.202 150.071 501.536C154.732 502.87 159.409 502.532 166.064 503.207C172.718 503.882 178.729 507.194 185.062 506.535C191.395 505.875 202.711 503.468 202.052 498.868C201.53 495.019 192.33 494.314 184.663 491.416Z" fill="#263238" stroke="#263238" stroke-miterlimit="10"/>
<path d="M69.1394 349.61L67.4834 473.889L88.4598 475.208L116.459 341.606L123.788 341.944L141.437 471.221L167.428 470.225L171.093 342.281L172.089 328.619L67.4834 332.283L69.1394 349.61Z" fill="#5E79EC" stroke="#263238" stroke-miterlimit="10"/>
<path d="M77.8028 214.675C77.8028 214.675 65.1525 235.329 60.8131 258.652C56.4737 281.974 60.4758 355.253 60.4758 355.253L193.418 351.589C193.418 351.589 189.416 264.31 170.433 233.643C151.45 202.975 151.097 210.32 151.097 210.32L77.8028 214.675Z" fill="#263238" stroke="#263238" stroke-miterlimit="10"/>
<path d="M76.73 74.3417C76.73 74.3417 72.1299 82.6219 77.2973 88.9087C82.4647 95.1954 95.299 88.05 97.5837 80.9045C99.8684 73.7591 93.8729 65.7703 89.5949 65.7703C85.3168 65.7703 77.328 71.4897 76.73 74.3417Z" fill="#263238" stroke="#263238" stroke-miterlimit="10"/>
<path d="M133.31 45.7598C135.096 49.5239 136.528 53.4457 137.588 57.4747C138.947 64.6501 139.818 71.9093 140.195 79.2024C140.471 85.4892 140.471 89.1999 138.186 90.9172C135.902 92.6346 127.054 94.9193 122.193 94.3366C117.333 93.754 106.477 91.1932 102.474 88.6325C98.4724 86.0718 95.329 84.9065 94.4703 82.9131C93.6802 81.2858 92.7245 79.7443 91.6183 78.313C91.6183 78.313 85.3315 79.7391 83.3381 77.4543C81.3448 75.1696 81.0381 70.0175 81.0381 70.0175C90.4234 63.5047 100.148 57.4957 110.172 52.0159C126.395 43.1991 133.31 45.7598 133.31 45.7598Z" fill="white" stroke="#263238" stroke-linecap="round" stroke-linejoin="round"/>
<path d="M128.726 53.4878C128.726 53.4878 130.443 58.9159 131.792 60.0506C133.142 61.1853 138.37 62.6266 136.944 65.4787C136.382 66.354 135.624 67.0867 134.73 67.6189C133.835 68.1511 132.83 68.4683 131.792 68.5454" stroke="#263238" stroke-linecap="round" stroke-linejoin="round"/>
<path d="M119.02 73.1917C121.126 74.7724 123.627 75.7418 126.248 75.9934C128.87 76.245 131.509 75.769 133.878 74.6177" stroke="#263238" stroke-linecap="round" stroke-linejoin="round"/>
<path d="M113.024 62.9028C113.024 62.9028 119.296 63.7615 121.596 60.0508" stroke="#263238" stroke-linecap="round" stroke-linejoin="round"/>
<path d="M130.443 57.7662C130.443 57.7662 135.304 58.0576 136.454 55.1902" stroke="#263238" stroke-linecap="round" stroke-linejoin="round"/>
<path d="M108.439 56.9076C110.47 53.628 113.618 51.1935 117.302 50.0535" stroke="#263238" stroke-linecap="round" stroke-linejoin="round"/>
<path d="M127.024 47.2013C128.241 46.4102 129.716 46.1171 131.143 46.3825C132.57 46.6479 133.84 47.4516 134.691 48.6273" stroke="#263238" stroke-linecap="round" stroke-linejoin="round"/>
<path d="M123.59 32.9103C123.59 32.9103 128.19 29.1995 129.018 19.11C129.846 9.0205 119.296 -0.317657 97.875 1.69105C76.454 3.69975 57.8697 21.7627 52.7942 31.2389C47.7188 40.7151 48.5008 51.1726 59.9397 54.6687C71.3786 58.1647 71.0719 59.8207 71.0719 59.8207C71.0719 59.8207 90.4996 48.9492 95.9277 45.8058C101.356 42.6624 123.59 32.9103 123.59 32.9103Z" fill="white" stroke="#263238" stroke-linecap="round" stroke-linejoin="round"/>
<path d="M76.7302 74.3418C76.7302 74.3418 115.877 48.2746 133.311 45.7599L123.59 32.9104C123.59 32.9104 108.164 32.343 91.0211 43.1992C73.8781 54.0554 71.0107 59.7748 71.0107 59.7748L76.7302 74.3418Z" fill="#5E79EC" stroke="#263238" stroke-miterlimit="10"/>
<path d="M381.169 40.4311C381.169 40.4311 377.232 42.7937 385.913 45.1563C394.594 47.5189 411.553 46.7314 413.147 45.1563C414.74 43.5812 413.147 41.2186 406.828 39.6619C400.51 38.1051 384.722 38.4531 381.169 40.4311Z" fill="#263238" stroke="#263238" stroke-linecap="round" stroke-linejoin="round"/>
<path d="M390.728 494.288C390.728 494.288 373.494 499.782 366.718 504.141C359.941 508.5 366.718 510.295 375.875 510.295C385.033 510.295 394.043 507.218 397.743 506.907C401.443 506.595 408.823 506.284 406.662 497.053C404.501 487.823 390.728 494.288 390.728 494.288Z" fill="white" stroke="#263238" stroke-linecap="round" stroke-linejoin="round"/>
<path d="M448.549 505.68C448.549 505.68 430.381 523.207 428.842 529.068C427.304 534.928 438 534.288 446.388 528.134C454.776 521.98 460.234 513.061 461.168 508.757C462.102 504.453 454.135 500.442 448.549 505.68Z" fill="white" stroke="#263238" stroke-linecap="round" stroke-linejoin="round"/>
<path d="M380.052 105.76C380.052 105.76 372.36 112.261 371.133 116.547C369.906 120.833 354.045 187.352 354.045 187.352L391.901 202.004L400.436 125.082C400.436 125.082 397.506 98.6536 380.052 105.76Z" fill="white"/>
<path d="M380.052 105.76C380.052 105.76 372.36 112.261 371.133 116.547C369.905 120.833 354.045 187.352 354.045 187.352L391.901 202.004L400.436 125.082C400.436 125.082 397.506 98.6536 380.052 105.76Z" stroke="#263238" stroke-linecap="round" stroke-linejoin="round"/>
<path d="M380.289 228.871C380.289 228.871 374.795 269.768 373.586 296.031C372.377 322.294 374.795 357.679 376.022 375.993C377.249 394.308 390.362 481.541 390.362 483.006C390.362 484.471 387.432 487.402 387.432 489.361C387.695 491.519 388.187 493.644 388.897 495.698C392.053 496.265 395.159 497.086 398.183 498.152C401.324 499.361 404.803 499.361 407.945 498.152C407.945 498.152 407.945 478.116 410.399 468.354C412.853 458.593 419.373 350.975 419.373 350.975V338.155C419.373 338.155 428.53 401.029 431.571 421.176C434.611 441.322 442.559 478.556 444.391 484.05C445.485 487.187 445.903 490.52 445.618 493.83V500.533L447.449 509.086C447.449 509.086 449.885 513.354 454.171 513.354C457.235 513.115 460.181 512.066 462.706 510.313C462.706 510.313 466.991 474.893 468.2 463.904C469.409 452.915 470.031 409.582 468.823 405.297C467.704 399.851 466.885 394.349 466.369 388.814C466.369 388.814 471.259 315.555 468.823 298.467C466.387 281.379 465.16 237.424 465.16 237.424C465.16 237.424 411.424 250.244 380.289 228.871Z" fill="#263238" stroke="#263238" stroke-linecap="round" stroke-linejoin="round"/>
<path d="M419.372 338.155L413.255 291.141L404.721 282.607" stroke="white" stroke-linecap="round" stroke-linejoin="round"/>
<path d="M417.596 94.1114C417.596 94.1114 395.619 95.8512 380.051 105.833C376.809 107.921 378.879 178.194 378.879 193.047C378.879 207.901 376.516 228.248 376.919 230.996C377.322 233.743 391.388 243.816 415.234 246.636C439.079 249.457 465.691 243.102 467.247 239.585C468.804 236.069 468.035 230.996 468.035 229.421C468.035 227.845 494.335 141.07 492.32 131.29C490.306 121.51 488.438 110.595 470.782 102.243C459.39 96.8769 443.402 92.866 435.178 92.866C429.3 92.9707 423.431 93.3864 417.596 94.1114Z" fill="white"/>
<path d="M417.596 94.1114C417.596 94.1114 395.619 95.8512 380.051 105.833C376.809 107.921 378.879 178.194 378.879 193.047C378.879 207.901 376.516 228.248 376.919 230.996C377.322 233.743 391.388 243.816 415.234 246.636C439.079 249.457 465.691 243.102 467.247 239.585C468.804 236.069 468.035 230.996 468.035 229.421C468.035 227.845 494.335 141.07 492.32 131.29C490.306 121.51 488.438 110.595 470.782 102.243C459.39 96.8769 443.402 92.866 435.178 92.866C429.3 92.9707 423.431 93.3864 417.596 94.1114V94.1114Z" stroke="#263238" stroke-linecap="round" stroke-linejoin="round"/>
<path d="M412.816 120.704C412.816 120.704 410.875 115.21 407.322 115.21C404.221 115.523 401.188 116.314 398.329 117.554C398.329 117.554 403.421 103.086 410.856 93.3056C418.292 83.5255 438.622 80.4853 443.695 85.8698C448.495 91.2832 451.26 98.1993 451.515 105.43C451.515 111.291 433.53 124.587 432.358 124.99C431.186 125.393 428.841 119.899 423.75 119.899C420.589 119.917 417.441 120.31 414.373 121.071L412.816 120.704Z" fill="white" stroke="#263238" stroke-linecap="round" stroke-linejoin="round"/>
<path d="M413.219 83.5439C413.219 83.5439 409.3 117.188 412.816 120.705C416.333 124.221 423.384 113.653 429.3 108.965C435.215 104.276 442.999 92.4815 443.768 85.8882C444.245 80.8238 444.379 75.733 444.171 70.6504C444.171 70.6504 432.047 87.4633 425.856 87.4633C421.388 87.2059 417.049 85.8604 413.219 83.5439Z" fill="white"/>
<path d="M413.219 83.5439C413.219 83.5439 409.3 117.188 412.816 120.705C416.333 124.221 423.384 113.653 429.3 108.965C435.215 104.276 442.999 92.4815 443.768 85.8882C444.245 80.8238 444.379 75.733 444.171 70.6504C444.171 70.6504 432.047 87.4633 425.856 87.4633C421.388 87.2059 417.049 85.8604 413.219 83.5439V83.5439Z" stroke="#263238" stroke-linecap="round" stroke-linejoin="round"/>
<path d="M402.89 41.2187C402.89 41.2187 402.103 64.4967 405.253 73.5808C408.403 82.6649 416.7 96.4742 427.762 93.3241C438.824 90.1739 447.102 67.6834 447.102 67.6834C447.102 67.6834 457.358 62.9399 459.336 55.8338C460.466 51.1456 460.333 46.2418 458.952 41.6216C458.952 41.6216 437.23 34.9184 425.784 35.7059C418.457 36.3134 411.267 38.043 404.465 40.8341L402.89 41.2187Z" fill="white"/>
<path d="M402.89 41.2187C402.89 41.2187 402.103 64.4967 405.253 73.5808C408.403 82.6649 416.7 96.4742 427.762 93.3241C438.824 90.1739 447.102 67.6834 447.102 67.6834C447.102 67.6834 457.358 62.9399 459.336 55.8338C460.466 51.1456 460.333 46.2418 458.952 41.6216C458.952 41.6216 437.23 34.9184 425.784 35.7059C418.457 36.3134 411.267 38.043 404.465 40.8341L402.89 41.2187Z" stroke="#263238" stroke-linecap="round" stroke-linejoin="round"/>
<path d="M417.67 52.2805C417.233 54.5017 416.435 56.6361 415.307 58.5991C413.329 62.1521 408.586 62.9397 410.179 64.9177C411.772 66.8957 418.86 67.6832 418.86 67.6832" stroke="#263238" stroke-linecap="round" stroke-linejoin="round"/>
<path d="M428.64 55.3758C428.64 57.3355 427.926 58.9288 427.065 58.9288C426.204 58.9288 425.472 57.3355 425.472 55.3758C425.472 53.4161 426.186 51.8228 427.065 51.8228C427.944 51.8228 428.64 53.4161 428.64 55.3758Z" fill="#263238"/>
<path d="M412.836 53.8192C412.836 55.7972 412.14 57.3722 411.261 57.3722C410.382 57.3722 409.686 55.7972 409.686 53.8192C409.686 51.8412 410.382 50.2661 411.261 50.2661C412.14 50.2661 412.836 51.7862 412.836 53.8192Z" fill="#263238"/>
<path d="M417.103 73.5807C417.103 73.5807 424.593 75.5587 429.74 70.8152" stroke="#263238" stroke-linecap="round" stroke-linejoin="round"/>
<path d="M424.996 45.2662C424.996 45.2662 428.659 41.6032 431.461 48.105" stroke="#263238" stroke-linecap="round" stroke-linejoin="round"/>
<path d="M413.147 45.1563C413.147 45.1563 406.81 44.8632 406.004 48.5079" stroke="#263238" stroke-linecap="round" stroke-linejoin="round"/>
<path d="M445.527 38.4529C445.527 38.4529 441.974 52.2622 447.505 53.1047C453.036 53.9471 455.398 40.8704 455.398 40.8704L445.527 38.4529Z" fill="#5E79EC" stroke="#263238" stroke-linecap="round" stroke-linejoin="round"/>
<path d="M403.274 37.3358C403.274 37.3358 404.08 20.761 404.868 13.6549C405.655 6.54882 419.52 0.633148 433.292 1.01776C447.065 1.40237 459.61 13.1971 461.186 17.9406C462.761 22.6841 461.186 40.9988 461.186 40.9988L460.563 48.6727C460.563 48.6727 442.358 41.3468 426.186 40.5043C410.014 39.6618 404.465 40.8889 404.465 40.8889L403.274 37.3358Z" fill="#5E79EC" stroke="#263238" stroke-linecap="round" stroke-linejoin="round"/>
<path d="M415.545 19.0029L409.392 17.9407L409.172 19.3326L412.707 19.9003L412.469 22.6842L415.069 23.4717L415.307 25.7244L418.604 26.8416L415.545 19.0029Z" fill="white"/>
<path d="M423.568 19.6619L429.704 19.5886L429.942 21.0172H426.407L426.645 23.8377L424.044 24.1856L423.806 26.42L420.51 26.9878L423.568 19.6619Z" fill="white"/>
<path d="M437.56 41.6031C431.879 43.0705 426.046 43.8696 420.18 43.9841C411.499 43.9841 394.539 40.0281 389.045 40.0281C386.401 39.9689 383.757 40.1036 381.133 40.431C388.643 37.6478 396.467 35.8024 404.429 34.9366C416.7 33.6729 434.081 39.6252 437.56 41.6031Z" fill="white" stroke="#263238" stroke-linecap="round" stroke-linejoin="round"/>
<path d="M389.447 188.506C389.447 188.506 385.07 181.29 384.374 181.052C383.678 180.813 377.872 177.828 376.92 177.517C375.968 177.205 373.715 176.949 374.338 179C374.96 181.052 379.118 183.469 379.118 183.469L380.748 187.938L389.447 188.506Z" fill="white" stroke="#263238" stroke-linecap="round" stroke-linejoin="round"/>
<path d="M412.816 120.704L407.157 156.839L413.11 157.755L416.315 137.151" stroke="#263238" stroke-linecap="round" stroke-linejoin="round"/>
<path d="M398.861 152.48L368.752 219.75L311.262 222.095L342.543 154.44L398.861 152.48Z" fill="#263238" stroke="#263238" stroke-linecap="round" stroke-linejoin="round"/>
<path d="M391.466 162.739H294V225.944H391.466V162.739Z" fill="#5E79EC" stroke="#263238" stroke-linecap="round" stroke-linejoin="round"/>
<path d="M391.466 162.739H294L309.951 133H407.416L391.466 162.739Z" fill="#5E79EC" stroke="#263238" stroke-linecap="round" stroke-linejoin="round"/>
<path d="M302.51 147.511H303.212" stroke="#263238" stroke-miterlimit="10"/>
<path d="M304.594 147.511H398.296" stroke="#263238" stroke-miterlimit="10" stroke-dasharray="1.98 1.98"/>
<path d="M398.992 147.511H399.694" stroke="#263238" stroke-miterlimit="10"/>
<path d="M407.416 133V195.188L391.466 225.951V162.739L407.416 133Z" fill="#5E79EC"/>
<path opacity="0.2" d="M407.416 133V195.188L391.466 225.951V162.739L407.416 133Z" fill="black"/>
<path d="M407.416 133V195.188L391.466 225.951V162.739L407.416 133Z" stroke="#263238" stroke-linecap="round" stroke-linejoin="round"/>
<path d="M333.609 162.739H347.538L362.513 133H348.591L333.609 162.739Z" fill="white" stroke="#263238" stroke-miterlimit="10"/>
<path d="M347.636 189.108L340.798 184.172L333.609 189.108V162.739H347.636V189.108Z" fill="white" stroke="#263238" stroke-miterlimit="10"/>
<path d="M394.009 189.751C394.009 189.751 382.635 184.44 381.188 184.44L359.925 184.202C358.831 185.163 358.069 186.445 357.745 187.865C357.507 189.788 356.299 193.176 357.507 194.879C358.716 196.582 371.28 203.341 376.353 205.996C381.426 208.652 396.499 206.472 396.499 206.472C396.499 206.472 432.506 222.186 444.594 228.23C456.682 234.274 467.066 237.662 472.157 237.662C477.249 237.662 483.751 207.919 483.751 207.919L456.443 200.593L454.264 207.919C454.264 207.919 438.312 203.579 418.972 199.952C401.499 196.674 394.009 189.751 394.009 189.751Z" fill="white" stroke="#263238" stroke-linecap="round" stroke-linejoin="round"/>
<path d="M358.478 186.857C358.478 186.857 375.876 190.245 378.532 190.722" stroke="#263238" stroke-linecap="round" stroke-linejoin="round"/>
<path d="M357.269 190.246C357.269 190.246 375.144 196.289 376.114 196.528" stroke="#263238" stroke-linecap="round" stroke-linejoin="round"/>
<path d="M358.953 195.081C358.953 195.081 372.25 200.886 374.191 201.124" stroke="#263238" stroke-linecap="round" stroke-linejoin="round"/>
<path d="M456.113 137.884L448.787 204.916C448.787 204.916 463.073 211.124 472.23 212.699C477.454 213.624 482.749 214.083 488.054 214.073C488.054 214.073 494.977 160.045 494.537 145.942C494.098 131.84 492.193 118.672 484.556 116.639" fill="white"/>
<path d="M456.113 137.884L448.787 204.916C448.787 204.916 463.073 211.124 472.23 212.699C477.454 213.624 482.749 214.083 488.054 214.073C488.054 214.073 494.977 160.045 494.537 145.942C494.098 131.84 492.193 118.672 484.556 116.639" stroke="#263238" stroke-linecap="round" stroke-linejoin="round"/>
</svg>
