<svg width="40" height="40" viewBox="0 0 40 40" fill="none" xmlns="http://www.w3.org/2000/svg">
<rect width="40" height="40" rx="8" fill="#5E79EC"/>
<path d="M17 19.25C21.1421 19.25 24.5 17.739 24.5 15.875C24.5 14.011 21.1421 12.5 17 12.5C12.8579 12.5 9.5 14.011 9.5 15.875C9.5 17.739 12.8579 19.25 17 19.25Z" stroke="white" stroke-width="1.5" stroke-linecap="round" stroke-linejoin="round"/>
<path d="M9.5 15.875V19.625C9.5 21.4906 12.8562 23 17 23C21.1438 23 24.5 21.4906 24.5 19.625V15.875" stroke="white" stroke-width="1.5" stroke-linecap="round" stroke-linejoin="round"/>
<path d="M14 18.9688V22.7188" stroke="white" stroke-width="1.5" stroke-linecap="round" stroke-linejoin="round"/>
<path d="M24.5 17.0659C27.9219 17.3847 30.5 18.744 30.5 20.3753C30.5 22.2409 27.1438 23.7503 23 23.7503C21.1625 23.7503 19.475 23.4503 18.1719 22.9628" stroke="white" stroke-width="2" stroke-linecap="round" stroke-linejoin="round"/>
<path d="M15.5 22.9344V24.125C15.5 25.9906 18.8562 27.5 23 27.5C27.1438 27.5 30.5 25.9906 30.5 24.125V20.375" stroke="white" stroke-width="2" stroke-linecap="round" stroke-linejoin="round"/>
<path d="M26 23.4688V27.2188" stroke="white" stroke-width="2" stroke-linecap="round" stroke-linejoin="round"/>
<path d="M20 18.9688V27.2188" stroke="white" stroke-width="2" stroke-linecap="round" stroke-linejoin="round"/>
</svg>
