<?xml version="1.0" encoding="utf-8"?><svg xmlns="http://www.w3.org/2000/svg" xmlns:xlink="http://www.w3.org/1999/xlink"><symbol viewBox="0 0 33 32" id="address" xmlns="http://www.w3.org/2000/svg"><path d="M17.758 18a4 4 0 100-8 4 4 0 000 8zM4.758 13.5h3M4.758 8.5h3M4.758 18.5h3M4.758 23.5h3M11.758 21a7.5 7.5 0 0112 0"/><path d="M27.758 27V5a1 1 0 00-1-1h-18a1 1 0 00-1 1v22a1 1 0 001 1h18a1 1 0 001-1z"/></symbol><symbol viewBox="0 0 56 24" id="arrow-right" xmlns="http://www.w3.org/2000/svg"><path d="M55.06 13.06a1.5 1.5 0 000-2.12l-9.545-9.547a1.5 1.5 0 10-2.122 2.122L51.88 12l-8.486 8.485a1.5 1.5 0 102.122 2.122l9.546-9.546zM0 13.5h54v-3H0v3z"/></symbol><symbol viewBox="0 0 33 32" id="bank" xmlns="http://www.w3.org/2000/svg"><path d="M3.758 12h26l-13-8-13 8zM7.758 12v10M13.758 12v10M19.758 12v10M25.758 12v10M4.758 22h24M2.758 26h28"/></symbol><symbol viewBox="0 0 33 32" id="book" xmlns="http://www.w3.org/2000/svg"><path d="M22.758 4v12l-4-3-4 3V4"/><path d="M6.758 27a2.987 2.987 0 013-3h17V4h-17a2.987 2.987 0 00-3 3v20zM6.758 27v1h18"/></symbol><symbol viewBox="0 0 38 38" id="burger" xmlns="http://www.w3.org/2000/svg"><path clip-rule="evenodd" d="M3 10a2 2 0 012-2h28a2 2 0 110 4H5a2 2 0 01-2-2zm0 9a2 2 0 012-2h28a2 2 0 110 4H5a2 2 0 01-2-2zm2 7a2 2 0 100 4h28a2 2 0 100-4H5z"/></symbol><symbol viewBox="0 0 33 32" id="chart" xmlns="http://www.w3.org/2000/svg"><path d="M16.758 16V4M27.145 10L6.37 22M4.958 18.2a11.612 11.612 0 01-.2-2.2 11.987 11.987 0 018-11.313v9l-7.8 4.513zM16.758 4a12 12 0 11-10.35 18.075"/></symbol><symbol viewBox="0 0 18 18" id="close" xmlns="http://www.w3.org/2000/svg"><path clip-rule="evenodd" d="M15.031 17.395a1.5 1.5 0 002.121-2.121l-6.01-6.01 6.01-6.011a1.5 1.5 0 00-2.12-2.121L9.02 7.142l-6.01-6.01A1.5 1.5 0 10.888 3.253l6.01 6.01-6.01 6.01a1.5 1.5 0 002.121 2.122l6.01-6.01 6.011 6.01z"/></symbol><symbol viewBox="0 0 33 32" id="coffee" xmlns="http://www.w3.org/2000/svg"><path d="M11.758 3v4M15.758 3v4M19.758 3v4M4.758 27h22M11.17 27a11 11 0 01-6.412-10v-6h22v6a11 11 0 01-6.413 10"/><path d="M26.758 11a4 4 0 014 4v1a4 4 0 01-4 4h-.425"/></symbol><symbol viewBox="0 0 33 32" id="coins" xmlns="http://www.w3.org/2000/svg"><path d="M12.758 15c5.523 0 10-2.015 10-4.5S18.28 6 12.758 6s-10 2.015-10 4.5 4.477 4.5 10 4.5z"/><path d="M2.758 10.5v5c0 2.488 4.475 4.5 10 4.5s10-2.012 10-4.5v-5M8.758 14.625v5"/><path d="M22.758 12.088c4.562.425 8 2.237 8 4.412 0 2.488-4.475 4.5-10 4.5-2.45 0-4.7-.4-6.438-1.05"/><path d="M10.758 19.913V21.5c0 2.488 4.475 4.5 10 4.5s10-2.012 10-4.5v-5M24.758 20.625v5M16.758 14.625v11"/></symbol><symbol viewBox="0 0 10 11" id="cross" xmlns="http://www.w3.org/2000/svg"><path d="M9.3.901L.433 9.768m0-8.867L9.3 9.768"/></symbol><symbol viewBox="0 0 20 19" id="mail" xmlns="http://www.w3.org/2000/svg"><path d="M3.09 4.083h14V14a.583.583 0 01-.582.583H3.674A.583.583 0 013.091 14V4.083z"/><path d="M17.09 4.083l-7 6.417-7-6.417M8.815 9.333l-5.542 5.082M16.909 14.415l-5.542-5.082"/></symbol><symbol viewBox="0 0 28 28" id="ok" xmlns="http://www.w3.org/2000/svg"><path d="M25.667 12.927V14a11.667 11.667 0 11-6.919-10.663"/><path d="M25.667 4.667L14 16.345l-3.5-3.5"/></symbol><symbol viewBox="0 0 33 32" id="phone" xmlns="http://www.w3.org/2000/svg"><path d="M28.508 19.8l-5.863-2.5a1.949 1.949 0 00-1.887.162l-3.138 2.087a9.562 9.562 0 01-4.4-4.374l2.075-3.176a1.986 1.986 0 00.175-1.887L12.958 4.25a2.038 2.038 0 00-2.088-1.2A7.025 7.025 0 004.758 10c0 9.924 8.075 18 18 18a7.025 7.025 0 006.95-6.113 2.038 2.038 0 00-1.2-2.088z"/></symbol><symbol viewBox="0 0 33 32" id="pin" xmlns="http://www.w3.org/2000/svg"><path d="M16.758 2a11.012 11.012 0 00-11 11c0 9.413 10 16.525 10.425 16.825a1.038 1.038 0 001.15 0c.425-.3 10.425-7.412 10.425-16.825a11.012 11.012 0 00-11-11zm0 7a4 4 0 110 8 4 4 0 010-8z"/></symbol><symbol viewBox="0 0 33 32" id="shield" xmlns="http://www.w3.org/2000/svg"><path d="M5.758 14.338V7a1 1 0 011-1h20a1 1 0 011 1v7.338c0 10.5-8.913 13.975-10.688 14.562a.9.9 0 01-.625 0c-1.775-.587-10.687-4.063-10.687-14.562z"/><path d="M22.258 13l-7.338 7-3.662-3.5"/></symbol><symbol viewBox="0 0 20 19" id="tg" xmlns="http://www.w3.org/2000/svg"><g clip-path="url(#pclip0_1301_5750)"><path d="M15.365 2.842s1.511-.589 1.385.842c-.042.59-.42 2.651-.713 4.882l-1.008 6.607s-.084.968-.839 1.136c-.755.168-1.889-.59-2.099-.758-.167-.126-3.147-2.02-4.197-2.945-.293-.253-.63-.758.042-1.347l4.407-4.208c.504-.505 1.008-1.684-1.091-.253l-5.876 3.998s-.671.42-1.93.042L.716 9.997s-1.007-.632.714-1.263c4.197-1.978 9.36-3.998 13.934-5.892z"/></g><defs><clipPath id="pclip0_1301_5750"><path transform="translate(.424)" d="M0 0h18.667v18.667H0z"/></clipPath></defs></symbol><symbol viewBox="0 0 33 32" id="tick" xmlns="http://www.w3.org/2000/svg"><path d="M26.758 12l-10 10-10-10"/></symbol><symbol viewBox="0 0 13 12" id="warning" xmlns="http://www.w3.org/2000/svg"><path d="M6.09 10.5a4.5 4.5 0 100-9 4.5 4.5 0 000 9z"/><path d="M6.09 3.75v2.625"/><path d="M6.09 8.625a.563.563 0 100-1.125.563.563 0 000 1.125z"/></symbol><symbol viewBox="0 0 19 19" id="wt" xmlns="http://www.w3.org/2000/svg"><g clip-path="url(#sclip0_1304_2164)"><path d="M2.424 16.333l1.284-2.955a7 7 0 112.644 2.255l-3.928.7z"/><path d="M2.424 16.333l1.284-2.955a7 7 0 112.644 2.255l-3.928.7"/><path d="M7.09 7.778a.389.389 0 10.779 0V7a.389.389 0 10-.778 0v.778zm0 0a3.889 3.889 0 003.89 3.889h.777a.389.389 0 100-.778h-.777a.389.389 0 100 .778"/></g><defs><clipPath id="sclip0_1304_2164"><path transform="translate(.09)" d="M0 0h18.667v18.667H0z"/></clipPath></defs></symbol></svg>