<svg width="43" height="20" viewBox="0 0 43 20" fill="none" xmlns="http://www.w3.org/2000/svg">
<path fill-rule="evenodd" clip-rule="evenodd" d="M24.9845 19.4599C23.4966 20.1556 21.7264 19.5134 21.0307 18.0255L14.6693 4.42074C13.9736 2.93284 14.6158 1.16267 16.1037 0.46695C17.5916 -0.228768 19.3618 0.413423 20.0575 1.90132L26.4188 15.5061C27.1146 16.994 26.4724 18.7641 24.9845 19.4599ZM15.8719 19.8105C16.2622 19.7926 16.645 19.6979 16.9986 19.5316C17.3529 19.367 17.6713 19.1341 17.9353 18.8461C18.1994 18.5581 18.404 18.2208 18.5373 17.8536C18.6707 17.4863 18.7302 17.0963 18.7124 16.706C18.6946 16.3157 18.5999 15.9328 18.4336 15.5792L12.0602 1.97737C11.8747 1.55494 11.5888 1.18419 11.2274 0.897321C10.8661 0.610454 10.4401 0.416138 9.98661 0.331249C9.78452 0.276634 9.57581 0.250408 9.36648 0.253326H9.347C9.13767 0.250408 8.92896 0.276634 8.72687 0.331249C8.27355 0.4163 7.84784 0.61069 7.48667 0.897549C7.1255 1.18441 6.83979 1.55507 6.65434 1.97737L0.279835 15.5792C-0.0541279 16.2935 -0.090665 17.1112 0.178261 17.8524C0.447187 18.5936 0.999546 19.1976 1.71383 19.5316C2.42811 19.8656 3.2458 19.9021 3.98702 19.6332C4.72824 19.3643 5.33228 18.8119 5.66624 18.0976L9.36648 10.2318L13.0462 18.0976C13.2108 18.4519 13.4439 18.7701 13.7319 19.0341C14.0199 19.298 14.3572 19.5025 14.7244 19.6357C15.0917 19.769 15.4816 19.8284 15.8719 19.8105ZM28.9881 18.0263C29.6838 19.5142 31.454 20.1564 32.9419 19.4607C34.4298 18.7649 35.072 16.9948 34.3763 15.5069L28.0149 1.90212C27.3192 0.414222 25.549 -0.227969 24.0611 0.467749C22.5732 1.16347 21.931 2.93364 22.6268 4.42154L28.9881 18.0263ZM40.8993 19.4613C39.4114 20.157 37.6412 19.5148 36.9455 18.0269L30.5842 4.42214C29.8885 2.93424 30.5307 1.16407 32.0186 0.468353C33.5065 -0.227365 35.2766 0.414823 35.9724 1.90272L42.3337 15.5075C43.0294 16.9954 42.3872 18.7655 40.8993 19.4613Z" fill="#5E79EC"/>
</svg>
