<svg width="829" height="710" viewBox="0 0 829 710" fill="none" xmlns="http://www.w3.org/2000/svg">
<path d="M1037.51 471.265C1037.51 471.265 1011.38 466.916 1007.89 459.073C1004.39 451.231 1000.46 440.282 992.572 435.832C982.848 430.34 974.586 440.315 965.182 433.8C953.863 425.957 952.99 408.526 924.223 405.05C895.456 401.573 896.347 433.8 894.6 439.039C892.854 444.279 876.312 433.8 866.723 440.718C857.134 447.637 859.754 461.643 857.134 464.229C854.515 466.815 842.323 461.626 838.83 464.229C835.337 466.832 830.987 469.468 830.987 469.468L810.953 475.564H1050.63L1037.51 471.265Z" stroke="#263238" stroke-linecap="round" stroke-linejoin="round"/>
<path d="M671.854 49.017C671.854 49.017 652.945 45.8767 650.46 40.2174C647.974 34.5581 645.086 26.6317 639.393 23.4242C632.357 19.461 626.395 26.6653 619.594 21.9632C611.416 16.3039 610.778 3.70899 590.004 1.19001C569.231 -1.32897 569.853 21.9632 568.61 25.7417C567.367 29.5201 555.377 21.9632 548.458 27.0012C541.539 32.0391 543.42 42.115 541.522 43.9959C539.625 45.8767 530.825 42.115 528.306 43.9959C525.787 45.8767 522.647 47.7743 522.647 47.7743L508.154 52.191H681.309L671.854 49.017Z" stroke="#263238" stroke-linecap="round" stroke-linejoin="round"/>
<path d="M231.722 334.316C231.722 334.316 218.186 332.066 216.373 328.002C214.559 323.938 212.527 318.245 208.43 315.944C203.392 313.106 199.109 318.262 194.239 314.903C188.362 310.822 187.908 301.804 172.996 299.991C158.084 298.177 158.554 314.903 157.647 317.607C156.74 320.31 148.159 314.903 143.188 318.514C138.217 322.124 139.577 329.345 138.15 330.705C136.723 332.066 130.476 329.345 128.662 330.705C126.848 332.066 124.598 333.409 124.598 333.409L114.22 336.583H238.489L231.722 334.316Z" stroke="#263238" stroke-linecap="round" stroke-linejoin="round"/>
<path d="M369.292 618.877C369.292 618.877 348.401 615.401 345.597 609.137C342.792 602.873 339.669 594.107 333.355 590.547C325.579 586.164 318.98 594.124 311.523 588.867C302.472 582.587 301.767 568.715 278.777 565.877C255.787 563.039 256.492 588.867 255.098 593.032C253.704 597.197 240.471 588.867 232.797 594.426C225.122 599.984 227.238 611.219 225.139 613.251C223.04 615.283 213.3 611.152 210.512 613.251C207.725 615.35 204.248 617.416 204.248 617.416L188.211 622.303H379.737L369.292 618.877Z" stroke="#263238" stroke-linecap="round" stroke-linejoin="round"/>
<path d="M1072.47 434.689L894.23 265.833H935.138L639.376 84.7188L725.995 265.833H766.903L897.017 389.095" stroke="#263238" stroke-linecap="round" stroke-linejoin="round"/>
<path d="M376.378 538.22L274.376 441.609H286.417L199.344 388.273L224.853 441.609H236.893L338.878 538.22" stroke="#263238" stroke-linecap="round" stroke-linejoin="round"/>
<path d="M751.235 359.606L689.117 321.569L707.321 359.606H722.737L795.502 428.542H808.567L735.802 359.606H751.235Z" fill="#263238"/>
<path d="M231.889 85.0885L108.526 9.55273L144.665 85.0885H175.296L319.802 221.97H345.747L201.242 85.0885H231.889Z" fill="#263238"/>
<path d="M709.488 438.434C709.488 438.434 713.435 446.377 715.064 474.203C716.693 502.029 728.162 563.207 734.712 586.718C741.261 610.228 749.456 708.435 749.456 708.435H690.512C690.512 708.435 687.237 687.695 685.054 671.322C682.871 654.948 675.768 627.659 673.047 618.373C670.327 609.086 665.406 591.638 665.406 591.638C665.406 591.638 667.337 510.795 709.488 438.434Z" fill="#5E79EC" stroke="#263238" stroke-linecap="round" stroke-linejoin="round"/>
<path d="M705.089 462.985C705.089 462.985 699.295 487.15 688.783 525.523C678.27 563.895 676.171 588.581 675.65 593.317C675.13 598.053 673.098 618.372 673.098 618.372L665.726 596.995C665.726 596.995 667.287 547.068 672.023 526.043C676.759 505.018 706.18 457.729 706.18 457.729L705.089 462.985Z" fill="#263238" stroke="#263238" stroke-linecap="round" stroke-linejoin="round"/>
<path d="M692.678 661.344C700.435 639.331 705.57 616.48 707.976 593.265" stroke="#263238" stroke-linecap="round" stroke-linejoin="round"/>
<path d="M686.146 677.332C686.146 677.332 687.825 673.974 690.277 667.727" stroke="#263238" stroke-linecap="round" stroke-linejoin="round"/>
<path d="M705.005 562.869C702.083 584.986 697.986 614.928 695.399 629.84" stroke="#263238" stroke-linecap="round" stroke-linejoin="round"/>
<path d="M708.514 535.95C708.514 535.95 707.556 543.474 706.129 554.423" stroke="#263238" stroke-linecap="round" stroke-linejoin="round"/>
<path d="M517.407 392.706L509.581 391.597C509.581 391.597 506.793 382.092 503.435 380.984C500.076 379.876 492.267 380.984 490.605 379.859C485.225 375.393 479.427 371.456 473.291 368.104C462.124 361.957 433.088 371.462 428.621 371.462C424.154 371.462 414.095 364.745 414.095 364.745L386.185 341.235C386.185 341.235 383.397 330.067 370.55 316.666C357.703 303.265 350.398 297.69 340.944 285.397C331.489 273.105 321.413 277.588 313.034 280.93C304.654 284.272 283.998 321.788 288.532 329.06C293.066 336.331 303.646 348.036 309.188 354.736C314.73 361.437 341.095 411.699 348.837 413.932C353.595 415.3 358.257 416.983 362.792 418.97C362.792 418.97 381.785 446.326 396.865 456.386C408.966 464.081 421.448 471.16 434.264 477.595L440.343 482.096C440.343 482.096 447.06 578.707 452.635 597.684C458.211 616.66 458.765 675.856 458.765 675.856L458.144 708.804H654.624L661.895 632.311C661.895 632.311 668.613 554.693 684.785 516.723C700.956 478.754 713.4 443.472 709.487 438.434C705.575 433.396 646.949 406.04 634.657 397.66C622.364 389.28 614.001 383.15 614.001 383.15L526.341 388.188L517.407 392.706Z" fill="#5E79EC" stroke="#263238" stroke-linecap="round" stroke-linejoin="round"/>
<path d="M559.272 640.958L559.843 650.681L533.596 698.139L513.427 669.17L502.881 654.04L503.653 649.556L508.557 621.209L513.494 592.526L518.398 564.162L523.352 535.48L528.239 507.133L533.193 478.45L538.063 450.221L538.029 450.137L528.406 430.421L526.895 427.331L546.997 411.294L551.044 416.5L562.077 430.673L556.132 438.986L548.105 450.221L549.18 468.609L550.624 493.362L552.068 517.813L553.512 542.55L554.94 567.017L556.401 591.754L557.828 616.221L559.272 640.958Z" fill="white" stroke="#263238" stroke-linecap="round" stroke-linejoin="round"/>
<path d="M551.044 416.5L528.406 430.422L538.029 450.187L556.132 439.036L562.077 430.724L551.044 416.5ZM549.18 468.559L533.193 478.4L528.239 507.083L550.624 493.312L549.18 468.559ZM552.068 517.763L523.352 535.429L518.398 564.112L553.512 542.55L552.068 517.763ZM554.94 566.967L513.561 592.526L508.523 621.209L556.367 591.754L554.94 566.967ZM557.828 616.171L503.653 649.556L502.881 654.04L513.427 669.154L559.272 640.941L557.828 616.171Z" fill="#263238"/>
<path d="M386.738 345.247L393.993 370.37" stroke="#263238" stroke-linecap="round" stroke-linejoin="round"/>
<path d="M426.691 427.651C425.011 420.833 423.735 416.047 423.601 415.594" stroke="#263238" stroke-linecap="round" stroke-linejoin="round"/>
<path d="M440.342 482.095C440.342 482.095 433.708 455.545 428.788 435.998L430.921 465.067L396.797 456.419L440.342 482.095Z" fill="#263238" stroke="#263238" stroke-linecap="round" stroke-linejoin="round"/>
<path d="M434.147 397.928C433.293 393.283 432.006 388.729 430.302 384.325" stroke="#263238" stroke-linecap="round" stroke-linejoin="round"/>
<path d="M442.022 471.448C442.022 471.448 440.091 432.673 435.523 405.367" stroke="#263238" stroke-linecap="round" stroke-linejoin="round"/>
<path d="M504.006 386.559C504.006 386.559 498.968 414.486 507.902 438.5" stroke="#263238" stroke-linecap="round" stroke-linejoin="round"/>
<path d="M511.261 465.436C512.751 467.937 514.435 470.318 516.299 472.556" stroke="#263238" stroke-linecap="round" stroke-linejoin="round"/>
<path d="M496.181 422.312C496.181 422.312 499.623 442.631 508.137 459.744" stroke="#263238" stroke-linecap="round" stroke-linejoin="round"/>
<path d="M285.174 304.49C285.174 304.49 292.445 317.925 299.146 320.679C305.846 323.433 318.122 320.679 324.823 311.191C331.523 301.702 335.436 293.877 329.861 287.176C326.368 283.03 322.425 279.284 318.105 276.009C318.105 276.009 291.253 282.155 285.174 304.49Z" fill="#5E79EC" stroke="#263238" stroke-linecap="round" stroke-linejoin="round"/>
<path d="M318.055 276.008C318.055 276.008 294.662 251.725 288.785 245.78C282.907 239.835 268.549 228.802 255.82 218.038C243.09 207.273 229.37 190.279 226.767 196.207C224.164 202.135 231.654 217.433 237.868 227.224C244.081 237.014 254.51 242.573 255.5 243.227C256.491 243.882 246.029 256.276 247.003 259.87L247.977 263.463C247.977 263.463 239.816 273.254 240.471 276.193C241.294 278.529 242.637 280.648 244.4 282.389C244.4 282.389 239.816 290.887 241.126 293.17C242.435 295.454 253.855 309.493 258.758 309.813C263.662 310.132 264.3 306.874 262.671 304.926C261.042 302.978 255.5 295.454 255.5 295.454C255.5 295.454 271.823 304.271 276.055 304.59C279.815 304.542 283.55 303.977 287.156 302.911C287.156 302.911 294.662 311.072 302.505 310.098C310.347 309.124 320.792 297.688 322.421 291.155C324.05 284.623 322.841 282.658 318.055 276.008Z" fill="white" stroke="#263238" stroke-linecap="round" stroke-linejoin="round"/>
<path d="M291.723 255.388C291.723 255.388 270.514 263.213 268.885 265.178C267.256 267.143 256.475 276.278 252.881 277.907C249.287 279.536 250.261 287.06 254.56 287.698C258.859 288.336 273.822 281.837 275.451 281.182C277.08 280.527 289.49 281.182 294.074 278.898" stroke="#263238" stroke-linecap="round" stroke-linejoin="round"/>
<path d="M279.649 281.77C279.649 281.77 280.959 290.166 291.724 291.845C295.056 292.439 298.473 292.369 301.778 291.64C305.083 290.911 308.212 289.537 310.986 287.597" stroke="#263238" stroke-linecap="round" stroke-linejoin="round"/>
<path d="M257.784 244.221C257.784 244.221 268.884 247.814 275.736 247.479" stroke="#263238" stroke-linecap="round" stroke-linejoin="round"/>
<path d="M260.723 245.192C260.723 245.192 264.635 257.603 273.452 262.17" stroke="#263238" stroke-linecap="round" stroke-linejoin="round"/>
<path d="M247.979 263.481C247.979 263.481 253.537 270.669 260.07 273.927" stroke="#263238" stroke-linecap="round" stroke-linejoin="round"/>
<path d="M244.4 282.405C244.4 282.405 255.165 290.903 274.427 294.815C274.427 294.815 279.649 294.815 278.994 287.964" stroke="#263238" stroke-linecap="round" stroke-linejoin="round"/>
<path d="M258.104 290.568L255.501 295.472" stroke="#263238" stroke-linecap="round" stroke-linejoin="round"/>
<path d="M537.862 220.473C537.862 220.473 523.117 273.103 517.71 296.211C512.303 319.318 512.79 337.035 520.162 349.328C522.447 353.304 525.648 356.677 529.499 359.168L525.569 382.78C525.569 382.78 540.331 407.852 545.721 411.328C551.112 414.804 603.255 371.495 603.255 371.495L608.662 325.75C608.662 325.75 626.379 326.741 630.795 316.9C635.212 307.059 634.742 298.209 632.76 296.244L630.795 294.279C630.795 294.279 637.681 267.242 641.123 261.331C645.019 254.614 650.124 248.854 649.822 240.659C649.083 221.246 632.122 201.631 614.758 194.41C597.797 187.34 576.738 182.924 558.501 186.585C536.384 190.968 525.569 207.207 537.862 220.473Z" fill="white" stroke="#263238" stroke-linecap="round" stroke-linejoin="round"/>
<path d="M614.772 194.377C597.811 187.307 576.753 182.891 558.515 186.551C536.382 190.968 525.567 207.207 537.86 220.474C544.331 222.067 550.908 223.189 557.541 223.832C567.869 224.823 591.464 226.301 599.827 230.231C604.007 232.047 607.953 234.358 611.582 237.116C611.582 237.116 602.732 253.909 607.652 262.692C612.573 271.475 621.91 275.975 620.432 279.905C618.954 283.834 613.06 297.118 615.024 300.057C616.989 302.995 622.9 292.181 625.352 292.181C627.287 292.39 629.142 293.064 630.76 294.145C630.76 294.145 637.645 267.108 641.087 261.197C644.983 254.48 650.089 248.72 649.786 240.525C649.098 221.213 632.137 201.649 614.772 194.377Z" fill="#263238" stroke="#263238" stroke-linecap="round" stroke-linejoin="round"/>
<path d="M546.695 272.616C546.225 275.84 544.31 278.224 542.429 277.939C540.549 277.654 539.407 274.832 539.894 271.608C540.381 268.384 542.278 265.999 544.159 266.268C546.04 266.536 547.148 269.391 546.695 272.616Z" fill="#263238"/>
<path d="M580.735 282.945C580.265 286.169 578.35 288.554 576.469 288.285C574.589 288.016 573.447 285.161 573.934 281.937C574.421 278.713 576.302 276.328 578.182 276.597C580.063 276.866 581.121 279.72 580.735 282.945Z" fill="#263238"/>
<path d="M557.543 272.181C557.543 272.181 555.074 285.464 549.667 292.836C544.259 300.209 534.922 302.19 537.374 306.12C539.826 310.049 552.135 311.527 552.135 311.527" stroke="#263238" stroke-linecap="round" stroke-linejoin="round"/>
<path d="M539.826 318.346C539.826 318.346 553.597 325.718 565.906 321.301" stroke="#263238" stroke-linecap="round" stroke-linejoin="round"/>
<path d="M586.058 353.258C586.058 353.258 576.721 358.178 557.509 363.099C538.298 368.019 529.465 359.169 529.465 359.169L525.552 382.679C544.343 375.005 586.058 353.258 586.058 353.258Z" fill="#263238" stroke="#263238" stroke-linecap="round" stroke-linejoin="round"/>
<path d="M525.569 268.183C525.569 268.183 522.613 262.775 517.172 269.661C511.731 276.546 517.676 296.211 517.676 296.211L525.569 268.183Z" stroke="#263238" stroke-linecap="round" stroke-linejoin="round"/>
<path d="M536.384 250.483C536.384 250.483 545.251 247.04 554.101 256.864" stroke="#263238" stroke-width="3" stroke-linecap="round" stroke-linejoin="round"/>
<path d="M574.756 263.783C578.438 261.812 582.595 260.907 586.763 261.168C590.931 261.429 594.943 262.846 598.35 265.261" stroke="#263238" stroke-width="3" stroke-linecap="round" stroke-linejoin="round"/>
<path d="M583.607 305.565C594.746 305.565 603.776 296.535 603.776 285.396C603.776 274.257 594.746 265.228 583.607 265.228C572.468 265.228 563.438 274.257 563.438 285.396C563.438 296.535 572.468 305.565 583.607 305.565Z" stroke="#263238" stroke-linecap="round" stroke-linejoin="round"/>
<path d="M539.457 291.29C549.437 291.29 557.527 283.2 557.527 273.221C557.527 263.241 549.437 255.151 539.457 255.151C529.478 255.151 521.388 263.241 521.388 273.221C521.388 283.2 529.478 291.29 539.457 291.29Z" stroke="#263238" stroke-linecap="round" stroke-linejoin="round"/>
<path d="M557.543 273.22C557.543 273.22 562.95 270.634 565.402 274.58" stroke="#263238" stroke-linecap="round" stroke-linejoin="round"/>
<path d="M603.271 289.324L620.988 295.722" stroke="#263238" stroke-linecap="round" stroke-linejoin="round"/>
<path d="M545.738 411.295L520.749 446.309L511.815 385.45L525.216 378.195L545.738 411.295Z" fill="#5E79EC" stroke="#263238" stroke-linecap="round" stroke-linejoin="round"/>
<path d="M545.736 411.294L565.972 450.221L614.001 383.216L603.27 371.461L545.736 411.294Z" fill="#5E79EC" stroke="#263238" stroke-linecap="round" stroke-linejoin="round"/>
<path d="M1 708.755H1164.6" stroke="#263238" stroke-linecap="round" stroke-linejoin="round"/>
<path d="M486.979 165.211C500.587 147.517 507.209 125.434 505.583 103.172C503.958 80.9094 494.197 60.0234 478.162 44.4944C462.127 28.9655 440.939 19.8793 418.636 18.9675C396.333 18.0558 374.474 25.3822 357.225 39.5505C339.976 53.7189 328.544 73.7385 325.106 95.794C321.669 117.85 326.466 140.399 338.585 159.145C350.704 177.89 369.296 191.522 390.819 197.441C412.342 203.36 435.29 201.153 455.29 191.24C460.98 188.408 466.36 184.992 471.344 181.047L497.945 205.011L486.979 165.211Z" fill="#263238" stroke="#263238" stroke-linecap="round" stroke-linejoin="round"/>
<path d="M479.976 162.422C493.601 144.719 500.236 122.622 498.616 100.342C496.997 78.0613 487.235 57.156 471.193 41.6101C455.15 26.0641 433.949 16.9646 411.629 16.0458C389.308 15.127 367.43 22.4532 350.165 36.628C332.899 50.8028 321.452 70.8351 318.007 92.9069C314.561 114.979 319.358 137.547 331.482 156.309C343.606 175.072 362.21 188.718 383.748 194.645C405.287 200.573 428.253 198.368 448.27 188.451C453.959 185.623 459.339 182.212 464.324 178.275L490.925 202.205L479.976 162.422Z" fill="white" stroke="#263238" stroke-linecap="round" stroke-linejoin="round"/>
<path d="M448.337 188.451C431.794 196.639 413.153 199.609 394.884 196.967C376.615 194.325 359.579 186.196 346.033 173.656L362.104 147.341L372.432 153.857L399.587 79.4629L422.879 170.7L438.631 160.927L448.337 188.451Z" fill="#263238" stroke="#263238" stroke-linecap="round" stroke-linejoin="round"/>
<path d="M399.587 79.4634V31.6699" stroke="#263238" stroke-linecap="round" stroke-linejoin="round"/>
<path d="M399.854 34.542C399.854 34.542 419.016 35.8351 420.947 38.6395C422.878 41.444 423.533 48.5475 424.305 48.9674C425.078 49.3872 436.145 49.1857 437.001 50.6467C437.857 52.1077 439.587 58.6067 440.662 60.118C441.737 61.6294 450.738 62.7042 450.738 62.7042C449.51 63.5322 448.212 64.2514 446.859 64.8537C445.566 65.2736 442.123 65.9285 442.123 65.9285L447.715 67.4399C445.621 69.2156 443.052 70.3368 440.326 70.6642C438.634 70.7329 436.95 70.397 435.414 69.6844C433.877 68.9717 432.533 67.9029 431.493 66.5666C430.855 65.4919 423.533 65.9285 421.165 65.2736C418.797 64.6186 419.234 60.5379 418.159 59.2616C417.084 57.9853 399.687 57.0953 399.687 57.0953L399.854 34.542Z" fill="#5E79EC" stroke="#263238" stroke-linecap="round" stroke-linejoin="round"/>
</svg>
