<svg width="385" height="45" viewBox="0 0 385 45" fill="none" xmlns="http://www.w3.org/2000/svg">
<path fill-rule="evenodd" clip-rule="evenodd" d="M57.2831 44.1895C53.8717 45.7846 49.8132 44.3122 48.2181 40.9008L33.6331 9.70856C32.038 6.29718 33.5104 2.23861 36.9218 0.643507C40.3331 -0.951599 44.3917 0.520784 45.9868 3.93217L60.5718 35.1244C62.1669 38.5358 60.6945 42.5944 57.2831 44.1895ZM36.3903 44.9921C37.2851 44.9511 38.1629 44.7338 38.9735 44.3526C39.7859 43.9753 40.5158 43.4411 41.1213 42.7809C41.7267 42.1207 42.1958 41.3474 42.5015 40.5053C42.8072 39.6633 42.9436 38.7692 42.9028 37.8743C42.862 36.9794 42.6448 36.1014 42.2637 35.2907L27.6511 4.10514C27.2256 3.13662 26.5702 2.28658 25.7417 1.62887C24.9132 0.971151 23.9366 0.525635 22.8968 0.331005C22.4335 0.205787 21.9549 0.145658 21.475 0.152347H21.4303C20.9504 0.145658 20.4719 0.205787 20.0085 0.331005C18.9692 0.526006 17.9931 0.971694 17.1651 1.62939C16.337 2.28708 15.6819 3.13692 15.2567 4.10514L0.641591 35.2907C-0.124102 36.9284 -0.207872 38.8032 0.408707 40.5026C1.02529 42.202 2.29171 43.5869 3.92938 44.3526C5.56705 45.1183 7.44181 45.2021 9.14125 44.5855C10.8407 43.9689 12.2256 42.7025 12.9913 41.0648L21.475 23.0304L29.9116 41.0648C30.2892 41.8771 30.8234 42.6067 31.4838 43.2119C32.1441 43.8171 32.9175 44.2859 33.7595 44.5914C34.6015 44.8969 35.4955 45.033 36.3903 44.9921ZM66.4625 40.9026C68.0576 44.314 72.1161 45.7864 75.5275 44.1913C78.9389 42.5962 80.4113 38.5376 78.8162 35.1263L64.2312 3.934C62.6361 0.522619 58.5775 -0.949765 55.1662 0.645342C51.7548 2.24045 50.2824 6.29901 51.8775 9.71039L66.4625 40.9026ZM93.7719 44.1913C90.3605 45.7864 86.302 44.314 84.7069 40.9027L70.1219 9.7104C68.5268 6.29901 69.9992 2.24046 73.4105 0.645349C76.8219 -0.949758 80.8805 0.522619 82.4756 3.934L97.0606 35.1263C98.6557 38.5376 97.1833 42.5962 93.7719 44.1913Z" fill="#5E79EC"/>
<path d="M128.574 30.3086L127.018 25.2002H119.194L117.638 30.3086H112.735L120.31 8.75954H125.873L133.477 30.3086H128.574ZM125.932 21.3836C124.493 16.7548 123.681 14.137 123.495 13.5303C123.319 12.9235 123.192 12.444 123.114 12.0917C122.791 13.3443 121.866 16.4417 120.339 21.3836H125.932Z" fill="white"/>
<path d="M133.492 13.8973H138.395L141.492 23.1305C141.756 23.9329 141.937 24.8822 142.035 25.9782H142.123C142.231 24.9703 142.441 24.021 142.754 23.1305L145.793 13.8973H150.593L143.65 32.4077C143.014 34.1203 142.104 35.4023 140.919 36.2537C139.745 37.1051 138.37 37.5308 136.795 37.5308C136.021 37.5308 135.263 37.4476 134.519 37.2812V33.7288C135.058 33.8561 135.645 33.9197 136.281 33.9197C137.073 33.9197 137.763 33.675 138.351 33.1857C138.947 32.7062 139.412 31.9771 139.745 30.9985L140.009 30.1912L133.492 13.8973Z" fill="white"/>
<path d="M166.535 13.8973V17.2588H161.162V30.3086H156.685V17.2588H151.298V13.8973H166.535Z" fill="white"/>
<path d="M176.12 30.6022C171.012 30.6022 168.458 27.7985 168.458 22.191C168.458 19.402 169.152 17.2735 170.542 15.8056C171.932 14.3278 173.923 13.589 176.516 13.589C178.415 13.589 180.118 13.9609 181.625 14.7046L180.304 18.1689C179.599 17.8851 178.943 17.6551 178.337 17.479C177.73 17.293 177.123 17.2001 176.516 17.2001C174.187 17.2001 173.023 18.8539 173.023 22.1616C173.023 25.3715 174.187 26.9764 176.516 26.9764C177.378 26.9764 178.175 26.8639 178.909 26.6388C179.643 26.4039 180.377 26.0418 181.111 25.5525V29.3838C180.387 29.8438 179.653 30.1618 178.909 30.338C178.175 30.5141 177.246 30.6022 176.12 30.6022Z" fill="white"/>
<path d="M198.506 13.8973V17.2588H193.133V30.3086H188.656V17.2588H183.269V13.8973H198.506Z" fill="white"/>
<path d="M211.996 30.3086L211.13 28.0774H211.013C210.259 29.0266 209.481 29.6872 208.679 30.059C207.886 30.4211 206.849 30.6022 205.567 30.6022C203.991 30.6022 202.748 30.152 201.838 29.2517C200.938 28.3514 200.488 27.0694 200.488 25.4057C200.488 23.6638 201.094 22.3818 202.308 21.5598C203.531 20.728 205.371 20.268 207.827 20.18L210.675 20.0919V19.3726C210.675 17.709 209.824 16.8771 208.121 16.8771C206.809 16.8771 205.268 17.2735 203.497 18.0661L202.014 15.0422C203.903 14.0538 205.997 13.5596 208.297 13.5596C210.499 13.5596 212.187 14.0392 213.361 14.9982C214.536 15.9572 215.123 17.4154 215.123 19.3726V30.3086H211.996ZM210.675 22.7048L208.943 22.7635C207.641 22.8026 206.672 23.0375 206.036 23.4681C205.4 23.8987 205.082 24.5544 205.082 25.4351C205.082 26.6975 205.806 27.3287 207.255 27.3287C208.292 27.3287 209.119 27.0302 209.735 26.4333C210.362 25.8363 210.675 25.0437 210.675 24.0553V22.7048Z" fill="white"/>
<path d="M231.74 13.8092C234.48 14.0343 236.628 14.8808 238.184 16.3487C239.74 17.8166 240.518 19.7347 240.518 22.1029C240.518 24.5201 239.75 26.4578 238.213 27.9159C236.677 29.3642 234.519 30.2009 231.74 30.426V37.5308H227.585V30.426C224.816 30.1716 222.648 29.3055 221.082 27.8278C219.526 26.3403 218.748 24.432 218.748 22.1029C218.748 19.627 219.502 17.6747 221.009 16.2459C222.516 14.8074 224.708 13.9951 227.585 13.8092V7.46777H231.74V13.8092ZM223.358 22.1029C223.358 23.4828 223.735 24.6082 224.488 25.4791C225.242 26.3403 226.274 26.859 227.585 27.0351V17.1707C226.323 17.3371 225.3 17.8704 224.517 18.7708C223.744 19.6711 223.358 20.7818 223.358 22.1029ZM235.923 22.1029C235.923 20.8112 235.556 19.7249 234.822 18.8441C234.088 17.9536 233.061 17.4154 231.74 17.2294V27.0351C233.041 26.859 234.064 26.3354 234.808 25.4645C235.551 24.5935 235.923 23.473 235.923 22.1029Z" fill="white"/>
<path d="M256.224 13.8092C258.965 14.0343 261.113 14.8808 262.669 16.3487C264.225 17.8166 265.003 19.7347 265.003 22.1029C265.003 24.5201 264.234 26.4578 262.698 27.9159C261.162 29.3642 259.004 30.2009 256.224 30.426V37.5308H252.07V30.426C249.301 30.1716 247.133 29.3055 245.567 27.8278C244.011 26.3403 243.233 24.432 243.233 22.1029C243.233 19.627 243.987 17.6747 245.494 16.2459C247.001 14.8074 249.193 13.9951 252.07 13.8092V7.46777H256.224V13.8092ZM247.843 22.1029C247.843 23.4828 248.219 24.6082 248.973 25.4791C249.726 26.3403 250.759 26.859 252.07 27.0351V17.1707C250.808 17.3371 249.785 17.8704 249.002 18.7708C248.229 19.6711 247.843 20.7818 247.843 22.1029ZM260.408 22.1029C260.408 20.8112 260.041 19.7249 259.307 18.8441C258.573 17.9536 257.546 17.4154 256.224 17.2294V27.0351C257.526 26.859 258.549 26.3354 259.292 25.4645C260.036 24.5935 260.408 23.473 260.408 22.1029Z" fill="white"/>
<path d="M285.172 12.3266C283.459 12.3266 282.133 12.9725 281.194 14.2642C280.254 15.5462 279.785 17.3371 279.785 19.6368C279.785 24.4222 281.58 26.8149 285.172 26.8149C286.679 26.8149 288.504 26.4382 290.647 25.6847V29.5012C288.886 30.2352 286.919 30.6022 284.746 30.6022C281.624 30.6022 279.237 29.6578 277.583 27.7691C275.929 25.8706 275.102 23.15 275.102 19.6075C275.102 17.3762 275.508 15.4239 276.32 13.7505C277.133 12.0673 278.297 10.7804 279.814 9.88984C281.341 8.98952 283.127 8.53935 285.172 8.53935C287.256 8.53935 289.351 9.04334 291.455 10.0513L289.987 13.7505C289.184 13.3688 288.377 13.0361 287.565 12.7523C286.752 12.4685 285.955 12.3266 285.172 12.3266Z" fill="white"/>
<path d="M301.671 16.7744C300.722 16.7744 299.978 17.0778 299.44 17.6845C298.902 18.2814 298.594 19.1328 298.515 20.2387H304.798C304.778 19.1328 304.49 18.2814 303.932 17.6845C303.374 17.0778 302.62 16.7744 301.671 16.7744ZM302.302 30.6022C299.66 30.6022 297.595 29.8731 296.108 28.415C294.62 26.9568 293.877 24.892 293.877 22.2204C293.877 19.4705 294.562 17.3469 295.932 15.8496C297.312 14.3425 299.215 13.589 301.642 13.589C303.961 13.589 305.767 14.2496 307.059 15.5707C308.35 16.8918 308.996 18.7169 308.996 21.046V23.2185H298.412C298.461 24.4907 298.838 25.484 299.543 26.1984C300.247 26.9128 301.236 27.27 302.508 27.27C303.496 27.27 304.431 27.1672 305.312 26.9617C306.192 26.7562 307.112 26.4284 308.071 25.9782V29.4425C307.288 29.834 306.452 30.1227 305.561 30.3086C304.671 30.5043 303.584 30.6022 302.302 30.6022Z" fill="white"/>
<path d="M321.65 30.6022C319.722 30.6022 318.21 29.9025 317.114 28.5031H316.879C317.035 29.8731 317.114 30.6658 317.114 30.8811V37.5308H312.637V13.8973H316.277L316.908 16.0257H317.114C318.161 14.4012 319.712 13.589 321.767 13.589C323.705 13.589 325.222 14.3376 326.318 15.8349C327.414 17.3322 327.962 19.4117 327.962 22.0736C327.962 23.8253 327.702 25.347 327.184 26.6388C326.675 27.9306 325.946 28.9141 324.996 29.5893C324.047 30.2646 322.932 30.6022 321.65 30.6022ZM320.328 17.1707C319.223 17.1707 318.415 17.5132 317.906 18.1983C317.398 18.8735 317.133 19.994 317.114 21.5598V22.0442C317.114 23.8057 317.373 25.0681 317.892 25.8314C318.42 26.5948 319.252 26.9764 320.387 26.9764C322.393 26.9764 323.396 25.3226 323.396 22.0149C323.396 20.4001 323.147 19.1916 322.648 18.3891C322.158 17.5768 321.385 17.1707 320.328 17.1707Z" fill="white"/>
<path d="M346.81 18.1983C346.81 19.079 346.531 19.8325 345.973 20.4589C345.425 21.0754 344.613 21.4717 343.536 21.6479V21.7653C344.701 21.9023 345.621 22.3035 346.296 22.969C346.981 23.6247 347.324 24.4369 347.324 25.4057C347.324 27.0009 346.697 28.2193 345.445 29.0609C344.192 29.8927 342.401 30.3086 340.072 30.3086H331.661V13.8973H340.072C342.323 13.8973 344.006 14.2642 345.122 14.9982C346.247 15.7224 346.81 16.7891 346.81 18.1983ZM342.685 25.1709C342.685 24.525 342.435 24.0602 341.936 23.7764C341.437 23.4828 340.689 23.336 339.69 23.336H336.138V27.2113H339.778C340.728 27.2113 341.447 27.0351 341.936 26.6828C342.435 26.3207 342.685 25.8168 342.685 25.1709ZM342.274 18.5506C342.274 17.5524 341.481 17.0533 339.896 17.0533H336.138V20.2974H339.382C340.331 20.2974 341.051 20.1604 341.54 19.8864C342.029 19.6124 342.274 19.1671 342.274 18.5506Z" fill="white"/>
<path d="M355.221 13.8973V20.3855C355.221 21.0705 355.108 22.7439 354.883 25.4057L362.458 13.8973H367.845V30.3086H363.515V23.7617C363.515 22.5971 363.613 20.9531 363.808 18.8295L356.263 30.3086H350.891V13.8973H355.221Z" fill="white"/>
<path d="M379.221 30.6022C374.113 30.6022 371.559 27.7985 371.559 22.191C371.559 19.402 372.254 17.2735 373.643 15.8056C375.033 14.3278 377.024 13.589 379.618 13.589C381.516 13.589 383.219 13.9609 384.726 14.7046L383.405 18.1689C382.7 17.8851 382.045 17.6551 381.438 17.479C380.831 17.293 380.224 17.2001 379.618 17.2001C377.289 17.2001 376.124 18.8539 376.124 22.1616C376.124 25.3715 377.289 26.9764 379.618 26.9764C380.479 26.9764 381.276 26.8639 382.01 26.6388C382.744 26.4039 383.478 26.0418 384.212 25.5525V29.3838C383.488 29.8438 382.754 30.1618 382.01 30.338C381.276 30.5141 380.347 30.6022 379.221 30.6022Z" fill="white"/>
</svg>
