<svg width="24" height="24" viewBox="0 0 24 24" fill="none" xmlns="http://www.w3.org/2000/svg">
<path fill-rule="evenodd" clip-rule="evenodd" d="M2.85046 4.5957C2.57432 4.5957 2.35046 4.81956 2.35046 5.0957V18.3703C2.35046 18.5852 2.43515 18.7912 2.58589 18.9432C2.73662 19.0952 2.94107 19.1805 3.15424 19.1805H20.8374C21.0506 19.1805 21.255 19.0952 21.4058 18.9432C21.5565 18.7912 21.6412 18.5852 21.6412 18.3703V5.0957C21.6412 4.81956 21.4173 4.5957 21.1412 4.5957H2.85046ZM2.89644 18.1661L9.62146 11.9985L2.66174 5.61875C2.45818 5.43216 2.44443 5.11587 2.63102 4.91231C2.81762 4.70875 3.1339 4.695 3.33746 4.8816L11.9996 12.8219L20.6617 4.8816C20.8653 4.695 21.1816 4.70875 21.3682 4.91231C21.5548 5.11587 21.541 5.43216 21.3375 5.61875L14.3782 11.9981L21.1036 18.1661C21.3071 18.3527 21.3208 18.669 21.1341 18.8725C20.9475 19.076 20.6312 19.0897 20.4277 18.903L13.6382 12.6764L12.3375 13.8688C12.1463 14.044 11.8529 14.044 11.6617 13.8688L10.3614 12.6768L3.57234 18.903C3.36883 19.0897 3.05254 19.076 2.8659 18.8725C2.67925 18.669 2.69293 18.3527 2.89644 18.1661Z" fill="white"/>
</svg>
