<svg width="389" height="411" viewBox="0 0 389 411" fill="none" xmlns="http://www.w3.org/2000/svg">
<path d="M159.985 346.712C159.985 346.712 167.745 494.767 171.634 524.77C175.522 554.773 183.282 598.548 183.282 598.548C183.282 598.548 177.734 602.436 176.628 606.325C175.522 610.214 177.181 624.627 177.181 624.627L217.673 627.392C217.673 627.392 219.332 617.42 219.332 594.659V560.767C219.332 556.343 226.004 366.619 226.004 366.619L230.98 561.338C230.98 561.338 229.321 621.791 232.104 622.897C234.843 624.312 237.441 625.984 239.864 627.891L275.361 626.785C276.865 620.225 277.796 613.546 278.144 606.825C278.144 599.047 273.149 584.081 273.702 575.751C274.255 567.421 288.686 499.761 288.686 488.113V306.755H161.127L159.985 346.712Z" fill="#263238" stroke="#263238" stroke-linecap="round" stroke-linejoin="round"/>
<path d="M206.739 107.897L190.685 121.526L193.574 309.823H262.946C262.946 309.823 266.246 117.387 265.015 114.497C263.784 111.608 256.346 108.718 256.346 108.718L206.739 107.897Z" fill="white" stroke="#263238" stroke-linecap="round" stroke-linejoin="round"/>
<path d="M324.398 189.934L351.993 197.569C351.993 197.569 324.041 146.303 318.958 134.012C314.98 124.416 310.039 121.526 307.987 120.759C297.409 113.927 256.364 108.718 256.364 108.718L253.153 202.742L248.248 358.788H306.632C306.632 358.788 301.708 303.687 298.997 286.223L295.162 261.661C295.162 261.661 299.889 224.201 304.081 188.329L324.398 189.934Z" fill="#5E79EC" stroke="#263238" stroke-linecap="round" stroke-linejoin="round"/>
<path d="M262.804 227.001C261.002 231.724 258.731 236.253 256.025 240.523" stroke="#263238" stroke-linecap="round" stroke-linejoin="round"/>
<path d="M264.962 114.498L274.666 136.099L266.692 144.751L279.321 160.038C279.321 160.038 274.398 193.341 265.711 219.135" stroke="#263238" stroke-linecap="round" stroke-linejoin="round"/>
<path d="M201.994 62.2325C201.994 62.2325 196.804 55.0973 193.075 60.2168C189.347 65.3363 203.457 83.0136 203.457 83.0136L201.994 62.2325Z" fill="white" stroke="#263238" stroke-linecap="round" stroke-linejoin="round"/>
<path d="M262.019 62.2325C262.019 62.2325 267.21 55.0973 270.938 60.2168C274.666 65.3363 260.557 83.0136 260.557 83.0136L262.019 62.2325Z" fill="white" stroke="#263238" stroke-linecap="round" stroke-linejoin="round"/>
<path d="M200.835 58.2014C200.835 58.2014 204.01 91.38 204.599 97.1595C205.187 102.939 207.185 115.336 209.504 119.653C211.823 123.97 227.681 140.149 231.998 138.419C236.315 136.688 251.334 121.098 255.383 116.478C259.433 111.858 257.97 103.492 258.559 101.476C259.147 99.4606 261.431 79.5534 261.431 79.5534L262.804 58.5403C262.804 58.5403 263.393 56.5247 262.519 43.5386C261.645 30.5526 261.662 24.7732 260.217 21.598C258.773 18.4228 255.027 16.6926 248.373 14.9623C241.72 13.232 225.88 13.5352 216.069 18.4407C206.258 23.3461 201.352 30.2672 201.067 32.8537C200.782 35.4402 200.835 58.2014 200.835 58.2014Z" fill="white" stroke="#263238" stroke-linecap="round" stroke-linejoin="round"/>
<path d="M227.395 48.6758C227.395 48.6758 218.476 42.8963 213.535 50.4595" stroke="#263238" stroke-linecap="round" stroke-linejoin="round"/>
<path d="M239.793 49.2471C241.685 48.0966 243.908 47.6137 246.107 47.8757C248.306 48.1376 250.354 49.1292 251.923 50.6919" stroke="#263238" stroke-linecap="round" stroke-linejoin="round"/>
<path d="M237.207 52.1362C238.397 54.3247 239.011 56.7802 238.99 59.2714C239.276 64.4622 238.402 75.1293 238.402 75.1293L227.449 73.9698" stroke="#263238" stroke-linecap="round" stroke-linejoin="round"/>
<path d="M221.616 77.8228C221.616 77.8228 227.092 86.7417 240.953 82.1395" stroke="#263238" stroke-linecap="round" stroke-linejoin="round"/>
<path d="M223.347 57.1848C223.347 58.8616 222.58 60.2172 221.563 60.2172C220.546 60.2172 219.779 58.8616 219.779 57.1848C219.779 55.508 220.564 54.1523 221.563 54.1523C222.562 54.1523 223.347 55.508 223.347 57.1848Z" fill="#263238"/>
<path d="M247.873 57.1848C247.873 58.8616 247.106 60.2172 246.089 60.2172C245.073 60.2172 244.306 58.8616 244.306 57.1848C244.306 55.508 245.073 54.1523 246.089 54.1523C247.106 54.1523 247.873 55.508 247.873 57.1848Z" fill="#263238"/>
<path d="M204.395 93C204.395 93 206.227 101.418 222.723 102.798" stroke="#263238" stroke-linecap="round" stroke-linejoin="round"/>
<path d="M197.679 31.0697C197.679 31.0697 198.535 60.2169 199.463 60.7877C200.39 61.3585 202.923 61.9472 203.494 59.9315C203.851 56.7696 203.946 53.5836 203.779 50.406C203.779 50.406 206.669 50.1206 207.24 45.5006C207.811 40.8806 205.224 32.8 205.224 32.8C205.224 32.8 215.606 25.3081 225.417 22.4183C235.228 19.5286 240.436 23.8632 246.483 24.2021C250.035 24.4036 253.534 23.2712 256.294 21.027C256.294 21.027 253.405 25.3616 253.405 27.3773C253.405 29.3929 257.168 40.0779 256.58 43.253C255.991 46.4282 255.438 49.8887 257.168 51.0304C258.899 52.172 260.914 53.6347 260.914 53.6347C260.914 53.6347 260.914 61.4299 262.074 62.0007C263.233 62.5715 265.249 59.4142 265.534 55.0796C265.82 50.7449 265.82 40.3633 267.318 37.2416C268.817 34.12 271.064 31.7654 269.334 27.1454C267.604 22.5253 261.539 18.494 260.682 18.2264C259.826 17.9588 248.856 3.81336 234.71 0.388473C220.565 -3.03641 198.071 17.1383 195.752 23.4886C193.433 29.8389 197.679 31.0697 197.679 31.0697Z" fill="#263238" stroke="#263238" stroke-linecap="round" stroke-linejoin="round"/>
<path d="M70.3505 133.459C68.7168 129.401 67.3872 125.228 66.3726 120.973C65.7483 116.995 60.8429 110.555 55.9553 108.718C50.6748 106.678 45.9504 103.421 42.1666 99.2105C37.8676 94.6261 35.4238 93.0921 34.7995 97.6764C34.1752 102.261 37.2611 104.419 40.3293 107.184C43.3974 109.949 46.4477 112.393 46.4477 112.393C43.3733 113.389 40.1842 113.989 36.9579 114.176C31.2949 114.456 25.6207 113.939 20.101 112.642C15.4989 111.412 -0.43041 99.7813 1.10365 104.366C2.63771 108.95 10.2902 114.783 16.4264 120.616C22.5627 126.449 26.5405 129.535 33.5865 131.64C40.6325 133.745 51.9596 136.545 51.9596 136.545L58.3991 145.125L70.3505 133.459Z" fill="white" stroke="#263238" stroke-linecap="round" stroke-linejoin="round"/>
<path d="M22.8659 125.2C22.8659 125.2 13.0551 117.851 11.521 109.574C9.98694 101.298 10.6113 98.2473 12.7518 99.4602C14.8924 100.673 20.101 112.642 20.101 112.642L29.2876 122.757" fill="white"/>
<path d="M22.8659 125.2C22.8659 125.2 13.0551 117.851 11.521 109.574C9.98694 101.298 10.6113 98.2473 12.7518 99.4602C14.8924 100.673 20.101 112.642 20.101 112.642L29.2876 122.757" stroke="#263238" stroke-linecap="round" stroke-linejoin="round"/>
<path d="M31.125 129.196C31.125 129.196 21.9385 123.666 21.0288 118.155C20.119 112.643 17.9606 96.4101 20.1012 97.6231C22.2417 98.8361 26.5407 116.014 26.5407 116.014L31.7494 120.616" fill="white"/>
<path d="M31.125 129.196C31.125 129.196 21.9385 123.666 21.0288 118.155C20.119 112.643 17.9606 96.4101 20.1012 97.6231C22.2417 98.8361 26.5407 116.014 26.5407 116.014L31.7494 120.616" stroke="#263238" stroke-linecap="round" stroke-linejoin="round"/>
<path d="M36.2627 129.499C36.2627 129.499 30.7508 118.796 29.52 115.407C28.2892 112.018 25.5421 97.9438 28.307 98.5503C31.0719 99.1568 33.5157 113.249 33.5157 113.249L40.5617 122.168C40.5617 122.168 50.3547 119.1 53.0482 119.706C55.7417 120.313 59.1845 125.842 59.1845 125.842" fill="white"/>
<path d="M36.2627 129.499C36.2627 129.499 30.7508 118.796 29.52 115.407C28.2892 112.018 25.5421 97.9438 28.307 98.5503C31.0719 99.1568 33.5157 113.249 33.5157 113.249L40.5617 122.168C40.5617 122.168 50.3547 119.1 53.0482 119.706C55.7417 120.313 59.1845 125.842 59.1845 125.842" stroke="#263238" stroke-linecap="round" stroke-linejoin="round"/>
<path d="M77.6283 138.329L70.2969 131.533L52.1914 150.424L57.5071 157.398L77.6283 138.329Z" fill="white" stroke="#263238" stroke-linecap="round" stroke-linejoin="round"/>
<path d="M206.74 107.897C206.74 107.897 200.532 157.023 199.712 185.118C198.891 213.213 201.781 360.625 201.781 360.625L146.858 358.966C146.858 358.966 153.048 306.933 157.561 287.936C160.664 273.287 161.774 258.287 160.861 243.341C160.45 240.861 157.561 218.154 157.561 218.154C157.561 218.154 126.576 238.792 122.866 238.382C119.156 237.972 97.6787 222.328 81.1608 201.636C70.6561 188.065 62.1724 173.044 55.9736 157.041L75.5062 134.726L121.76 180.979C121.76 180.979 145.698 132.674 148.178 131.426C150.657 130.177 206.74 107.897 206.74 107.897Z" fill="#5E79EC" stroke="#263238" stroke-linecap="round" stroke-linejoin="round"/>
<path d="M183.924 192.806C186.93 208.81 191.237 224.542 196.803 239.845" stroke="#263238" stroke-linecap="round" stroke-linejoin="round"/>
<path d="M196.197 116.139L186.208 141.415L194.199 148.069L180.232 162.696C180.561 170.236 181.36 177.748 182.623 185.189" stroke="#263238" stroke-linecap="round" stroke-linejoin="round"/>
<path d="M156.347 211.536C156.347 211.536 148.088 175.2 145.645 160.751L156.347 211.536Z" fill="white"/>
<path d="M156.347 211.536C156.347 211.536 148.088 175.2 145.645 160.751" stroke="#263238" stroke-linecap="round" stroke-linejoin="round"/>
<path d="M205.848 135.957L212.894 156.631L232.016 138.418L247.196 158.04L253.85 140.398" fill="white"/>
<path d="M205.848 135.957L212.894 156.631L232.016 138.418L247.196 158.04L253.85 140.398" stroke="#263238" stroke-linecap="round" stroke-linejoin="round"/>
<path d="M239.365 149.103L230.731 164.515L220.813 148.996L232.016 138.418L239.365 149.103Z" fill="#263238" stroke="#263238" stroke-linecap="round" stroke-linejoin="round"/>
<path d="M230.731 164.516L211.502 293.27L228.644 307.059L242.023 292.86L230.731 164.516Z" fill="#263238" stroke="#263238" stroke-linecap="round" stroke-linejoin="round"/>
<path d="M307.135 112.224C320.841 108.966 329.311 95.2142 326.054 81.5082C322.796 67.8022 309.044 59.3321 295.338 62.5898C281.632 65.8474 273.162 79.5992 276.42 93.3052C279.678 107.011 293.429 115.481 307.135 112.224Z" fill="white" stroke="#263238" stroke-linecap="round" stroke-linejoin="round"/>
<path d="M284.477 120.223C284.477 120.223 283.603 131.64 284.263 133.834C284.923 136.028 289.615 144.804 289.615 144.804C289.615 144.804 288.955 150.958 290.043 152.938C291.131 154.918 301.673 167.423 301.673 167.423L314.16 156.434L307.078 142.378L306.864 124.166C306.864 124.166 293.129 112.339 284.477 120.223Z" fill="white" stroke="#263238" stroke-linecap="round" stroke-linejoin="round"/>
<path d="M290.686 107.63L294.539 139.292C294.752 140.903 295.59 142.366 296.87 143.367C298.151 144.368 299.773 144.826 301.388 144.644C302.943 144.469 304.374 143.715 305.396 142.531C306.418 141.347 306.955 139.821 306.9 138.258L305.794 105.917C305.794 105.917 296.269 98.7645 290.686 107.63Z" fill="white" stroke="#263238" stroke-linecap="round" stroke-linejoin="round"/>
<path d="M291.345 114.533C291.345 114.533 283.14 115.514 283.14 118.101C283.14 120.687 286.083 132.55 288.705 133.21C291.327 133.87 293.307 133.87 293.307 128.607C293.039 123.87 292.383 119.163 291.345 114.533Z" fill="white" stroke="#263238" stroke-linecap="round" stroke-linejoin="round"/>
<path d="M310.716 123.399C310.716 123.399 291.665 125.04 291.344 126.967C291.023 128.893 291.665 133.87 292.985 133.87C294.305 133.87 311.358 133.995 311.697 132.086C312.036 130.177 313.017 126.021 310.716 123.399Z" fill="white" stroke="#263238" stroke-linecap="round" stroke-linejoin="round"/>
<path d="M310.128 132.639C310.128 132.639 293.164 133.584 292.807 135.332C292.45 137.08 292.914 141.468 294.091 141.504C295.269 141.54 310.413 142.111 310.77 140.452C311.126 138.793 312.108 135.029 310.128 132.639Z" fill="white" stroke="#263238" stroke-linecap="round" stroke-linejoin="round"/>
<path d="M307.809 140.88C307.809 140.88 293.753 141.665 293.539 143.11C293.325 144.555 293.628 148.194 294.609 148.23C295.59 148.265 308.112 148.729 308.398 147.356C308.683 145.982 309.45 142.86 307.809 140.88Z" fill="white" stroke="#263238" stroke-linecap="round" stroke-linejoin="round"/>
<path d="M309.396 114.854C309.396 114.854 290.345 116.495 290.024 118.422C289.703 120.348 290.345 125.307 291.665 125.307C292.985 125.307 310.038 125.45 310.377 123.523C310.716 121.597 311.697 117.405 309.396 114.854Z" fill="white" stroke="#263238" stroke-linecap="round" stroke-linejoin="round"/>
<path d="M313.857 150.191L308.327 147.355L293.325 165.746L299.479 173.951L313.857 150.191Z" fill="white" stroke="#263238" stroke-linecap="round" stroke-linejoin="round"/>
<path d="M312.749 146.945C312.749 146.945 307.291 159.663 303.206 164.212C299.121 168.761 294.555 172.846 294.555 172.846C294.555 172.846 313.641 217.851 316.317 226.484C318.993 235.118 329.499 241.022 334.048 242.378C338.597 243.733 349.496 240.112 353.67 235.564C357.844 231.015 363.659 216.477 360.484 208.307C357.309 200.138 312.749 146.945 312.749 146.945Z" fill="#5E79EC" stroke="#263238" stroke-linecap="round" stroke-linejoin="round"/>
<path d="M344.018 121.248C368.691 114.863 383.516 89.6845 377.13 65.0113C370.745 40.338 345.567 25.5129 320.894 31.8984C296.22 38.284 281.395 63.4621 287.781 88.1353C294.166 112.809 319.344 127.634 344.018 121.248Z" fill="#5E79EC" stroke="#263238" stroke-linecap="round" stroke-linejoin="round"/>
<path d="M340.918 113.193C361.152 108.515 373.761 88.3196 369.083 68.0863C364.404 47.8529 344.209 35.2434 323.976 39.9221C303.742 44.6007 291.133 64.7959 295.811 85.0292C300.49 105.263 320.685 117.872 340.918 113.193Z" fill="#263238" stroke="#263238" stroke-linecap="round" stroke-linejoin="round"/>
<path d="M328.822 93.663C337.245 93.663 344.073 86.8347 344.073 78.4116C344.073 69.9885 337.245 63.1602 328.822 63.1602C320.399 63.1602 313.57 69.9885 313.57 78.4116C313.57 86.8347 320.399 93.663 328.822 93.663Z" fill="white" stroke="#263238" stroke-linecap="round" stroke-linejoin="round"/>
<path d="M340.862 76.6097C340.866 74.9437 340.375 73.3142 339.452 71.9272C338.529 70.5403 337.215 69.4584 335.677 68.8184C334.139 68.1784 332.446 68.0091 330.811 68.332C329.177 68.6548 327.675 69.4553 326.496 70.6321C325.316 71.8088 324.513 73.309 324.187 74.9427C323.86 76.5765 324.026 78.2702 324.663 79.8097C325.299 81.3492 326.379 82.6652 327.763 83.5912C329.148 84.5171 330.777 85.0114 332.443 85.0114C334.673 85.0114 336.812 84.1268 338.39 82.5517C339.969 80.9765 340.858 78.8396 340.862 76.6097Z" fill="#5E79EC" stroke="#263238" stroke-linecap="round" stroke-linejoin="round"/>
</svg>
