<svg width="24" height="24" viewBox="0 0 24 24" fill="none" xmlns="http://www.w3.org/2000/svg">
<path d="M20.8125 14.8496L16.4156 12.9746C16.1888 12.873 15.9397 12.8308 15.692 12.8521C15.4443 12.8734 15.2061 12.9576 15 13.0965L12.6469 14.6621C11.2127 13.9656 10.0516 12.811 9.34687 11.3809L10.9031 8.99964C11.0412 8.79328 11.1255 8.5557 11.1484 8.30848C11.1713 8.06127 11.1321 7.81224 11.0344 7.58402L9.15 3.18714C9.01851 2.89025 8.79586 2.64296 8.51435 2.48113C8.23284 2.31931 7.90711 2.25136 7.58437 2.28714C6.31837 2.45299 5.15566 3.07293 4.31243 4.0317C3.46919 4.99046 3.00281 6.22282 3 7.49964C3 14.9434 9.05625 20.9996 16.5 20.9996C17.7768 20.9968 19.0092 20.5304 19.9679 19.6872C20.9267 18.844 21.5467 17.6813 21.7125 16.4153C21.7483 16.0925 21.6803 15.7668 21.5185 15.4853C21.3567 15.2038 21.1094 14.9811 20.8125 14.8496Z" fill="white"/>
</svg>
