<svg width="324" height="395" viewBox="0 0 324 395" fill="none" xmlns="http://www.w3.org/2000/svg">
<path d="M101.11 174H65V125.625H90.3547L101.11 135.478V174Z" fill="black"/>
<path d="M103.226 172.362H67.1152V124H92.4699L103.226 133.853V172.362Z" fill="white" stroke="#263238" stroke-linecap="round" stroke-linejoin="round"/>
<path d="M92.4709 124L89.8271 135.568L103.227 133.853L92.4709 124Z" fill="black" stroke="#263238" stroke-linecap="round" stroke-linejoin="round"/>
<path d="M92.4708 124V133.853H103.227L92.4708 124Z" fill="white" stroke="#263238" stroke-linecap="round" stroke-linejoin="round"/>
<path d="M74.0273 140.959H94.6103" stroke="#263238" stroke-linecap="round" stroke-linejoin="round"/>
<path d="M74.0273 146.001H94.6103" stroke="#263238" stroke-linecap="round" stroke-linejoin="round"/>
<path d="M74.0273 151.044H94.6103" stroke="#263238" stroke-linecap="round" stroke-linejoin="round"/>
<path d="M74.0273 156.087H94.6103" stroke="#263238" stroke-linecap="round" stroke-linejoin="round"/>
<path d="M74.0273 161.142H94.6103" stroke="#263238" stroke-linecap="round" stroke-linejoin="round"/>
<path d="M46.3459 113.233H0V51.1629H32.558L46.3459 63.8087V113.233Z" fill="black"/>
<path d="M49.06 111.148H2.71402V49.0605H35.2555L49.06 61.7063V111.148Z" fill="#6677BC" stroke="#263238" stroke-linecap="round" stroke-linejoin="round"/>
<path d="M35.2555 49.0605L31.8789 63.9078L49.06 61.7063L35.2555 49.0605Z" fill="black" stroke="#263238" stroke-linecap="round" stroke-linejoin="round"/>
<path d="M35.2567 49.0605V61.7063H49.0612L35.2567 49.0605Z" fill="white" stroke="#263238" stroke-linecap="round" stroke-linejoin="round"/>
<path d="M11.5859 70.8433H38.0031" stroke="#263238" stroke-linecap="round" stroke-linejoin="round"/>
<path d="M11.5859 77.3159H38.0031" stroke="#263238" stroke-linecap="round" stroke-linejoin="round"/>
<path d="M11.5859 83.7876H38.0031" stroke="#263238" stroke-linecap="round" stroke-linejoin="round"/>
<path d="M11.5859 90.2593H38.0031" stroke="#263238" stroke-linecap="round" stroke-linejoin="round"/>
<path d="M11.5859 96.731H38.0031" stroke="#263238" stroke-linecap="round" stroke-linejoin="round"/>
<path d="M139.11 96.9997H103V48.6246H128.355L139.11 58.4776V96.9997Z" fill="black"/>
<path d="M141.226 95.3622H105.115V47H130.47L141.226 56.853V95.3622Z" fill="white" stroke="#263238" stroke-linecap="round" stroke-linejoin="round"/>
<path d="M130.471 47L127.827 58.5682L141.227 56.853L130.471 47Z" fill="black" stroke="#263238" stroke-linecap="round" stroke-linejoin="round"/>
<path d="M130.471 47V56.853H141.227L130.471 47Z" fill="white" stroke="#263238" stroke-linecap="round" stroke-linejoin="round"/>
<path d="M112.027 63.959H132.61" stroke="#263238" stroke-linecap="round" stroke-linejoin="round"/>
<path d="M112.027 69.0015H132.61" stroke="#263238" stroke-linecap="round" stroke-linejoin="round"/>
<path d="M112.027 74.0444H132.61" stroke="#263238" stroke-linecap="round" stroke-linejoin="round"/>
<path d="M112.027 79.0869H132.61" stroke="#263238" stroke-linecap="round" stroke-linejoin="round"/>
<path d="M112.027 84.1421H132.61" stroke="#263238" stroke-linecap="round" stroke-linejoin="round"/>
<path d="M249.454 65.3455C255.262 64.9482 261.09 64.9467 266.897 65.3408C278.135 65.9654 295.842 65.7447 297.92 67.1806C299.998 68.6165 320.957 109.989 327.2 123.598C333.442 137.207 374.987 189.479 393.203 204.048C404.744 213.18 416.999 221.372 429.849 228.546C426.246 240.948 418.706 251.84 408.367 259.578C391.125 272.364 379.942 273.954 372.261 281.539C364.579 289.124 355.053 296.538 346.17 294.441C337.287 292.345 330.998 293.923 325.51 292.603C322.11 291.758 319.041 289.913 316.701 287.305C316.701 287.305 311.648 276.244 297.013 240.408C282.379 204.573 251 166.349 246.029 157.021C241.057 147.694 224.843 120.298 223.102 110.541C221.361 100.785 232.424 83.3392 238.844 75.8506C245.264 68.3619 245.676 66.2038 249.454 65.3455Z" fill="#6677BC"/>
<path d="M249.454 65.3455C255.262 64.9482 261.09 64.9467 266.897 65.3408C278.135 65.9654 295.842 65.7447 297.92 67.1806C299.998 68.6165 320.957 109.989 327.2 123.598C333.442 137.207 374.987 189.479 393.203 204.048C404.744 213.18 416.999 221.372 429.849 228.546C426.246 240.948 418.706 251.84 408.367 259.578C391.125 272.364 379.942 273.954 372.261 281.539C364.579 289.124 355.053 296.538 346.17 294.441C337.287 292.345 330.998 293.923 325.51 292.603C322.11 291.758 319.041 289.913 316.701 287.305C316.701 287.305 311.648 276.244 297.013 240.408C282.379 204.573 251 166.349 246.029 157.021C241.057 147.694 224.843 120.298 223.102 110.541C221.361 100.785 232.424 83.3392 238.844 75.8506C245.264 68.3619 245.676 66.2038 249.454 65.3455Z" stroke="#263238" stroke-linecap="round" stroke-linejoin="round"/>
<path d="M272.621 96.268L274.973 130.019L243.955 110.326C243.955 110.326 235.031 98.1885 236.198 90.4131C237.364 82.6377 237.461 72.4843 249.351 71.6162C261.241 70.748 265.585 78.8671 268.303 82.8806C271.021 86.8941 272.621 96.268 272.621 96.268Z" fill="white" stroke="#263238" stroke-miterlimit="10"/>
<path d="M260.163 92.4506L259.929 101.223L273.842 116.104L274.973 130.018L261.634 122.117L256.174 104.303L248.763 96.6705L250.298 87.4059L260.163 92.4506Z" fill="#263238" stroke="#263238" stroke-miterlimit="10"/>
<path d="M254.558 93.8131L272.602 96.2454C272.602 96.2454 264.875 76.6722 261.234 70.716C257.592 64.7598 255.021 65.0112 250.889 65.6241C246.757 66.237 242.989 70.5155 240.23 74.0623C237.471 77.6091 236.869 80.5165 237.348 82.5943C237.827 84.672 245.784 110.549 245.784 110.549L254.558 93.8131Z" fill="white" stroke="#263238" stroke-miterlimit="10"/>
<path d="M272.153 126.721C292.301 164.142 329.931 225.602 381.665 274.092" stroke="#263238" stroke-miterlimit="10"/>
<path d="M277.857 144.927C276.978 145.648 275.682 145.52 274.961 144.642C274.24 143.763 274.368 142.466 275.246 141.745C276.125 141.024 277.422 141.152 278.143 142.031C278.864 142.91 278.736 144.206 277.857 144.927Z" fill="#263238"/>
<path d="M302.864 184.721C301.985 185.442 300.689 185.314 299.968 184.436C299.247 183.557 299.375 182.26 300.253 181.539C301.132 180.818 302.429 180.946 303.15 181.825C303.871 182.704 303.743 184 302.864 184.721Z" fill="#263238"/>
<path d="M248.946 53.5438C248.946 53.5438 251.008 61.8691 253.748 65.769C256.488 69.6689 258.443 90.377 255.318 92.9409C252.193 95.5048 244.054 85.328 240.785 80.5027C237.515 75.6774 234.271 74.2211 233.418 74.0212C232.564 73.8213 237.357 67.1505 238.81 61.1708C240.262 55.1911 243.072 52.1963 245.022 51.5155C246.973 50.8347 248.946 53.5438 248.946 53.5438Z" fill="white"/>
<path d="M248.946 53.5438C248.946 53.5438 251.008 61.8691 253.748 65.769C256.488 69.6689 258.443 90.377 255.318 92.9409C252.193 95.5048 244.054 85.328 240.785 80.5027C237.515 75.6774 234.271 74.2211 233.418 74.0212C232.564 73.8213 237.357 67.1505 238.81 61.1708C240.262 55.1911 243.072 52.1963 245.022 51.5155C246.973 50.8347 248.946 53.5438 248.946 53.5438Z" stroke="#263238" stroke-linecap="round" stroke-linejoin="round"/>
<path d="M252.183 44.7212C252.183 44.7212 251.499 53.0387 249.491 55.5865C247.483 58.1342 244.149 57.6897 243.552 55.0006C242.954 52.3115 240.046 49.91 237.524 52.6491C235.002 55.3882 230.678 54.8565 228.952 50.8145C227.225 46.7726 226.152 42.4059 230.243 40.1793C234.334 37.9527 250.57 35.7983 252.183 44.7212Z" fill="#263238" stroke="#263238" stroke-linecap="round" stroke-linejoin="round"/>
<path d="M207.664 50.9653C207.664 50.9653 209.396 57.5116 208.927 61.095C208.458 64.6783 206.336 65.7104 208.242 66.6559C210.147 67.6014 214.734 67.0754 214.734 67.0754C214.734 67.0754 220.038 74.1003 222.989 77.1373C225.94 80.1743 226.454 81.3613 229.904 79.4502C234.451 76.596 238.24 72.6856 240.95 68.0517C242.89 65.0392 243.648 61.4157 243.079 57.8779C244.399 56.8691 245.569 55.6773 246.553 54.3384C248.698 51.6779 246.403 44.4447 243.241 43.6489C241.912 43.3546 240.52 43.5981 239.37 44.3264C238.22 45.0546 237.405 46.2084 237.103 47.5357C237.08 49.4693 236.838 51.3917 236.025 52.0585C235.213 52.7253 233.022 53.3929 232.516 50.8391C232.011 48.2854 231.889 45.8957 229.384 45.9011C226.88 45.9066 210.001 48.8181 207.664 50.9653Z" fill="white"/>
<path d="M207.664 50.9653C207.664 50.9653 209.396 57.5116 208.927 61.095C208.458 64.6783 206.336 65.7104 208.242 66.6559C210.147 67.6014 214.734 67.0754 214.734 67.0754C214.734 67.0754 220.038 74.1003 222.989 77.1373C225.94 80.1743 226.454 81.3613 229.904 79.4502C234.451 76.596 238.24 72.6856 240.95 68.0517C242.89 65.0392 243.648 61.4157 243.079 57.8779C244.399 56.8691 245.569 55.6773 246.553 54.3384C248.698 51.6779 246.403 44.4447 243.241 43.6489C241.912 43.3546 240.52 43.5981 239.37 44.3264C238.22 45.0546 237.405 46.2084 237.103 47.5357C237.08 49.4693 236.838 51.3917 236.025 52.0585C235.213 52.7253 233.022 53.3929 232.516 50.8391C232.011 48.2854 231.889 45.8957 229.384 45.9011C226.88 45.9066 210.001 48.8181 207.664 50.9653Z" stroke="#263238" stroke-linecap="round" stroke-linejoin="round"/>
<path d="M214.715 67.0521C216.141 66.2909 217.705 65.8216 219.315 65.6715C220.924 65.5214 222.548 65.6936 224.09 66.1779C229.06 67.8464 227.387 70.1958 225.381 70.4819C223.375 70.7679 219.449 70.8857 217.481 71.2176C215.512 71.5494 212.429 68.4678 214.715 67.0521Z" fill="#263238" stroke="#263238" stroke-linecap="round" stroke-linejoin="round"/>
<path d="M217.139 58.4326C216.588 58.617 215.794 57.7293 215.366 56.4499C214.937 55.1705 215.036 53.9838 215.587 53.7994C216.137 53.615 216.931 54.5027 217.36 55.7822C217.788 57.0616 217.689 58.2482 217.139 58.4326Z" fill="#263238"/>
<path d="M218.168 50.0663C217.037 50.1644 215.947 50.5415 214.997 51.1639C214.047 51.7862 213.267 52.6343 212.725 53.6323" stroke="#263238" stroke-linecap="round" stroke-linejoin="round"/>
<path d="M265.299 51.0437C257.889 47.6995 249.989 45.5737 241.901 44.7483C228.16 43.2666 193.681 58.3397 190.362 57.4232C187.044 56.5067 204.415 48.173 204.415 48.173C204.415 48.173 204.474 31.0407 216.159 20.305C227.844 9.56932 242.332 20.0146 247.944 26.5756C253.557 33.1365 256.515 43.6754 256.515 43.6754C256.515 43.6754 268.4 50.3186 265.299 51.0437Z" fill="#6677BC"/>
<path d="M265.299 51.0437C257.889 47.6995 249.989 45.5737 241.901 44.7483C228.16 43.2666 193.681 58.3397 190.362 57.4232C187.044 56.5067 204.415 48.173 204.415 48.173C204.415 48.173 204.474 31.0407 216.159 20.305C227.844 9.56932 242.332 20.0146 247.944 26.5756C253.557 33.1365 256.515 43.6754 256.515 43.6754C256.515 43.6754 268.4 50.3186 265.299 51.0437Z" stroke="#263238" stroke-linecap="round" stroke-linejoin="round"/>
<path d="M256.551 43.6471C256.551 43.6471 268.402 50.3184 265.335 51.0153C257.925 47.6711 250.024 45.5453 241.937 44.72C228.196 43.2382 193.716 58.3113 190.398 57.3948C187.08 56.4784 204.451 48.1447 204.451 48.1447C204.451 48.1447 218.244 45.255 230.589 43.9372C239.223 43.193 247.902 43.0961 256.551 43.6471Z" fill="#6677BC" stroke="#263238" stroke-linecap="round" stroke-linejoin="round"/>
<path d="M227.778 15.7908C227.778 15.7908 238.469 29.1019 234.146 43.8146" stroke="#263238" stroke-linecap="round" stroke-linejoin="round"/>
<path d="M335.174 140.134L331.946 144.697C331.946 144.697 320.623 145.579 319.688 146.097C318.754 146.615 315.136 156.095 314.39 159.598C313.645 163.102 312.451 167.203 313.642 167.183C314.833 167.164 315.809 165.156 316.359 163.748C316.908 162.34 320.599 154.256 320.599 154.256C320.599 154.256 318.499 161.035 317.958 163.643C317.416 166.251 315.73 168.841 316.894 169.093C317.214 169.206 317.553 169.251 317.892 169.227C318.23 169.203 318.559 169.11 318.86 168.953C319.161 168.796 319.426 168.579 319.639 168.316C319.852 168.052 320.009 167.747 320.099 167.421C320.939 165.526 324.858 155.339 324.858 155.339C324.858 155.339 322.095 164.577 321.765 166.533C321.435 168.489 322.63 169.922 323.924 168.861C325.217 167.799 327.271 162.973 327.983 161.202C328.694 159.431 330.888 154.471 330.888 154.471C330.73 157.559 330.779 160.653 331.036 163.734C331.472 166.039 331.831 169.115 333.274 167.931C334.716 166.748 333.994 161.806 334.064 159.814C334.134 157.822 336.805 153.466 336.805 153.466C339.226 152.858 341.574 151.985 343.805 150.864C346.602 149.278 347.245 140.094 347.245 140.094L335.174 140.134Z" fill="white" stroke="#263238" stroke-linecap="round" stroke-linejoin="round"/>
<path d="M324.85 155.423L326.024 152.161" stroke="#263238" stroke-linecap="round" stroke-linejoin="round"/>
<path d="M320.591 154.34L322.013 150.798" stroke="#263238" stroke-linecap="round" stroke-linejoin="round"/>
<path d="M328.782 65.5533C328.782 65.5533 357.51 65.6939 358.658 66.533C359.806 67.3722 349.351 143.499 349.351 143.499L334.097 141.248L331.785 89.9208L304.216 93.3875C304.216 93.3875 295.382 85.888 293.879 78.6173C293.469 76.4341 293.542 74.1876 294.092 72.0355C294.642 69.8833 295.657 67.8778 297.065 66.1595L328.782 65.5533Z" fill="#6677BC"/>
<path d="M328.782 65.5533C328.782 65.5533 357.51 65.6939 358.658 66.533C359.806 67.3722 349.351 143.499 349.351 143.499L334.097 141.248L331.785 89.9208L304.216 93.3875C304.216 93.3875 295.382 85.888 293.879 78.6173C293.469 76.4341 293.542 74.1876 294.092 72.0355C294.642 69.8833 295.657 67.8778 297.065 66.1595L328.782 65.5533Z" stroke="#263238" stroke-linecap="round" stroke-linejoin="round"/>
<path d="M208.827 163.009C208.827 163.009 217.711 139.825 219.084 127.399C220.457 114.973 220.717 109.454 223.561 111.449C226.404 113.445 247.57 153.039 246.783 154.718C245.997 156.397 226.665 188.556 221.428 193.331C216.191 198.107 212.862 201.566 210.232 199.644C207.602 197.722 205.524 186.902 205.737 176.844C205.951 166.787 208.827 163.009 208.827 163.009Z" fill="#6677BC"/>
<path d="M208.827 163.009C208.827 163.009 217.711 139.825 219.084 127.399C220.457 114.973 220.717 109.454 223.561 111.449C226.404 113.445 247.57 153.039 246.783 154.718C245.997 156.397 226.665 188.556 221.428 193.331C216.191 198.107 212.862 201.566 210.232 199.644C207.602 197.722 205.524 186.902 205.737 176.844C205.951 166.787 208.827 163.009 208.827 163.009Z" stroke="#263238" stroke-linecap="round" stroke-linejoin="round"/>
<path d="M256.052 65.7543C256.052 65.7543 267.424 94.882 277.16 113.286C286.896 131.689 297.572 147.503 297.572 147.503C297.572 147.503 299.747 140.816 311.124 129.682C322.501 118.547 326.613 112.051 323.629 97.512C320.644 82.9726 324.782 80.9189 328.812 74.9305C332.843 68.9421 332.004 64.6511 332.004 64.6511C332.004 64.6511 257.664 63.9144 256.052 65.7543ZM237.467 77.6504C240.014 88.8396 243.584 99.771 248.133 110.307C255.762 128.103 275.625 164.359 275.625 164.359C275.625 164.359 264.475 171.592 256.138 167.592C247.8 163.593 245.653 161.256 239.391 163.52C233.128 165.785 223.508 167.645 219.16 163.513C216.188 160.75 213.04 158.183 209.734 155.829C209.734 155.829 218.338 111.481 220.14 105.157C221.942 98.8332 235.372 77.4543 237.467 77.6504Z" fill="#6677BC"/>
<path d="M256.052 65.7543C256.052 65.7543 267.424 94.882 277.16 113.286C286.896 131.689 297.572 147.503 297.572 147.503C297.572 147.503 299.747 140.816 311.124 129.682C322.501 118.547 326.613 112.051 323.629 97.512C320.644 82.9726 324.782 80.9189 328.812 74.9305C332.843 68.9421 332.004 64.6511 332.004 64.6511C332.004 64.6511 257.664 63.9144 256.052 65.7543ZM237.467 77.6504C240.014 88.8396 243.584 99.771 248.133 110.307C255.762 128.103 275.625 164.359 275.625 164.359C275.625 164.359 264.475 171.592 256.138 167.592C247.8 163.593 245.653 161.256 239.391 163.52C233.128 165.785 223.508 167.645 219.16 163.513C216.188 160.75 213.04 158.183 209.734 155.829C209.734 155.829 218.338 111.481 220.14 105.157C221.942 98.8332 235.372 77.4543 237.467 77.6504Z" stroke="#263238" stroke-linecap="round" stroke-linejoin="round"/>
<path d="M190.108 115.145C190.108 115.145 194.272 122.416 195.155 124.239C196.038 126.062 196.171 133.345 196.171 133.345L205.034 132.241C204.363 128.591 203.897 124.906 203.639 121.204C203.807 119.4 207.691 114.05 207.536 110.92C207.382 107.791 205.147 105.814 204.33 104.071C203.513 102.328 203.442 95.4719 202.113 95.5092C200.784 95.5464 199.52 97.4837 199.535 99.137C199.551 100.79 200.714 102.231 200.973 103.224C201.233 104.218 199.029 110.565 199.029 110.565C199.029 110.565 196.36 103.274 196.012 102.219C195.907 101.939 195.742 101.685 195.528 101.476C195.315 101.267 195.058 101.107 194.775 101.008C194.493 100.909 194.193 100.873 193.895 100.903C193.597 100.933 193.31 101.027 193.053 101.18C192.16 101.913 191.357 109.198 191.357 109.198L190.108 115.145Z" stroke="#263238" stroke-linecap="round" stroke-linejoin="round"/>
<path d="M198.146 90.2337C193.178 91.3638 187.481 84.9369 185.42 75.8787C183.36 66.8206 185.716 58.5614 190.684 57.4312C195.651 56.3011 201.349 62.7281 203.41 71.7862C205.47 80.8444 203.114 89.1036 198.146 90.2337Z" fill="white" stroke="#263238" stroke-linecap="round" stroke-linejoin="round"/>
<path d="M198.323 87.5405C194.91 88.3169 190.73 82.7344 188.987 75.0716C187.244 67.4089 188.597 60.5676 192.01 59.7912C195.423 59.0149 199.602 64.5974 201.346 72.2601C203.089 79.9229 201.735 86.7641 198.323 87.5405Z" fill="white" stroke="#263238" stroke-linecap="round" stroke-linejoin="round"/>
<path d="M198.119 89.4973L200.408 112.9C200.44 113.2 200.409 113.503 200.319 113.79C200.229 114.078 200.08 114.343 199.883 114.571C199.687 114.799 199.445 114.985 199.174 115.116C198.902 115.247 198.607 115.321 198.306 115.333C198.011 115.347 197.717 115.302 197.44 115.201C197.163 115.099 196.909 114.944 196.693 114.743C196.477 114.543 196.303 114.301 196.181 114.033C196.059 113.764 195.992 113.474 195.983 113.179L195.473 89.6571C195.463 89.5176 195.482 89.3775 195.527 89.2452C195.573 89.1129 195.644 88.9912 195.738 88.8874C195.832 88.7836 195.946 88.6999 196.073 88.6413C196.2 88.5826 196.337 88.5503 196.477 88.5463L197.062 88.4882C197.334 88.4863 197.597 88.5905 197.795 88.7788C197.992 88.9671 198.108 89.2248 198.119 89.4973Z" fill="#263238" stroke="#263238" stroke-linecap="round" stroke-linejoin="round"/>
<path d="M192.474 97.6723C192.474 97.6723 196.994 97.0662 197.683 98.1862C198.373 99.3062 198.276 100.075 197.417 100.78C196.559 101.484 193.229 102.071 192.023 102.352C190.817 102.632 188.74 98.84 192.474 97.6723Z" fill="white" stroke="#263238" stroke-linecap="round" stroke-linejoin="round"/>
<path d="M194.147 102.046C196.386 102.591 198.581 103.307 200.711 104.187C201.319 104.742 200.29 114.109 199.385 114.851C198.481 115.593 191.028 116.593 190.179 115.184C189.329 113.775 191.266 105.865 191.417 104.228C191.568 102.591 192.106 101.613 194.147 102.046Z" fill="white" stroke="#263238" stroke-linecap="round" stroke-linejoin="round"/>
<path d="M200.639 107.252L191.061 105.476" stroke="#263238" stroke-linecap="round" stroke-linejoin="round"/>
<path d="M190.652 110.486L200.004 111.987" stroke="#263238" stroke-linecap="round" stroke-linejoin="round"/>
<path d="M217.405 172.577L206.729 129.357L191.101 132.602C191.101 132.602 190.539 155.682 193.48 168.954C196.421 182.227 206.56 198.903 210.279 199.701C213.998 200.499 221.083 192.024 223.128 186.019" fill="#6677BC"/>
<path d="M217.405 172.577L206.729 129.357L191.101 132.602C191.101 132.602 190.539 155.682 193.48 168.954C196.421 182.227 206.56 198.903 210.279 199.701C213.998 200.499 221.083 192.024 223.128 186.019" stroke="#263238" stroke-linecap="round" stroke-linejoin="round"/>
</svg>
