<svg width="20" height="20" viewBox="0 0 20 20" fill="none" xmlns="http://www.w3.org/2000/svg">
<g clip-path="url(#clip0_1389_1543)">
<path d="M15.6078 3.50908C15.6078 3.50908 17.1188 2.91991 16.9929 4.35075C16.9509 4.93992 16.5732 7.00201 16.2794 9.23244L15.2721 15.8395C15.2721 15.8395 15.1881 16.8075 14.4326 16.9758C13.6772 17.1441 12.544 16.3866 12.3341 16.2183C12.1662 16.0921 9.1863 14.1983 8.137 13.2725C7.8432 13.0199 7.50743 12.5149 8.17897 11.9258L12.5859 7.71744C13.0896 7.21243 13.5932 6.0341 11.4947 7.46494L5.61875 11.4629C5.61875 11.4629 4.94722 11.8837 3.68812 11.505L0.959989 10.6633C0.959989 10.6633 -0.0473149 10.032 1.6735 9.40075C5.8706 7.42282 11.033 5.40282 15.6078 3.50908Z" fill="#5E79EC"/>
</g>
<defs>
<clipPath id="clip0_1389_1543">
<rect width="18.6667" height="18.6667" fill="white" transform="translate(0.666992 0.666748)"/>
</clipPath>
</defs>
</svg>
