<svg width="20" height="20" viewBox="0 0 20 20" fill="none" xmlns="http://www.w3.org/2000/svg">
<path d="M3 17.0001L4.28333 14.0445C3.30152 12.6508 2.86207 10.9466 3.04748 9.25192C3.23288 7.5572 4.03039 5.98839 5.29033 4.83991C6.55027 3.69143 8.18603 3.04222 9.89063 3.01413C11.5952 2.98605 13.2515 3.581 14.5486 4.68735C15.8457 5.79369 16.6944 7.33537 16.9356 9.02307C17.1767 10.7108 16.7937 12.4284 15.8583 13.8538C14.9229 15.2791 13.4996 16.3141 11.8553 16.7645C10.211 17.2149 8.45893 17.0497 6.92778 16.3001L3 17.0001Z" fill="white"/>
<path d="M3 17.0001L4.28333 14.0445C3.30152 12.6508 2.86207 10.9466 3.04748 9.25192C3.23288 7.5572 4.03039 5.98839 5.29033 4.83991C6.55027 3.69143 8.18603 3.04222 9.89063 3.01413C11.5952 2.98605 13.2515 3.581 14.5486 4.68735C15.8457 5.79369 16.6944 7.33537 16.9356 9.02307C17.1767 10.7108 16.7937 12.4284 15.8583 13.8538C14.9229 15.2791 13.4996 16.3141 11.8553 16.7645C10.211 17.2149 8.45893 17.0497 6.92778 16.3001L3 17.0001" stroke="white" stroke-linecap="round" stroke-linejoin="round"/>
<path d="M7.66699 8.4445C7.66699 8.54764 7.70796 8.64655 7.78089 8.71949C7.85383 8.79242 7.95274 8.83339 8.05588 8.83339C8.15902 8.83339 8.25794 8.79242 8.33087 8.71949C8.4038 8.64655 8.44477 8.54764 8.44477 8.4445V7.66672C8.44477 7.56358 8.4038 7.46467 8.33087 7.39173C8.25794 7.3188 8.15902 7.27783 8.05588 7.27783C7.95274 7.27783 7.85383 7.3188 7.78089 7.39173C7.70796 7.46467 7.66699 7.56358 7.66699 7.66672V8.4445ZM7.66699 8.4445C7.66699 9.4759 8.07671 10.4651 8.80602 11.1944C9.53533 11.9237 10.5245 12.3334 11.5559 12.3334H12.3337C12.4368 12.3334 12.5357 12.2924 12.6086 12.2195C12.6816 12.1466 12.7225 12.0476 12.7225 11.9445C12.7225 11.8414 12.6816 11.7424 12.6086 11.6695C12.5357 11.5966 12.4368 11.5556 12.3337 11.5556H11.5559C11.4527 11.5556 11.3538 11.5966 11.2809 11.6695C11.208 11.7424 11.167 11.8414 11.167 11.9445C11.167 12.0476 11.208 12.1466 11.2809 12.2195C11.3538 12.2924 11.4527 12.3334 11.5559 12.3334" stroke="#405BCF" stroke-linecap="round" stroke-linejoin="round"/>
</svg>
