<svg width="33" height="32" viewBox="0 0 33 32" fill="none" xmlns="http://www.w3.org/2000/svg">
<path d="M17.7578 18C19.967 18 21.7578 16.2091 21.7578 14C21.7578 11.7909 19.967 10 17.7578 10C15.5487 10 13.7578 11.7909 13.7578 14C13.7578 16.2091 15.5487 18 17.7578 18Z" stroke="black" stroke-width="2" stroke-linecap="round" stroke-linejoin="round"/>
<path d="M4.75781 13.5H7.75781" stroke="black" stroke-width="2" stroke-linecap="round" stroke-linejoin="round"/>
<path d="M4.75781 8.5H7.75781" stroke="black" stroke-width="2" stroke-linecap="round" stroke-linejoin="round"/>
<path d="M4.75781 18.5H7.75781" stroke="black" stroke-width="2" stroke-linecap="round" stroke-linejoin="round"/>
<path d="M4.75781 23.5H7.75781" stroke="black" stroke-width="2" stroke-linecap="round" stroke-linejoin="round"/>
<path d="M11.7578 21C12.4564 20.0685 13.3623 19.3125 14.4037 18.7918C15.4451 18.2711 16.5935 18 17.7578 18C18.9222 18 20.0705 18.2711 21.1119 18.7918C22.1533 19.3125 23.0592 20.0685 23.7578 21" stroke="black" stroke-width="2" stroke-linecap="round" stroke-linejoin="round"/>
<path d="M27.7578 27V5C27.7578 4.44772 27.3101 4 26.7578 4L8.75781 4C8.20553 4 7.75781 4.44772 7.75781 5V27C7.75781 27.5523 8.20553 28 8.75781 28H26.7578C27.3101 28 27.7578 27.5523 27.7578 27Z" stroke="black" stroke-width="2" stroke-linecap="round" stroke-linejoin="round"/>
</svg>
