<svg width="33" height="32" viewBox="0 0 33 32" fill="none" xmlns="http://www.w3.org/2000/svg">
<path d="M22.7578 4V16L18.7578 13L14.7578 16V4" stroke="black" stroke-width="2" stroke-linecap="round" stroke-linejoin="round"/>
<path d="M6.75784 27C6.75618 26.6056 6.83265 26.2147 6.98283 25.85C7.13301 25.4853 7.35393 25.1539 7.63283 24.875C7.91174 24.5961 8.24311 24.3752 8.60783 24.225C8.97256 24.0748 9.36341 23.9984 9.75784 24H26.7578V4.00003H9.75784C9.36341 3.99837 8.97256 4.07484 8.60783 4.22502C8.24311 4.3752 7.91174 4.59611 7.63283 4.87502C7.35393 5.15392 7.13301 5.4853 6.98283 5.85002C6.83265 6.21475 6.75618 6.6056 6.75784 7.00003V27Z" stroke="black" stroke-width="2" stroke-linecap="round" stroke-linejoin="round"/>
<path d="M6.75781 27V28H24.7578" stroke="black" stroke-width="2" stroke-linecap="round" stroke-linejoin="round"/>
</svg>
