<svg width="38" height="38" viewBox="0 0 38 38" fill="none" xmlns="http://www.w3.org/2000/svg">
<path fill-rule="evenodd" clip-rule="evenodd" d="M3 10C3 8.89543 3.89543 8 5 8H33C34.1046 8 35 8.89543 35 10C35 11.1046 34.1046 12 33 12H5C3.89543 12 3 11.1046 3 10ZM3 19C3 17.8954 3.89543 17 5 17H33C34.1046 17 35 17.8954 35 19C35 20.1046 34.1046 21 33 21H5C3.89543 21 3 20.1046 3 19ZM5 26C3.89543 26 3 26.8954 3 28C3 29.1046 3.89543 30 5 30H33C34.1046 30 35 29.1046 35 28C35 26.8954 34.1046 26 33 26H5Z" fill="#5E79EC"/>
</svg>
