<svg width="33" height="32" viewBox="0 0 33 32" fill="none" xmlns="http://www.w3.org/2000/svg">
<path d="M16.7578 16V4" stroke="black" stroke-width="2" stroke-linecap="round" stroke-linejoin="round"/>
<path d="M27.1451 10L6.37012 22" stroke="black" stroke-width="2" stroke-linecap="round" stroke-linejoin="round"/>
<path d="M4.95794 18.2C4.82151 17.4747 4.75454 16.738 4.75794 16C4.75636 13.5182 5.52508 11.0972 6.95803 9.07089C8.39098 7.04461 10.4175 5.51303 12.7579 4.6875V13.6875L4.95794 18.2Z" stroke="black" stroke-width="2" stroke-linecap="round" stroke-linejoin="round"/>
<path d="M16.7577 4C18.8604 4.00024 20.9261 4.55298 22.748 5.60287C24.5698 6.65275 26.0838 8.16292 27.1383 9.9821C28.1928 11.8013 28.7508 13.8656 28.7563 15.9683C28.7619 18.071 28.2148 20.1382 27.17 21.963C26.1251 23.7877 24.6191 25.3058 22.8028 26.3653C20.9866 27.4248 18.9238 27.9885 16.8211 27.9998C14.7184 28.0112 12.6497 27.4698 10.8221 26.43C8.99449 25.3901 7.47221 23.8883 6.40771 22.075" stroke="black" stroke-width="2" stroke-linecap="round" stroke-linejoin="round"/>
</svg>
