<svg width="18" height="18" viewBox="0 0 18 18" fill="none" xmlns="http://www.w3.org/2000/svg">
<path fill-rule="evenodd" clip-rule="evenodd" d="M15.0311 17.3952C15.6169 17.9809 16.5667 17.9809 17.1525 17.3952C17.7382 16.8094 17.7382 15.8596 17.1525 15.2738L11.142 9.26343L17.1525 3.25302C17.7382 2.66723 17.7382 1.71749 17.1525 1.1317C16.5667 0.545914 15.6169 0.545914 15.0311 1.1317L9.02072 7.14211L3.01031 1.1317C2.42453 0.545913 1.47478 0.545913 0.888997 1.1317C0.30321 1.71749 0.30321 2.66723 0.888996 3.25302L6.89941 9.26343L0.888997 15.2738C0.303211 15.8596 0.30321 16.8094 0.888996 17.3952C1.47478 17.9809 2.42453 17.9809 3.01032 17.3952L9.02072 11.3847L15.0311 17.3952Z" fill="#777E96"/>
</svg>
