<svg width="33" height="32" viewBox="0 0 33 32" fill="none" xmlns="http://www.w3.org/2000/svg">
<path d="M11.7578 3V7" stroke="black" stroke-width="2" stroke-linecap="round" stroke-linejoin="round"/>
<path d="M15.7578 3V7" stroke="black" stroke-width="2" stroke-linecap="round" stroke-linejoin="round"/>
<path d="M19.7578 3V7" stroke="black" stroke-width="2" stroke-linecap="round" stroke-linejoin="round"/>
<path d="M4.75781 27H26.7578" stroke="black" stroke-width="2" stroke-linecap="round" stroke-linejoin="round"/>
<path d="M11.1703 27C9.2564 26.1218 7.63478 24.7127 6.49809 22.9401C5.36139 21.1674 4.75738 19.1058 4.75781 17V11H26.7578V17C26.7582 19.1058 26.1542 21.1674 25.0175 22.9401C23.8808 24.7127 22.2592 26.1218 20.3453 27" stroke="black" stroke-width="2" stroke-linecap="round" stroke-linejoin="round"/>
<path d="M26.758 11C27.8189 11 28.8363 11.4214 29.5864 12.1716C30.3366 12.9217 30.758 13.9391 30.758 15V16C30.758 17.0609 30.3366 18.0783 29.5864 18.8284C28.8363 19.5786 27.8189 20 26.758 20H26.333" stroke="black" stroke-width="2" stroke-linecap="round" stroke-linejoin="round"/>
</svg>
