<svg width="33" height="32" viewBox="0 0 33 32" fill="none" xmlns="http://www.w3.org/2000/svg">
<path d="M12.7578 15C18.2807 15 22.7578 12.9853 22.7578 10.5C22.7578 8.01472 18.2807 6 12.7578 6C7.23496 6 2.75781 8.01472 2.75781 10.5C2.75781 12.9853 7.23496 15 12.7578 15Z" stroke="black" stroke-width="2" stroke-linecap="round" stroke-linejoin="round"/>
<path d="M2.75781 10.5V15.5C2.75781 17.9875 7.23281 20 12.7578 20C18.2828 20 22.7578 17.9875 22.7578 15.5V10.5" stroke="black" stroke-width="2" stroke-linecap="round" stroke-linejoin="round"/>
<path d="M8.75781 14.625V19.625" stroke="black" stroke-width="2" stroke-linecap="round" stroke-linejoin="round"/>
<path d="M22.7578 12.0879C27.3203 12.5129 30.7578 14.3254 30.7578 16.5004C30.7578 18.9879 26.2828 21.0004 20.7578 21.0004C18.3078 21.0004 16.0578 20.6004 14.3203 19.9504" stroke="black" stroke-width="2" stroke-linecap="round" stroke-linejoin="round"/>
<path d="M10.7578 19.9125V21.5C10.7578 23.9875 15.2328 26 20.7578 26C26.2828 26 30.7578 23.9875 30.7578 21.5V16.5" stroke="black" stroke-width="2" stroke-linecap="round" stroke-linejoin="round"/>
<path d="M24.7578 20.625V25.625" stroke="black" stroke-width="2" stroke-linecap="round" stroke-linejoin="round"/>
<path d="M16.7578 14.625V25.625" stroke="black" stroke-width="2" stroke-linecap="round" stroke-linejoin="round"/>
</svg>
