<svg width="19" height="19" viewBox="0 0 19 19" fill="none" xmlns="http://www.w3.org/2000/svg">
<g clip-path="url(#clip0_1304_2164)">
<path d="M2.42432 16.3333L3.70765 13.3778C2.72583 11.984 2.28639 10.2799 2.4718 8.58517C2.6572 6.89045 3.45471 5.32164 4.71464 4.17316C5.97458 3.02468 7.61034 2.37548 9.31495 2.34739C11.0195 2.3193 12.6758 2.91425 13.9729 4.0206C15.27 5.12695 16.1188 6.66863 16.3599 8.35632C16.601 10.044 16.218 11.7617 15.2826 13.187C14.3473 14.6123 12.9239 15.6473 11.2796 16.0977C9.63536 16.5481 7.88325 16.383 6.35209 15.6333L2.42432 16.3333Z" fill="#5E79EC"/>
<path d="M2.42432 16.3333L3.70765 13.3778C2.72583 11.984 2.28639 10.2799 2.4718 8.58517C2.6572 6.89045 3.45471 5.32164 4.71464 4.17316C5.97458 3.02468 7.61034 2.37548 9.31495 2.34739C11.0195 2.3193 12.6758 2.91425 13.9729 4.0206C15.27 5.12694 16.1188 6.66863 16.3599 8.35632C16.601 10.044 16.218 11.7617 15.2826 13.187C14.3473 14.6123 12.9239 15.6473 11.2796 16.0977C9.63536 16.5481 7.88325 16.383 6.35209 15.6333L2.42432 16.3333" stroke="#5E79EC" stroke-linecap="round" stroke-linejoin="round"/>
<path d="M7.09082 7.77775C7.09082 7.88089 7.13179 7.97981 7.20472 8.05274C7.27765 8.12567 7.37657 8.16664 7.47971 8.16664C7.58285 8.16664 7.68176 8.12567 7.7547 8.05274C7.82763 7.97981 7.8686 7.88089 7.8686 7.77775V6.99997C7.8686 6.89683 7.82763 6.79792 7.7547 6.72499C7.68176 6.65206 7.58285 6.61108 7.47971 6.61108C7.37657 6.61108 7.27765 6.65206 7.20472 6.72499C7.13179 6.79792 7.09082 6.89683 7.09082 6.99997V7.77775ZM7.09082 7.77775C7.09082 8.80915 7.50054 9.7983 8.22985 10.5276C8.95916 11.2569 9.94831 11.6666 10.9797 11.6666H11.7575C11.8606 11.6666 11.9595 11.6257 12.0325 11.5527C12.1054 11.4798 12.1464 11.3809 12.1464 11.2778C12.1464 11.1746 12.1054 11.0757 12.0325 11.0028C11.9595 10.9298 11.8606 10.8889 11.7575 10.8889H10.9797C10.8766 10.8889 10.7777 10.9298 10.7047 11.0028C10.6318 11.0757 10.5908 11.1746 10.5908 11.2778C10.5908 11.3809 10.6318 11.4798 10.7047 11.5527C10.7777 11.6257 10.8766 11.6666 10.9797 11.6666" stroke="#EFF9FF" stroke-linecap="round" stroke-linejoin="round"/>
</g>
<defs>
<clipPath id="clip0_1304_2164">
<rect width="18.6667" height="18.6667" fill="white" transform="translate(0.0908203)"/>
</clipPath>
</defs>
</svg>
