<svg width="562" height="525" viewBox="0 0 562 525" fill="none" xmlns="http://www.w3.org/2000/svg">
<g opacity="0.24">
<path d="M228.321 520.282C228.321 520.282 325.663 537.87 406.267 470.867C486.871 403.864 513.847 292.946 538.073 203.567C562.299 114.188 524.91 33.6468 449.494 6.55802C374.078 -20.5308 337.501 43.8598 241.772 62.5481C146.042 81.2365 117.703 71.6861 47.5626 139.577C-22.5782 207.467 -14.0278 338.986 65.851 424.103C145.73 509.219 228.321 520.282 228.321 520.282Z" fill="#5E79EC"/>
<path opacity="0.8" d="M228.321 520.282C228.321 520.282 325.663 537.87 406.267 470.867C486.871 403.864 513.847 292.946 538.073 203.567C562.299 114.188 524.91 33.6468 449.494 6.55802C374.078 -20.5308 337.501 43.8598 241.772 62.5481C146.042 81.2365 117.703 71.6861 47.5626 139.577C-22.5782 207.467 -14.0278 338.986 65.851 424.103C145.73 509.219 228.321 520.282 228.321 520.282Z" fill="white"/>
</g>
<path d="M288.672 91.0869H239.119C216.491 91.1153 194.289 97.2477 174.854 108.838L167.504 113.2C150.624 123.271 136.261 137.053 125.502 153.502L117.714 165.365C115.614 168.621 112.736 171.302 109.34 173.165C105.944 175.029 102.137 176.018 98.2628 176.041H69.024C68.2536 176.041 67.5147 176.346 66.9688 176.89C66.423 177.433 66.1146 178.171 66.1113 178.941V178.941C66.1113 179.714 66.4182 180.454 66.9644 181.001C67.5106 181.547 68.2515 181.854 69.024 181.854H100.275C104.643 181.836 108.954 180.861 112.905 178.997C116.855 177.133 120.348 174.426 123.139 171.066L135.552 156.315C147.098 142.554 161.408 131.374 177.554 123.501V123.501C194.628 115.205 213.361 110.889 232.344 110.875H286.434L288.672 91.0869Z" fill="#5E79EC"/>
<path d="M272.521 91.0869H322.074C344.702 91.1153 366.904 97.2477 386.339 108.838L393.69 113.2C410.569 123.271 424.933 137.053 435.692 153.502L443.479 165.365C445.579 168.621 448.458 171.302 451.854 173.165C455.25 175.029 459.057 176.018 462.93 176.041H492.169C492.94 176.041 493.679 176.346 494.224 176.89C494.77 177.433 495.079 178.171 495.082 178.941V178.941C495.082 179.714 494.775 180.454 494.229 181.001C493.683 181.547 492.942 181.854 492.169 181.854H460.918C456.55 181.836 452.239 180.861 448.289 178.997C444.338 177.133 440.845 174.426 438.054 171.066L425.641 156.315C414.095 142.554 399.785 131.374 383.639 123.501V123.501C366.565 115.205 347.832 110.889 328.849 110.875H274.734L272.521 91.0869Z" fill="#5E79EC"/>
<path d="M286.89 130.007C302.195 127.437 312.52 112.947 309.951 97.6408C307.381 82.335 292.89 72.0103 277.585 74.5799C262.279 77.1494 251.954 91.6402 254.524 106.946C257.093 122.252 271.584 132.576 286.89 130.007Z" fill="#CBD2EF"/>
<path d="M313.499 457.604H250.984C247.325 457.604 244.358 460.57 244.358 464.229V467.529C244.358 471.189 247.325 474.155 250.984 474.155H313.499C317.158 474.155 320.124 471.189 320.124 467.529V464.229C320.124 460.57 317.158 457.604 313.499 457.604Z" fill="#CBD2EF"/>
<path d="M325.699 417.14L323.036 411.589C317.133 399.31 313.298 386.141 311.686 372.613L291.772 168.515L285.11 168.065V167.69L282.235 167.94L279.359 167.753V168.128L272.697 168.578L252.783 372.613C251.171 386.141 247.336 399.31 241.433 411.589L238.77 417.14C236.045 422.803 234.99 429.126 235.73 435.367C236.469 441.608 238.972 447.509 242.945 452.379L247.87 458.429H316.624L321.549 452.379C325.518 447.507 328.016 441.604 328.751 435.363C329.486 429.122 328.428 422.801 325.699 417.14V417.14Z" fill="#CBD2EF"/>
<path d="M168.854 470.017H395.614C401.32 470.017 406.792 472.284 410.827 476.318C414.861 480.353 417.128 485.825 417.128 491.531V500.631H147.34V491.531C147.34 485.825 149.607 480.353 153.641 476.318C157.676 472.284 163.148 470.017 168.854 470.017V470.017Z" fill="#CBD2EF"/>
<path d="M132.478 495.531H431.992C438.527 495.531 444.793 498.127 449.414 502.747C454.035 507.368 456.631 513.635 456.631 520.169V524.057H107.864V520.169C107.864 513.639 110.457 507.376 115.072 502.756C119.687 498.136 125.948 495.537 132.478 495.531V495.531Z" fill="#CBD2EF"/>
<path d="M275.447 98.9995H289.023L302.711 58.8226C305.661 50.1722 301.973 39.3467 296.073 39.3467H268.397C262.497 39.3467 258.809 50.1722 261.759 58.8226L275.447 98.9995Z" fill="#CBD2EF"/>
<path d="M289.023 98.1123H275.447L261.759 138.277C258.809 146.94 262.497 157.753 268.397 157.753H296.073C301.973 157.753 305.661 146.94 302.711 138.277L289.023 98.1123Z" fill="#CBD2EF"/>
<path d="M282.234 40.0345C293.778 40.0345 303.135 32.2999 303.135 22.7587C303.135 13.2176 293.778 5.48291 282.234 5.48291C270.691 5.48291 261.333 13.2176 261.333 22.7587C261.333 32.2999 270.691 40.0345 282.234 40.0345Z" fill="#CBD2EF"/>
<path d="M288.859 108.926H275.609C274.74 108.926 273.88 108.755 273.078 108.422C272.276 108.09 271.547 107.603 270.933 106.989C270.319 106.375 269.832 105.646 269.499 104.843C269.167 104.041 268.996 103.181 268.996 102.313C268.994 101.443 269.164 100.582 269.496 99.7784C269.827 98.9746 270.314 98.2441 270.928 97.6288C271.543 97.0134 272.272 96.5252 273.075 96.1921C273.878 95.859 274.739 95.6875 275.609 95.6875H288.859C289.729 95.6875 290.59 95.859 291.393 96.1921C292.196 96.5252 292.925 97.0134 293.54 97.6288C294.154 98.2441 294.641 98.9746 294.972 99.7784C295.304 100.582 295.474 101.443 295.472 102.313C295.472 103.181 295.301 104.041 294.969 104.843C294.636 105.646 294.149 106.375 293.535 106.989C292.921 107.603 292.192 108.09 291.39 108.422C290.588 108.755 289.728 108.926 288.859 108.926Z" fill="#5E79EC"/>
<path d="M293.685 156.103H270.796C267.137 156.103 264.171 159.069 264.171 162.728V166.028C264.171 169.687 267.137 172.653 270.796 172.653H293.685C297.344 172.653 300.31 169.687 300.31 166.028V162.728C300.31 159.069 297.344 156.103 293.685 156.103Z" fill="#CBD2EF"/>
<path d="M87.613 179.979L34.173 313.647H141.053L87.613 179.979Z" stroke="#CBD2EF" stroke-linecap="round" stroke-linejoin="round"/>
<path d="M87.6133 179.979V315.472" stroke="#CBD2EF" stroke-linecap="round" stroke-linejoin="round"/>
<path d="M28.8848 318.66V324.973C28.8848 328.991 30.481 332.845 33.3223 335.686C36.1636 338.527 40.0173 340.124 44.0355 340.124H131.177C133.167 340.125 135.138 339.735 136.977 338.974C138.816 338.213 140.487 337.097 141.894 335.69C143.301 334.283 144.417 332.612 145.178 330.773C145.939 328.934 146.329 326.963 146.328 324.973V318.66H28.8848Z" fill="#5E79EC"/>
<path d="M147.228 312.947H27.9603C27.1102 312.947 26.2942 313.281 25.6884 313.878C25.0827 314.474 24.7358 315.285 24.7227 316.135V316.135C24.7226 316.995 25.0634 317.82 25.6702 318.429C26.277 319.038 27.1005 319.382 27.9603 319.385H147.228C148.088 319.382 148.912 319.038 149.519 318.429C150.125 317.82 150.466 316.995 150.466 316.135C150.453 315.285 150.106 314.474 149.5 313.878C148.895 313.281 148.078 312.947 147.228 312.947Z" fill="#5E79EC"/>
<path d="M473.407 179.979L419.967 313.647H526.847L473.407 179.979Z" stroke="#CBD2EF" stroke-linecap="round" stroke-linejoin="round"/>
<path d="M473.406 179.979V315.472" stroke="#CBD2EF" stroke-linecap="round" stroke-linejoin="round"/>
<path d="M414.741 318.66V324.973C414.741 326.964 415.133 328.935 415.896 330.774C416.658 332.613 417.775 334.283 419.183 335.691C420.591 337.098 422.263 338.213 424.103 338.974C425.942 339.735 427.914 340.125 429.904 340.124H517.046C521.064 340.124 524.918 338.527 527.759 335.686C530.6 332.845 532.197 328.991 532.197 324.973V318.66H414.741Z" fill="#5E79EC"/>
<path d="M533.046 312.947H413.765C412.907 312.947 412.083 313.288 411.476 313.896C410.869 314.503 410.528 315.326 410.528 316.185V316.185C410.528 317.045 410.868 317.87 411.475 318.479C412.082 319.088 412.905 319.432 413.765 319.435H533.046C533.473 319.435 533.895 319.351 534.29 319.188C534.684 319.024 535.042 318.785 535.344 318.483C535.646 318.181 535.885 317.823 536.049 317.429C536.212 317.034 536.296 316.612 536.296 316.185V316.185C536.296 315.759 536.212 315.337 536.048 314.943C535.885 314.549 535.645 314.192 535.343 313.891C535.041 313.59 534.683 313.352 534.289 313.19C533.894 313.028 533.472 312.946 533.046 312.947V312.947Z" fill="#5E79EC"/>
<path d="M221.171 104.088C213.276 105.781 206.375 110.538 201.982 117.313C194.132 128.939 199.895 154.003 199.895 160.115C199.895 166.228 200.182 201.967 200.182 201.967H255.985C255.985 201.967 254.235 134.539 254.235 130.176C254.235 125.814 253.085 111.863 243.484 106.338C233.884 100.813 221.171 104.088 221.171 104.088Z" fill="#263238" stroke="#263238" stroke-linecap="round" stroke-linejoin="round"/>
<path d="M240.871 110.313C240.871 110.313 225.871 125.864 214.17 133.389C202.469 140.914 198.619 143.24 198.619 143.24" stroke="#666666" stroke-linecap="round" stroke-linejoin="round"/>
<path d="M232.833 105.125C232.833 105.125 216.245 129.189 200.982 138.564" stroke="#666666" stroke-linecap="round" stroke-linejoin="round"/>
<path d="M218.581 107.2C218.581 107.2 207.681 129.489 198.868 134.701" stroke="#666666" stroke-linecap="round" stroke-linejoin="round"/>
<path d="M210.019 146.865L200.944 151.277" stroke="#666666" stroke-linecap="round" stroke-linejoin="round"/>
<path d="M205.869 149.978V182.642" stroke="#666666" stroke-linecap="round" stroke-linejoin="round"/>
<path d="M212.707 502.781L210.044 511.294C210.044 511.294 199.144 518.47 198.881 519.532C198.619 520.595 198.344 522.457 198.344 522.457C198.564 522.969 198.94 523.399 199.418 523.686C199.895 523.973 200.451 524.103 201.007 524.057H228.658C228.658 524.057 229.72 517.945 229.195 515.02C228.67 512.094 227.333 507.044 227.333 507.044L227.07 502.606L212.707 502.781Z" fill="#263238" stroke="#263238" stroke-linecap="round" stroke-linejoin="round"/>
<path d="M277.584 502.344C277.584 502.344 290.347 515.107 291.148 515.369L307.398 520.957C307.398 520.957 308.198 523.082 307.136 523.62C306.073 524.157 289.047 524.145 284.522 523.882C279.997 523.62 273.884 519.632 272.022 518.882C271.014 518.42 269.928 518.148 268.821 518.082V522.607H256.046C256.046 522.607 255.521 513.857 255.783 510.369C256.167 507.688 256.973 505.085 258.171 502.656L277.584 502.344Z" fill="#263238" stroke="#263238" stroke-linecap="round" stroke-linejoin="round"/>
<path d="M291.584 405.752C291.584 403.789 280.334 307.522 280.334 307.522L243.482 283.421L196.767 304.084L198.243 320.798L205.13 411.289L206.743 481.605L205.493 497.156L204.243 504.306L205.493 512.707L229.444 513.132L229.757 501.419L235.632 405.877L243.482 333.586L258.595 406.977L255.27 508.944L285.472 509.619C285.472 509.619 286.159 509.144 286.559 502.469C286.672 500.594 283.134 491.956 283.259 489.718C284.997 460.617 291.584 407.214 291.584 405.752Z" fill="#696969" stroke="#263238" stroke-linecap="round" stroke-linejoin="round"/>
<path d="M219.244 451.954L219.307 458.092" stroke="#263238" stroke-linecap="round" stroke-linejoin="round"/>
<path d="M218.133 335.124L219.195 446.066" stroke="#263238" stroke-linecap="round" stroke-linejoin="round"/>
<path d="M277.522 335.899C277.522 335.899 289.298 401.027 289.298 402.065C289.298 403.102 288.948 411.415 288.598 416.965" stroke="#263238" stroke-linecap="round" stroke-linejoin="round"/>
<path d="M223.482 171.278L189.731 193.467L207.119 260.295L191.293 321.91L240.983 335.661L246.608 311.91L252.859 335.348L290.985 325.973L273.797 267.533L281.298 185.341L234.42 171.278C234.42 171.278 227.232 168.778 223.482 171.278Z" fill="#696969" stroke="#263238" stroke-linecap="round" stroke-linejoin="round"/>
<path d="M242.472 261.708L246.622 309.96" stroke="#263238" stroke-linecap="round" stroke-linejoin="round"/>
<path d="M238.309 271.271C239.455 271.271 240.384 270.342 240.384 269.196C240.384 268.05 239.455 267.121 238.309 267.121C237.163 267.121 236.234 268.05 236.234 269.196C236.234 270.342 237.163 271.271 238.309 271.271Z" stroke="#263238" stroke-linecap="round" stroke-linejoin="round"/>
<path d="M239.558 287.496C240.704 287.496 241.633 286.567 241.633 285.421C241.633 284.275 240.704 283.346 239.558 283.346C238.412 283.346 237.483 284.275 237.483 285.421C237.483 286.567 238.412 287.496 239.558 287.496Z" stroke="#263238" stroke-linecap="round" stroke-linejoin="round"/>
<path d="M242.883 301.697C242.886 302.111 242.765 302.516 242.537 302.862C242.308 303.207 241.982 303.476 241.6 303.636C241.218 303.796 240.798 303.838 240.392 303.758C239.985 303.678 239.612 303.479 239.32 303.186C239.027 302.893 238.828 302.52 238.748 302.114C238.667 301.708 238.71 301.287 238.869 300.905C239.029 300.523 239.298 300.197 239.644 299.969C239.989 299.74 240.394 299.62 240.808 299.622C241.359 299.622 241.886 299.841 242.276 300.23C242.665 300.619 242.883 301.147 242.883 301.697V301.697Z" stroke="#263238" stroke-linecap="round" stroke-linejoin="round"/>
<path d="M241.608 257.532L255.359 217.218L246.296 209.717L258.484 207.217C258.484 207.217 253.184 185.966 248.171 175.403L234.42 171.278C234.42 171.278 227.232 168.778 223.482 171.278L214.619 177.103C213.79 183.569 213.306 190.075 213.169 196.592C213.169 205.967 213.794 214.093 213.794 214.093L224.42 212.218L219.732 221.281L241.608 257.532Z" fill="#696969" stroke="#263238" stroke-linecap="round" stroke-linejoin="round"/>
<path d="M281.298 185.342C286.697 193.407 290.809 202.264 293.486 211.593C298.174 227.531 303.174 252.22 301.299 255.345C299.424 258.47 287.236 257.845 283.486 255.658C279.735 253.47 276.923 234.407 276.923 234.407L281.298 185.342Z" fill="#696969" stroke="#263238" stroke-linecap="round" stroke-linejoin="round"/>
<path d="M284.11 239.606L231.495 241.081L228.069 251.695C236.642 254.842 245.501 257.144 254.521 258.57C268.896 260.757 298.485 261.907 302.235 259.407C305.986 256.907 299.423 235.656 299.423 235.656" fill="#696969"/>
<path d="M284.11 239.606L231.495 241.081L228.069 251.695C236.642 254.842 245.501 257.144 254.521 258.57C268.896 260.757 298.485 261.907 302.235 259.407C305.986 256.907 299.423 235.656 299.423 235.656" stroke="#263238" stroke-linecap="round" stroke-linejoin="round"/>
<path d="M217.131 159.891C217.131 159.891 220.969 183.317 222.031 193.53C223.094 203.743 239.07 229.519 239.07 229.519L241.57 189.517L242.82 160.991C240.454 162.171 237.866 162.838 235.225 162.948C232.584 163.058 229.949 162.608 227.494 161.628C224.05 160.312 220.708 158.745 217.494 156.94L217.131 159.891Z" fill="white" stroke="#263238" stroke-linecap="round" stroke-linejoin="round"/>
<path d="M227.569 161.59C224.126 160.274 220.783 158.707 217.569 156.902L217.144 159.89C217.144 159.89 217.644 162.94 218.394 167.315C223.531 171.616 231.369 176.328 234.494 176.603C236.432 176.778 239.495 174.378 242.507 171.353L242.97 160.953C240.595 162.144 237.993 162.817 235.338 162.927C232.683 163.037 230.035 162.581 227.569 161.59Z" fill="#263238" stroke="#263238" stroke-linecap="round" stroke-linejoin="round"/>
<path d="M239.07 229.519L240.133 212.881C236.694 213.553 233.161 213.596 229.707 213.006C234.232 221.694 239.07 229.519 239.07 229.519Z" fill="#5E79EC" stroke="#263238" stroke-linecap="round" stroke-linejoin="round"/>
<path d="M242.408 121.688L210.256 144.815C210.256 144.815 211.894 155.465 213.731 159.815C215.569 164.165 229.982 173.753 234.42 174.153C238.858 174.553 249.571 161.053 251.008 158.178C252.446 155.303 249.983 132.376 249.983 132.376L242.408 121.688Z" fill="white" stroke="#263238" stroke-linecap="round" stroke-linejoin="round"/>
<path d="M235.857 148.502C235.968 149.06 235.931 149.637 235.752 150.176C235.572 150.715 235.255 151.198 234.832 151.578C233.931 152.194 232.846 152.485 231.757 152.403" stroke="#263238" stroke-linecap="round" stroke-linejoin="round"/>
<path d="M227.87 157.94C227.87 157.94 231.345 160.19 237.083 157.528" stroke="#263238" stroke-linecap="round" stroke-linejoin="round"/>
<path d="M224.082 144.402C224.814 144.402 225.407 143.35 225.407 142.052C225.407 140.754 224.814 139.702 224.082 139.702C223.35 139.702 222.757 140.754 222.757 142.052C222.757 143.35 223.35 144.402 224.082 144.402Z" fill="#263238"/>
<path d="M241.284 141.24C241.284 142.49 240.684 143.59 239.946 143.59C239.209 143.59 238.621 142.54 238.621 141.24C238.621 139.94 239.221 138.877 239.946 138.877C240.671 138.877 241.284 139.94 241.284 141.24Z" fill="#263238"/>
<path d="M223.42 147.077C227.638 147.077 231.058 144.648 231.058 141.652C231.058 138.656 227.638 136.227 223.42 136.227C219.202 136.227 215.782 138.656 215.782 141.652C215.782 144.648 219.202 147.077 223.42 147.077Z" stroke="#263238" stroke-linecap="round" stroke-linejoin="round"/>
<path d="M250.81 141.69C250.81 144.677 247.385 147.115 243.159 147.115C238.934 147.115 235.522 144.677 235.522 141.69C235.522 138.702 238.947 136.252 243.159 136.252C247.372 136.252 250.81 138.652 250.81 141.69Z" stroke="#263238" stroke-linecap="round" stroke-linejoin="round"/>
<path d="M231.07 141.689C231.07 141.689 232.733 138.514 235.521 141.689" stroke="#263238" stroke-linecap="round" stroke-linejoin="round"/>
<path d="M236.47 135.189C236.47 135.189 241.183 130.889 245.883 133.551" stroke="#263238" stroke-linecap="round" stroke-linejoin="round"/>
<path d="M195.356 190.967C195.356 190.967 182.23 194.717 179.73 200.655C177.23 206.593 179.418 238.469 183.48 250.657C187.543 262.845 190.668 274.721 195.668 274.721C200.669 274.721 214.419 264.095 213.794 255.97C213.169 247.844 203.794 214.093 203.794 212.218" fill="#696969"/>
<path d="M195.356 190.967C195.356 190.967 182.23 194.717 179.73 200.655C177.23 206.593 179.418 238.469 183.48 250.657C187.543 262.845 190.668 274.721 195.668 274.721C200.669 274.721 214.419 264.095 213.794 255.97C213.169 247.844 203.794 214.093 203.794 212.218" stroke="#263238" stroke-linecap="round" stroke-linejoin="round"/>
<path d="M193.182 231.794C193.994 229.956 195.482 227.094 195.594 226.794C195.707 226.494 198.719 225.744 200.22 225.744C201.72 225.744 208.807 228.406 208.807 228.406C208.033 226.996 207.147 225.65 206.157 224.381C205.707 224.156 200.07 222.781 199.269 222.543C198.841 222.391 198.47 222.112 198.204 221.744C197.938 221.376 197.791 220.935 197.782 220.481C197.782 219.568 199.032 220.031 199.032 220.031L209.345 220.968L220.595 237.532L234.259 240.919L229.446 251.945L218.67 246.545C215.985 246.436 213.339 245.852 210.858 244.819C207.407 243.219 205.345 239.082 204.432 238.282C203.52 237.482 194.669 236.557 194.319 236.557C193.969 236.557 192.257 237.932 192.032 237.482C192.023 235.527 192.415 233.592 193.182 231.794V231.794Z" fill="white" stroke="#263238" stroke-linecap="round" stroke-linejoin="round"/>
<path d="M194.481 229.881C194.481 229.881 198.818 229.106 199.593 229.106C201.994 229.9 204.327 230.886 206.569 232.057" fill="white"/>
<path d="M194.481 229.881C194.481 229.881 198.818 229.106 199.593 229.106C201.994 229.9 204.327 230.886 206.569 232.057" stroke="#263238" stroke-linecap="round" stroke-linejoin="round"/>
<path d="M192.456 233.756C192.456 233.756 197.581 232.506 198.356 232.506C199.131 232.506 205.794 235.006 205.794 235.006" fill="white"/>
<path d="M192.456 233.756C192.456 233.756 197.581 232.506 198.356 232.506C199.131 232.506 205.794 235.006 205.794 235.006" stroke="#263238" stroke-linecap="round" stroke-linejoin="round"/>
<path d="M204.731 246.594L270.359 230.343L281.61 213.78L291.923 212.843C291.923 212.843 293.173 212.368 293.173 213.293C293.163 213.748 293.014 214.19 292.746 214.559C292.478 214.927 292.103 215.205 291.673 215.355C290.873 215.593 285.248 216.968 284.785 217.193C283.8 218.462 282.918 219.808 282.148 221.218C282.148 221.218 289.235 218.555 290.735 218.555C292.235 218.555 295.236 219.255 295.348 219.605C295.461 219.955 296.961 222.818 297.761 224.606C298.511 226.387 298.902 228.298 298.911 230.231C298.686 230.693 296.961 229.318 296.611 229.318C296.261 229.318 287.423 230.231 286.51 231.043C285.598 231.856 283.523 235.981 280.085 237.581C277.603 238.613 274.958 239.197 272.272 239.306C272.272 239.306 212.444 269.308 212.107 269.395C211.769 269.483 201.881 275.246 197.519 275.021C193.156 274.796 192.131 272.37 190.631 269.27" fill="#696969"/>
<path d="M204.731 246.594L270.359 230.343L281.61 213.78L291.923 212.843C291.923 212.843 293.173 212.368 293.173 213.293C293.163 213.748 293.014 214.19 292.746 214.559C292.478 214.927 292.103 215.205 291.673 215.355C290.873 215.593 285.248 216.968 284.785 217.193C283.8 218.462 282.918 219.808 282.148 221.218C282.148 221.218 289.235 218.555 290.735 218.555C292.235 218.555 295.236 219.255 295.348 219.605C295.461 219.955 296.961 222.818 297.761 224.606C298.511 226.387 298.902 228.298 298.911 230.231C298.686 230.693 296.961 229.318 296.611 229.318C296.261 229.318 287.423 230.231 286.51 231.043C285.598 231.856 283.523 235.981 280.085 237.581C277.603 238.613 274.958 239.197 272.272 239.306C272.272 239.306 212.444 269.308 212.107 269.395C211.769 269.483 201.881 275.246 197.519 275.021C193.156 274.796 192.131 272.37 190.631 269.27" stroke="#263238" stroke-linecap="round" stroke-linejoin="round"/>
<path d="M297.786 224.656C296.986 222.818 295.486 219.956 295.374 219.656C295.261 219.356 292.248 218.606 290.761 218.606C289.273 218.606 282.173 221.268 282.173 221.268C282.943 219.858 283.825 218.512 284.811 217.243C285.273 217.018 290.898 215.643 291.698 215.406C292.129 215.255 292.503 214.977 292.771 214.609C293.039 214.24 293.188 213.799 293.199 213.343C293.199 212.418 291.948 212.893 291.948 212.893L281.635 213.83L270.385 230.394L256.722 233.769L261.547 244.807L272.323 239.407C275.008 239.297 277.653 238.713 280.135 237.682C283.573 236.082 285.636 231.944 286.561 231.144C287.486 230.344 296.324 229.419 296.661 229.419C296.999 229.419 298.736 230.794 298.961 230.331C298.951 228.38 298.552 226.451 297.786 224.656Z" fill="white" stroke="#263238" stroke-linecap="round" stroke-linejoin="round"/>
<path d="M296.498 222.743C296.498 222.743 292.161 221.968 291.386 221.968C288.982 222.76 286.645 223.743 284.398 224.906" fill="white"/>
<path d="M296.498 222.743C296.498 222.743 292.161 221.968 291.386 221.968C288.982 222.76 286.645 223.743 284.398 224.906" stroke="#263238" stroke-linecap="round" stroke-linejoin="round"/>
<path d="M298.487 226.619C298.487 226.619 293.374 225.369 292.599 225.369C291.824 225.369 285.099 227.869 285.099 227.869" fill="white"/>
<path d="M298.487 226.619C298.487 226.619 293.374 225.369 292.599 225.369C291.824 225.369 285.099 227.869 285.099 227.869" stroke="#263238" stroke-linecap="round" stroke-linejoin="round"/>
<path d="M254.309 241.194C254.309 241.472 254.226 241.743 254.072 241.973C253.918 242.204 253.698 242.383 253.442 242.489C253.185 242.594 252.903 242.621 252.631 242.566C252.359 242.511 252.11 242.377 251.914 242.18C251.719 241.983 251.587 241.732 251.534 241.459C251.482 241.187 251.511 240.905 251.619 240.65C251.727 240.394 251.908 240.176 252.14 240.024C252.372 239.872 252.644 239.792 252.921 239.794C253.291 239.797 253.643 239.946 253.903 240.208C254.163 240.471 254.309 240.825 254.309 241.194Z" fill="white"/>
<path d="M247.483 244.457C248.257 244.457 248.883 243.83 248.883 243.057C248.883 242.284 248.257 241.657 247.483 241.657C246.71 241.657 246.083 242.284 246.083 243.057C246.083 243.83 246.71 244.457 247.483 244.457Z" fill="white"/>
<path d="M242.057 246.32C242.831 246.32 243.457 245.693 243.457 244.92C243.457 244.146 242.831 243.52 242.057 243.52C241.284 243.52 240.657 244.146 240.657 244.92C240.657 245.693 241.284 246.32 242.057 246.32Z" fill="white"/>
<path d="M547.25 524.057H561.001" stroke="#263238" stroke-linecap="round" stroke-linejoin="round"/>
<path d="M0.561401 524.057H530.999" stroke="#263238" stroke-linecap="round" stroke-linejoin="round"/>
</svg>
