<svg width="592" height="525" viewBox="0 0 592 525" fill="none" xmlns="http://www.w3.org/2000/svg">
<g opacity="0.24">
<path d="M575.086 311.238C557.318 359.219 520.991 411.199 469.883 426.538C392.66 449.779 383.44 512.528 245.121 506.709C224.926 505.954 204.872 502.989 185.312 497.867C175.748 495.332 166.355 492.184 157.19 488.442C76.39 455.515 34.2781 382.841 30.7363 306.871C26.1202 206.91 95.2795 159.309 140.225 131.439C185.17 103.569 239.395 -4.49598 375.376 0.145063C396.151 0.785871 416.783 3.84466 436.862 9.26055C482.633 21.7438 529.161 49.3639 556.196 89.7291C558.227 92.7676 560.167 95.8696 562.017 99.035C598.178 160.844 599.323 245.811 575.086 311.238Z" fill="#5E79EC"/>
<path opacity="0.7" d="M575.086 311.238C557.318 359.219 520.991 411.199 469.883 426.538C392.66 449.779 383.44 512.528 245.121 506.709C224.926 505.954 204.872 502.989 185.312 497.867C175.748 495.332 166.355 492.184 157.19 488.442C76.39 455.515 34.2781 382.841 30.7363 306.871C26.1202 206.91 95.2795 159.309 140.225 131.439C185.17 103.569 239.395 -4.49598 375.376 0.145063C396.151 0.785871 416.783 3.84466 436.862 9.26055C482.633 21.7438 529.161 49.3639 556.196 89.7291C558.227 92.7676 560.167 95.8696 562.017 99.035C598.178 160.844 599.323 245.811 575.086 311.238Z" fill="white"/>
</g>
<path d="M527.467 100.178C528.518 94.2275 530.018 79.4119 521.092 72.1528C509.747 62.9302 501.695 79.5309 491.825 66.6193C481.955 53.7076 479.016 25.6948 449.808 26.0637C420.6 26.4326 418.286 43.0213 418.286 48.5311C418.286 54.0408 409.514 58.0512 407.66 58.0512C405.807 58.0512 395.583 53.2911 391.923 64.0012C388.263 74.7113 390.743 80.8875 384.934 81.1136C379.125 81.3397 371.947 73.3428 363.99 77.3413C356.033 81.3397 356.068 89.8126 352.786 92.8114C349.504 95.8102 344.003 90.598 336.683 93.5492C332.256 95.3342 330.91 98.2022 330.544 100.189L527.467 100.178Z" fill="white" stroke="#263238" stroke-miterlimit="10"/>
<path d="M516.701 109.614C517.22 106.604 517.987 99.1422 513.478 95.477C507.764 90.824 503.702 99.2017 498.72 92.6923C493.738 86.183 492.262 72.0456 477.469 72.236C462.677 72.4264 461.614 80.7803 461.614 83.5768C461.614 86.3734 457.187 88.4083 456.266 88.4083C455.345 88.4083 450.174 86.0283 448.332 91.3833C446.491 96.7384 447.742 99.9038 444.791 100.011C441.839 100.118 438.215 96.0958 434.224 98.1069C430.234 100.118 430.234 104.402 428.581 105.89C426.928 107.377 424.154 104.771 420.458 106.258C419.695 106.493 419.006 106.927 418.463 107.516C417.92 108.106 417.541 108.83 417.365 109.614H516.701Z" fill="white" stroke="#263238" stroke-miterlimit="10"/>
<path d="M182.604 48.531C183.111 45.663 183.784 38.5349 179.534 35.0362C174.08 30.5975 170.207 38.6063 165.45 32.3706C160.692 26.1349 159.287 12.6402 145.214 12.8306C131.141 13.021 130.067 21.006 130.067 23.6597C130.067 26.3134 125.817 28.3008 124.943 28.3008C124.07 28.3008 119.123 25.9921 117.364 31.1449C115.605 36.2976 116.797 39.2727 113.999 39.3798C111.201 39.4869 107.718 35.6431 103.917 37.559C100.115 39.475 100.103 43.5091 98.5215 44.9966C96.9395 46.4841 94.295 43.9256 90.765 45.3417C90.0383 45.5649 89.3828 45.9772 88.8647 46.5371C88.3465 47.097 87.9839 47.7848 87.8135 48.531H182.604Z" fill="white" stroke="#263238" stroke-miterlimit="10"/>
<path d="M84.7791 116.005C85.0742 114.315 85.4992 110.055 82.961 108.043C79.7379 105.414 77.4476 110.138 74.6968 106.473C71.946 102.807 71.0606 94.8224 62.7374 94.9295C54.4141 95.0366 53.7884 99.761 53.7884 101.332C53.7884 102.903 51.2856 104.057 50.7661 104.057C50.2466 104.057 47.3424 102.688 46.2916 105.735C45.2409 108.781 45.9611 110.495 44.3082 110.602C42.6554 110.709 40.6012 108.389 38.4053 109.531C36.2093 110.673 36.1503 113.101 35.2176 113.91C34.285 114.719 32.7148 113.28 30.6369 114.124C30.2067 114.254 29.8183 114.496 29.5114 114.827C29.2044 115.157 28.9899 115.563 28.8896 116.005H84.7791Z" fill="white" stroke="#263238" stroke-miterlimit="10"/>
<path d="M424.685 339.917C424.685 339.917 432.193 337.251 436.172 337.251C438.95 337.399 441.662 338.158 444.118 339.477L444.554 349.711L439.702 351.496C439.702 351.496 439.265 355.947 441.024 357.279C442.241 358.361 443.156 359.743 443.681 361.29C446.042 368.43 440.292 378.343 436.869 384.257C431.308 393.86 427.554 395.027 425.806 382.722C425.11 377.855 424.378 372.416 425.134 367.513C425.698 364.189 425.236 360.771 423.811 357.72L421.604 342.142L424.685 339.917Z" fill="#263238" stroke="#263238" stroke-miterlimit="10"/>
<path d="M308.999 291.853C308.999 291.853 329.753 361.29 331.961 368.013C333.44 372.333 335.346 376.491 337.652 380.425L425.972 361.73L424.638 339.917L362.444 341.274L365.986 287.426L308.137 288.759L308.999 291.853Z" fill="#263238" stroke="#263238" stroke-miterlimit="10"/>
<path d="M265.505 230.603C265.505 230.603 271.467 239.278 276.13 242.622C280.794 245.966 290.038 238.611 290.038 238.611L273.509 191.88C273.509 191.88 266.166 220.642 265.505 230.603Z" fill="#5E79EC" stroke="#263238" stroke-miterlimit="10"/>
<path d="M269.259 191.701L283.827 241.551C283.827 241.551 284.276 247.346 293.544 250.464C302.811 253.582 349.622 255.795 356.245 254.462C362.868 253.13 368.606 245.561 366.398 242.003C364.191 238.445 350.944 206.802 350.944 206.802L348.276 154.323C348.276 154.323 331.5 142.744 323.543 142.304C315.585 141.863 301.029 144.089 299.706 144.089C298.384 144.089 271.88 148.98 271.006 157.881C270.132 166.782 269.259 191.701 269.259 191.701Z" fill="white" stroke="#263238" stroke-miterlimit="10"/>
<path d="M290.604 172.066L282.824 186.834L278.621 167.532L281.608 155.18L303.414 139.21L309.163 138.841C311.04 140.599 312.456 142.799 313.283 145.243C314.783 149.456 314.464 153.073 314.783 154.287C315.102 155.501 308.502 187.441 308.502 187.441L290.604 172.066Z" fill="white" stroke="#263238" stroke-miterlimit="10"/>
<path d="M284.714 152.538C284.714 152.538 273.675 193.486 272.353 206.398C271.03 219.309 271.467 241.551 271.467 241.551C271.467 241.551 260.842 232.209 259.543 225.533C258.245 218.857 259.106 197.044 258.221 194.819C257.335 192.594 249.39 186.37 249.39 186.37C249.39 186.37 222.012 197.497 218.919 199.722C215.826 201.947 206.558 209.063 199.935 206.862C193.312 204.66 186.145 195.295 189.912 185.049C192.592 177.766 217.16 172.149 217.16 172.149L240.559 159.69C240.559 159.69 253.805 141.435 259.106 138.77C264.407 136.104 284.714 152.538 284.714 152.538Z" fill="#5E79EC" stroke="#263238" stroke-miterlimit="10"/>
<path d="M220.772 184.276C221.744 185.315 222.592 186.465 223.299 187.703" stroke="#263238" stroke-miterlimit="10"/>
<path d="M205.672 179.242C208.038 178.891 210.45 179.021 212.765 179.624C215.08 180.227 217.253 181.291 219.154 182.752" stroke="#263238" stroke-miterlimit="10"/>
<path d="M284.713 152.538C284.713 152.538 281.738 150.158 277.771 147.302L267.051 165.89L270.145 173.03L264.844 182.372L271.03 234.006L271.396 234.708C271.396 227.092 271.491 214.788 272.352 206.41C273.675 193.486 284.713 152.538 284.713 152.538Z" fill="#5E79EC" stroke="#263238" stroke-miterlimit="10"/>
<path d="M241.244 177.814L238.788 175.243" stroke="#263238" stroke-miterlimit="10"/>
<path d="M249.39 186.37L243.912 180.61" stroke="#263238" stroke-miterlimit="10"/>
<path d="M268.126 94.5128C268.126 94.5128 261.68 109.983 262.294 111.839C262.908 113.696 259.532 118.979 259.838 122.99C260.145 127 258.304 146.516 259.532 148.063C260.759 149.61 260.452 149.92 264.443 150.229C268.433 150.539 276.721 150.539 276.721 150.539L292.388 176.231L307.735 145.898L308.656 139.709C308.656 139.709 317.251 126.393 318.172 122.062C319.093 117.73 320.627 102.867 317.251 97.6069C313.874 92.347 305.894 85.2189 294.217 82.4342C287.185 80.7602 279.829 81.0815 272.967 83.3624C272.967 83.3624 275.422 76.865 271.432 79.3402C267.442 81.8154 265.364 92.0376 268.126 94.5128Z" fill="white" stroke="#263238" stroke-miterlimit="10"/>
<path d="M263.273 108.484C263.273 108.484 265.694 108.745 268.456 111.839" stroke="#263238" stroke-miterlimit="10"/>
<path d="M269.66 114.315L263.828 130.416L269.66 131.034" stroke="#263238" stroke-miterlimit="10"/>
<path d="M280.7 118.539C280.487 120.062 279.696 121.217 278.941 121.098C278.185 120.979 277.76 119.67 277.973 118.147C278.185 116.623 278.976 115.481 279.732 115.588C280.487 115.695 280.983 117.016 280.7 118.539Z" fill="#263238"/>
<path d="M265.965 116.04C265.776 117.563 265.021 118.73 264.253 118.635C263.486 118.539 263.073 117.23 263.226 115.695C263.38 114.16 264.171 113.006 264.926 113.101C265.682 113.196 266.154 114.505 265.965 116.04Z" fill="#263238"/>
<path d="M276.721 150.539L292.08 147.754L297.912 141.257L286.248 165.402L276.721 150.539Z" fill="#263238" stroke="#263238" stroke-miterlimit="10"/>
<path d="M273.793 112.863C273.793 112.863 280.404 109.983 286.862 112.458" stroke="#263238" stroke-miterlimit="10"/>
<path d="M262.517 135L264.481 135.786C266.462 136.578 268.631 136.777 270.723 136.359L272.517 136" stroke="#263238" stroke-miterlimit="10"/>
<path d="M276.721 122.99L282.258 123.299" stroke="#263238" stroke-miterlimit="10"/>
<path d="M264.442 120.205L261.986 119.277" stroke="#263238" stroke-miterlimit="10"/>
<path d="M318.183 122.062C319.104 117.73 320.639 102.867 317.263 97.6069C313.886 92.347 305.905 85.2189 294.229 82.4342C287.196 80.7602 279.841 81.0815 272.978 83.3624C272.978 83.3624 275.434 76.865 271.444 79.3402C267.453 81.8154 265.304 92.0376 268.067 94.5128C268.067 94.5128 273.285 100.082 276.048 100.082C278.81 100.082 287.11 98.8921 291.396 98.8921C295.681 98.8921 297.535 101.677 297.842 103.224C298.149 104.771 292.316 110.364 293.237 113.434C294.158 116.504 299.07 116.849 299.07 116.849C299.07 116.849 296 126.75 298.149 126.75C300.297 126.75 300.911 127.678 301.832 125.203C302.753 122.728 306.755 117.778 308.597 119.943C310.439 122.109 310.132 127.988 309.211 130.463C308.29 132.938 302.446 133.557 302.446 134.485C302.446 135.414 307.369 139.448 307.369 139.448L309.14 138.888C311.123 135.818 317.404 125.727 318.183 122.062Z" fill="#263238" stroke="#263238" stroke-miterlimit="10"/>
<path d="M224.703 195.652C224.703 195.652 229.036 201.519 229.981 203.042C230.634 204.33 230.765 205.823 230.347 207.207C230.158 207.969 223.393 211.384 221.516 212.146C219.639 212.907 219.816 207.969 221.138 206.648C222.46 205.327 223.582 201.519 223.582 201.519C223.582 201.519 222.637 196.402 222.637 195.271C222.637 194.141 224.703 195.652 224.703 195.652Z" fill="white" stroke="#263238" stroke-miterlimit="10"/>
<path d="M220.69 188.595C220.69 188.595 201.706 197.496 201.706 200.162C201.706 202.828 202.58 208.623 205.248 210.396C207.916 212.169 225.554 206.826 226.44 204.172C227.325 201.519 223.335 188.143 220.69 188.595Z" fill="white" stroke="#263238" stroke-miterlimit="10"/>
<path d="M216.05 191.332C216.05 191.332 220.937 200.055 222.059 206.505" stroke="#263238" stroke-miterlimit="10"/>
<path d="M210.041 194.319C210.041 194.319 214.929 203.232 216.251 208.599" stroke="#263238" stroke-miterlimit="10"/>
<path d="M204.586 197.354L210.04 209.861" stroke="#263238" stroke-miterlimit="10"/>
<path d="M444.339 251.672L412.624 259.613L417.414 279.05L449.129 271.109L444.339 251.672Z" stroke="#263238" stroke-width="3" stroke-miterlimit="10"/>
<path d="M476.766 256.589L384.263 278.356C380.459 279.251 378.096 283.084 378.984 286.918L391.912 342.74C392.8 346.574 396.603 348.956 400.406 348.061L492.91 326.294C496.713 325.399 499.077 321.566 498.189 317.732L485.261 261.91C484.373 258.077 480.57 255.694 476.766 256.589Z" fill="#A6A6A6" stroke="#263238" stroke-miterlimit="10"/>
<path d="M423.363 242.003L418.511 255.795L423.363 268.267L431.308 267.814L432.194 264.697L441.473 257.58L437.495 239.337L423.363 242.003Z" fill="white" stroke="#263238" stroke-miterlimit="10"/>
<path d="M418.062 236.219L421.603 245.121L437.494 239.337L434.401 231.317L418.062 236.219Z" fill="white" stroke="#263238" stroke-miterlimit="10"/>
<path d="M455.935 515.063H207.242V523.464H455.935V515.063Z" fill="white" stroke="#263238" stroke-miterlimit="10"/>
<path d="M366.175 334.634H359.445V520.835H366.175V334.634Z" fill="white" stroke="#263238" stroke-miterlimit="10"/>
<path d="M384.285 310.095H103.244V335.11H384.285V310.095Z" fill="white" stroke="#263238" stroke-miterlimit="10"/>
<path d="M379.173 310.095H98.1318V335.11H379.173V310.095Z" fill="white" stroke="#263238" stroke-miterlimit="10"/>
<path d="M215.825 310.095H199.935V335.11H215.825V310.095Z" fill="#5E79EC" stroke="#263238" stroke-miterlimit="10"/>
<path d="M149.594 310.095H133.703V335.11H149.594V310.095Z" fill="#5E79EC" stroke="#263238" stroke-miterlimit="10"/>
<path d="M282.057 310.095H266.166V335.11H282.057V310.095Z" fill="#5E79EC" stroke="#263238" stroke-miterlimit="10"/>
<path d="M348.288 310.095H332.397V335.11H348.288V310.095Z" fill="#5E79EC" stroke="#263238" stroke-miterlimit="10"/>
<path d="M369.776 338.001H355.856L357.25 319.747H368.383L369.776 338.001Z" fill="#263238" stroke="#263238" stroke-miterlimit="10"/>
<path d="M125.215 334.634H118.485V520.835H125.215V334.634Z" fill="white" stroke="#263238" stroke-miterlimit="10"/>
<path d="M366.659 515.063H117.966V523.464H366.659V515.063Z" fill="white" stroke="#263238" stroke-miterlimit="10"/>
<path d="M128.816 338.001H114.896L116.29 319.747H127.423L128.816 338.001Z" fill="#263238" stroke="#263238" stroke-miterlimit="10"/>
<path d="M198.341 334.36L194.799 340.143C194.799 340.143 151.967 331.242 152.404 335.693C152.841 340.143 171.836 353.543 178.896 358.386C183.08 361.301 187.513 363.833 192.143 365.955L190.82 368.18L201.446 375.32C201.446 375.32 208.529 368.644 210.713 363.301C212.897 357.958 212.484 346.831 212.484 346.831L198.341 334.36Z" fill="#263238" stroke="#263238" stroke-miterlimit="10"/>
<path d="M367.284 251.797L343.436 251.345C343.436 251.345 301.49 242.443 282.045 238.445C262.601 234.446 247.159 233.542 244.951 235.767C242.743 237.993 195.271 336.133 195.271 336.133L215.141 351.27L266.816 274.716C266.816 274.716 315.22 302.979 337.651 302.979C360.083 302.979 368.123 297.196 373.86 283.392C379.598 269.588 375.631 255.355 375.631 255.355L367.284 251.797Z" fill="#263238" stroke="#263238" stroke-miterlimit="10"/>
<path d="M312.528 140.519C312.528 140.519 319.612 202.399 322.245 213.966C324.877 225.533 329.328 232.65 331.075 233.994C332.823 235.339 372.148 254.462 372.148 254.462C372.148 254.462 357.981 220.19 358.902 217.965C359.823 215.739 359.339 182.8 359.339 182.8L395.501 187.762L416.256 239.385L436.125 232.245L415.736 168.579C415.075 166.504 413.951 164.609 412.451 163.04C410.951 161.47 409.115 160.267 407.082 159.523L362.822 143.232L353.153 137.377C350.837 135.981 348.116 135.426 345.443 135.806L312.528 140.519Z" fill="#5E79EC" stroke="#263238" stroke-miterlimit="10"/>
<path d="M345.738 180.229L359.339 182.8L347.415 185.311" stroke="#263238" stroke-miterlimit="10"/>
<path d="M352.444 139.674C351.206 141.428 350.344 143.422 349.911 145.53C349.478 147.638 349.484 149.814 349.929 151.919C351.606 158.69 351.606 148.123 356.222 143.47" stroke="#263238" stroke-miterlimit="10"/>
<path d="M320.037 172.566L331.075 165.426L323.012 138.972L312.528 140.471C312.528 140.471 319.612 202.352 322.245 213.919C324.877 225.486 329.328 232.602 331.075 233.946L331.961 177.421L320.037 172.566Z" fill="#5E79EC" stroke="#263238" stroke-miterlimit="10"/>
<path d="M334.169 236.66C334.169 236.66 400.4 240.67 404.379 240.67C408.358 240.67 406.587 245.121 404.379 253.13C402.171 261.138 394.663 270.492 394.663 270.492L334.169 236.66Z" fill="#5E79EC" stroke="#263238" stroke-miterlimit="10"/>
<path d="M378.016 205.089C378.016 205.089 347.096 209.182 336.27 210.944C325.444 212.705 308.172 203.708 305.456 200.4C303.116 197.236 300.998 193.912 299.116 190.452L301.619 181.503L290.604 172.066L286.803 179.289L295.185 190.452C295.185 190.452 297.912 207.933 311.194 217.274C324.476 226.616 327.51 228.425 344.121 224.51C360.732 220.595 382.844 221.666 382.844 221.666L389.184 210.813L378.016 205.089Z" fill="#263238" stroke="#263238" stroke-miterlimit="10"/>
<path d="M202.465 141.73C224.422 132.208 234.564 106.547 225.117 84.4144C215.669 62.2822 190.211 52.06 168.254 61.5825C146.297 71.105 136.156 96.7662 145.603 118.898C155.05 141.031 180.508 151.253 202.465 141.73Z" fill="white" stroke="#263238" stroke-miterlimit="10"/>
<path d="M168.209 116.477H190.437" stroke="#263238" stroke-width="4" stroke-linecap="round" stroke-linejoin="round"/>
<path d="M176.292 124.56V80.1038H191.447C194.931 80.1038 198.272 81.4876 200.735 83.9509C203.198 86.4141 204.582 89.7551 204.582 93.2386C204.582 96.7222 203.198 100.063 200.735 102.526C198.272 104.99 194.931 106.374 191.447 106.374H168.209" stroke="#263238" stroke-width="4" stroke-linecap="round" stroke-linejoin="round"/>
<path d="M240.382 104.093C240.284 104.87 239.966 105.602 239.466 106.201C238.966 106.8 238.305 107.241 237.562 107.471C236.819 107.701 236.026 107.71 235.278 107.497C234.531 107.284 233.86 106.858 233.346 106.27C232.833 105.683 232.498 104.958 232.383 104.183C232.268 103.409 232.378 102.617 232.698 101.903C233.018 101.19 233.536 100.584 234.189 100.16C234.842 99.7357 235.603 99.5103 236.38 99.511C237.513 99.5844 238.571 100.108 239.321 100.967C240.072 101.826 240.453 102.95 240.382 104.093Z" fill="white" stroke="#263238" stroke-miterlimit="10"/>
<path d="M249.472 106.246C249.422 106.873 249.192 107.471 248.81 107.968C248.428 108.465 247.91 108.839 247.321 109.044C246.731 109.249 246.095 109.277 245.491 109.124C244.886 108.971 244.338 108.644 243.915 108.183C243.491 107.721 243.21 107.146 243.106 106.526C243.001 105.906 243.078 105.269 243.327 104.693C243.576 104.117 243.986 103.626 244.507 103.28C245.028 102.935 245.638 102.75 246.261 102.748C247.147 102.785 247.981 103.174 248.583 103.829C249.185 104.485 249.504 105.354 249.472 106.246V106.246Z" fill="white" stroke="#263238" stroke-miterlimit="10"/>
<path d="M511.198 523.941H547.797" stroke="#263238" stroke-miterlimit="10"/>
<path d="M0 523.941H500.573" stroke="#263238" stroke-miterlimit="10"/>
</svg>
