<svg width="561" height="524" viewBox="0 0 561 524" fill="none" xmlns="http://www.w3.org/2000/svg">
<g opacity="0.24">
<path d="M473.684 39.9835C473.684 39.9835 415.91 -12.9844 334.422 3.0093C252.934 19.003 214.586 83.4668 165.374 126.168C139.602 148.517 103.499 154.929 73.6549 171.439C-21.8198 224.254 -18.1216 358.224 48.3437 413.399C105.902 461.101 181.605 470.948 282.893 445.805C384.181 420.662 456.374 406.373 524.508 318.875C592.643 231.377 544.423 111.334 473.684 39.9835Z" fill="#5E79EC"/>
<path opacity="0.7" d="M473.684 39.9835C473.684 39.9835 415.91 -12.9844 334.422 3.0093C252.934 19.003 214.586 83.4668 165.374 126.168C139.602 148.517 103.499 154.929 73.6549 171.439C-21.8198 224.254 -18.1216 358.224 48.3437 413.399C105.902 461.101 181.605 470.948 282.893 445.805C384.181 420.662 456.374 406.373 524.508 318.875C592.643 231.377 544.423 111.334 473.684 39.9835Z" fill="white"/>
</g>
<path d="M364.741 175.378H356.15L353.546 176.929V179.82L356.15 181.357H364.741L367.345 179.82V176.929L364.741 175.378Z" fill="#949494" stroke="#263238" stroke-width="0.888592" stroke-linecap="round" stroke-linejoin="round"/>
<path d="M367.345 176.929H353.546V179.82H367.345V176.929Z" fill="#6E6E6E" stroke="#263238" stroke-width="0.888592" stroke-linecap="round" stroke-linejoin="round"/>
<path d="M365.662 181.273H354.941V182.81H365.662V181.273Z" fill="white" stroke="#263238" stroke-width="0.888592" stroke-linecap="round" stroke-linejoin="round"/>
<path d="M364.741 182.893H355.877V199.097H364.741V182.893Z" fill="white" stroke="#263238" stroke-width="0.888592" stroke-linecap="round" stroke-linejoin="round"/>
<path d="M376.497 238.795C376.41 238.577 376.38 238.342 376.411 238.11C376.727 235.023 379.058 212.436 378.799 210.579C378.54 208.721 375.432 207.869 370.871 205.508C368.26 204.276 366.25 202.1 365.273 199.446L363.59 198.719H356.827L355.129 199.446C354.152 202.1 352.142 204.276 349.531 205.508C344.97 207.869 341.89 208.581 341.602 210.579C341.315 212.576 343.674 235.023 343.991 238.11C344.022 238.342 343.992 238.577 343.905 238.795L343.185 240.792C343.079 241.092 343.068 241.415 343.152 241.722C343.237 242.028 343.414 242.302 343.66 242.51V242.51C343.956 242.76 344.333 242.899 344.725 242.901H375.677C376.069 242.899 376.446 242.76 376.742 242.51C376.988 242.302 377.165 242.028 377.249 241.722C377.334 241.415 377.322 241.092 377.217 240.792L376.497 238.795Z" fill="#666666" stroke="#263238" stroke-width="0.888592" stroke-linecap="round" stroke-linejoin="round"/>
<path d="M371.835 210.551H348.51C348.374 210.551 348.239 210.577 348.113 210.627C347.987 210.678 347.873 210.752 347.777 210.845C347.681 210.939 347.605 211.05 347.553 211.172C347.5 211.294 347.474 211.424 347.474 211.557V220.734C347.474 220.866 347.5 220.997 347.553 221.119C347.605 221.241 347.681 221.351 347.777 221.445C347.873 221.538 347.987 221.612 348.113 221.663C348.239 221.713 348.374 221.739 348.51 221.739H353.316C353.905 223.035 354.869 224.137 356.092 224.911C357.314 225.684 358.742 226.096 360.201 226.096C361.66 226.096 363.088 225.684 364.311 224.911C365.533 224.137 366.498 223.035 367.087 221.739H371.835C372.11 221.739 372.373 221.633 372.568 221.445C372.762 221.256 372.871 221 372.871 220.734V211.557C372.871 211.29 372.762 211.034 372.568 210.845C372.373 210.657 372.11 210.551 371.835 210.551Z" fill="white" stroke="#263238" stroke-width="0.888592" stroke-linecap="round" stroke-linejoin="round"/>
<path d="M365.662 190.143H354.941V191.68H355.431C355.006 193.894 354.981 196.162 355.359 198.384H354.941V199.921H365.662V198.384H365.273C365.738 196.172 365.738 193.892 365.273 191.68H365.69L365.662 190.143Z" fill="white" stroke="#263238" stroke-width="0.888592" stroke-linecap="round" stroke-linejoin="round"/>
<path d="M343.573 241.882H323.917L319.701 218.764H347.79L343.573 241.882Z" fill="white" stroke="#263238" stroke-linecap="round" stroke-linejoin="round"/>
<path opacity="0.4" d="M341.559 239.507H325.932L322.579 226.475H344.912L341.559 239.507Z" fill="#666666"/>
<path d="M121.644 201.262L102.88 175.406L122.248 195.968L116.795 173.646L123.457 185.394L112.564 141.338L128.896 181.874L118.003 116.67L130.709 162.486L131.932 134.284L137.976 157.206L147.056 116.67L144.034 174.82L152.495 156.032L149.473 180.114L159.762 166.006L147.66 191.274L160.97 181.287L146.451 204.195L121.04 204.782L121.644 201.262Z" fill="#5E79EC" stroke="#919191" stroke-miterlimit="10"/>
<path d="M148.034 242.58H123.601L115.456 198.385H156.178L148.034 242.58Z" fill="#666666" stroke="#263238" stroke-linecap="round" stroke-linejoin="round"/>
<path d="M533.156 460.989H544.884" stroke="#263238" stroke-linecap="round" stroke-linejoin="round"/>
<path d="M9.59277 460.989H518.249" stroke="#263238" stroke-linecap="round" stroke-linejoin="round"/>
<path d="M9.59277 436.698H538.596" stroke="#263238" stroke-linecap="round" stroke-linejoin="round"/>
<path d="M407.967 250.081H116.981V460.444H407.967V250.081Z" fill="white" stroke="#263238" stroke-linecap="round" stroke-linejoin="round"/>
<path d="M359.259 279.415H165.705V431.111H359.259V279.415Z" fill="white" stroke="#263238" stroke-linecap="round" stroke-linejoin="round"/>
<path d="M336.236 297.014H188.729V413.51H336.236V297.014Z" fill="#263238" stroke="#263238" stroke-linecap="round" stroke-linejoin="round"/>
<path d="M329.673 302.602H195.304V407.923H329.673V302.602Z" fill="#9C9C9C"/>
<path d="M199.851 379.511C200.073 374.746 202.067 370.22 205.463 366.772C211.089 361.325 221.205 363.867 227.954 359.495C234.703 355.123 234.688 346.77 234.688 346.77C234.688 346.77 236.573 349.675 239.192 352.958C240.794 355.07 241.707 357.6 241.811 360.221C241.811 360.221 252.675 359.858 252.301 346.407C251.927 332.955 249.682 325.314 254.186 321.264L258.676 317.269C258.676 317.269 256.805 326.362 259.424 331.083C262.043 335.805 269.497 335.092 280.778 342.006C292.059 348.921 291.642 358 291.642 358C292.488 355.156 293.492 352.358 294.649 349.619C296.088 346.351 296.088 340.163 296.088 340.163C296.088 340.163 297.527 347.803 303.959 351.812C310.392 355.821 315.198 357.986 315.572 363.085C315.946 368.183 315.946 370.362 315.946 370.362L320.076 361.632C320.076 361.632 320.45 360.906 324.191 365.264C327.932 369.622 331.372 381.271 331.372 381.271V408.915H193.477V390.421C193.477 390.421 193.477 379.875 199.851 379.511Z" fill="#5E79EC"/>
<path opacity="0.5" d="M199.851 379.511C200.073 374.746 202.067 370.22 205.463 366.772C211.089 361.325 221.205 363.867 227.954 359.495C234.703 355.123 234.688 346.77 234.688 346.77C234.688 346.77 236.573 349.675 239.192 352.958C240.794 355.07 241.707 357.6 241.811 360.221C241.811 360.221 252.675 359.858 252.301 346.407C251.927 332.955 249.682 325.314 254.186 321.264L258.676 317.269C258.676 317.269 256.805 326.362 259.424 331.083C262.043 335.805 269.497 335.092 280.778 342.006C292.059 348.921 291.642 358 291.642 358C292.488 355.156 293.492 352.358 294.649 349.619C296.088 346.351 296.088 340.163 296.088 340.163C296.088 340.163 297.527 347.803 303.959 351.812C310.392 355.821 315.198 357.986 315.572 363.085C315.946 368.183 315.946 370.362 315.946 370.362L320.076 361.632C320.076 361.632 320.45 360.906 324.191 365.264C327.932 369.622 331.372 381.271 331.372 381.271V408.915H193.477V390.421C193.477 390.421 193.477 379.875 199.851 379.511Z" fill="white"/>
<path d="M215.204 381.272C215.204 381.272 264.675 361.632 269.539 360.906C274.403 360.179 276.734 363.085 277.036 364.901C277.338 366.717 277.41 370.725 275.597 371.089C273.784 371.452 233.997 383.814 233.997 383.814" stroke="#263238" stroke-miterlimit="10"/>
<path d="M276.288 372.96L308.132 381.327" stroke="#263238" stroke-miterlimit="10"/>
<path d="M260.172 376.955L296.146 385.686" stroke="#263238" stroke-miterlimit="10"/>
<path d="M329.673 302.602H195.304V407.923H329.673V302.602Z" stroke="#263238" stroke-linecap="round" stroke-linejoin="round"/>
<path d="M329.673 302.602H195.304V315.174H329.673V302.602Z" fill="#263238" stroke="#263238" stroke-linecap="round" stroke-linejoin="round"/>
<path d="M419.68 246.687H105.283V253.461H419.68V246.687Z" fill="white" stroke="#263238" stroke-linecap="round" stroke-linejoin="round"/>
<path d="M426.17 242.077H98.793V248.279H426.17V242.077Z" fill="white" stroke="#263238" stroke-linecap="round" stroke-linejoin="round"/>
<path d="M105.283 466.758L419.68 466.758V459.983L105.283 459.983V466.758Z" fill="white" stroke="#263238" stroke-linecap="round" stroke-linejoin="round"/>
<path d="M98.7934 471.367L426.17 471.367V465.165L98.7934 465.165V471.367Z" fill="white" stroke="#263238" stroke-linecap="round" stroke-linejoin="round"/>
<path d="M329.673 387.557H195.304V394.541H329.673V387.557Z" fill="#263238" stroke="#263238" stroke-linecap="round" stroke-linejoin="round"/>
<path d="M211.046 382.668H203.132V400.129H211.046V382.668Z" fill="#263238" stroke="#263238" stroke-linecap="round" stroke-linejoin="round"/>
<path d="M247.985 382.668H240.07V400.129H247.985V382.668Z" fill="#263238" stroke="#263238" stroke-linecap="round" stroke-linejoin="round"/>
<path d="M284.908 382.668H276.994V400.129H284.908V382.668Z" fill="#263238" stroke="#263238" stroke-linecap="round" stroke-linejoin="round"/>
<path d="M321.846 382.668H313.932V400.129H321.846V382.668Z" fill="#263238" stroke="#263238" stroke-linecap="round" stroke-linejoin="round"/>
<path d="M366.438 524C471.07 524 555.891 513.062 555.891 499.57C555.891 486.077 471.07 475.139 366.438 475.139C261.806 475.139 176.985 486.077 176.985 499.57C176.985 513.062 261.806 524 366.438 524Z" fill="#5E79EC"/>
<path opacity="0.5" d="M366.438 524C471.07 524 555.891 513.062 555.891 499.57C555.891 486.077 471.07 475.139 366.438 475.139C261.806 475.139 176.985 486.077 176.985 499.57C176.985 513.062 261.806 524 366.438 524Z" fill="white"/>
<path d="M384.454 479.399C384.454 479.399 304.535 490.937 303.312 491.538C302.088 492.138 299.657 493.605 300.563 494.792C301.47 495.98 313.989 494.792 313.989 494.792L318.305 493.018L379.317 490.35L353.416 516.709C353.416 516.709 351.589 519.377 352.495 520.257C353.402 521.137 357.071 521.737 357.69 520.857C358.308 519.977 359.819 517.295 359.819 517.295L393.678 492.152L454.704 501.329C454.704 501.329 454.085 502.517 456.229 503.117C458.373 503.718 466.906 506.665 467.209 504.891C467.511 503.117 467.208 500.701 464.762 500.156C462.316 499.611 390.541 479.986 390.541 479.986L384.454 479.399Z" fill="#263238" stroke="#263238" stroke-linecap="round" stroke-linejoin="round"/>
<path d="M388.498 457.776H387.117C383.962 457.776 381.404 460.259 381.404 463.322V477.988C381.404 481.051 383.962 483.534 387.117 483.534H388.498C391.653 483.534 394.211 481.051 394.211 477.988V463.322C394.211 460.259 391.653 457.776 388.498 457.776Z" fill="#263238" stroke="#263238" stroke-linecap="round" stroke-linejoin="round"/>
<path d="M378.051 434.351H397.88V461.827C397.88 463.413 397.231 464.933 396.076 466.054C394.921 467.176 393.354 467.805 391.721 467.805H384.224C382.59 467.805 381.024 467.176 379.869 466.054C378.714 464.933 378.065 463.413 378.065 461.827V434.351H378.051Z" fill="#263238" stroke="#263238" stroke-linecap="round" stroke-linejoin="round"/>
<path d="M473.843 392.628C470.735 397.531 469.094 403.188 466.058 408.188C459.818 418.474 450.863 426.956 440.117 432.759C429.371 438.561 417.224 441.474 404.931 441.196C381.131 440.888 365.576 437.005 348.495 430.23C331.415 423.456 317.673 415.717 311.888 407.434C306.104 399.151 285.311 378.478 275.555 367.457C265.799 356.436 266.705 354.718 259.726 352.343C252.747 349.968 256.071 342.286 265.223 336.056C274.375 329.826 285.052 334.575 289.93 340.247C294.808 345.918 308.852 352.692 327.76 362.749C346.668 372.807 369.864 375.195 384.498 370.753C399.132 366.311 404.025 351.798 404.341 336.699C404.658 321.599 399.751 307.365 385.419 288.717C371.087 270.07 358.885 259.104 361.935 244.899C364.986 230.693 385.721 205.787 394.571 208.176C403.42 210.565 415.925 230.972 450.402 238.906C484.88 246.84 511.716 245.122 514.162 243.097C516.608 241.071 531.243 217.046 540.394 212.897C549.546 208.749 559 216.739 558.396 222.968C557.791 229.198 525.703 292.531 521.487 303.482C517.27 314.433 478.764 384.931 478.764 384.931L473.843 392.628Z" fill="#5E79EC"/>
<path opacity="0.2" d="M474.001 392.446C460.446 391.245 447.251 380.727 426.717 380.084C402.643 379.33 382.455 418.525 350.625 418.525C337.349 418.653 324.287 415.273 312.838 408.747C319.083 416.57 332.264 423.833 348.495 430.3C365.576 437.117 381.131 440.958 404.931 441.266C417.229 441.549 429.382 438.639 440.133 432.836C450.885 427.033 459.844 418.548 466.087 408.258C469.123 403.258 470.763 397.601 473.871 392.698L474.001 392.446Z" fill="black"/>
<path opacity="0.2" d="M515.198 291.134C515.198 291.134 553.244 217.284 555.575 216.529C557.906 215.775 561 218.792 561 224.058C561 229.324 521.486 303.482 521.486 303.482L515.198 291.134Z" fill="black"/>
<path d="M473.843 392.628C470.735 397.531 469.094 403.188 466.058 408.188C459.818 418.474 450.863 426.956 440.117 432.759C429.371 438.561 417.224 441.474 404.931 441.196C381.131 440.888 365.576 437.005 348.495 430.23C331.415 423.456 317.673 415.717 311.888 407.434C306.104 399.151 285.311 378.478 275.555 367.457C265.799 356.436 266.705 354.718 259.726 352.343C252.747 349.968 256.071 342.286 265.223 336.056C274.375 329.826 285.052 334.575 289.93 340.247C294.808 345.918 308.852 352.692 327.76 362.749C346.668 372.807 369.864 375.195 384.498 370.753C399.132 366.311 404.025 351.798 404.341 336.699C404.658 321.599 399.751 307.365 385.419 288.717C371.087 270.07 358.885 259.104 361.935 244.899C364.986 230.693 385.721 205.787 394.571 208.176C403.42 210.565 415.925 230.972 450.402 238.906C484.88 246.84 511.716 245.122 514.162 243.097C516.608 241.071 531.243 217.046 540.394 212.897C549.546 208.749 559 216.739 558.396 222.968C557.791 229.198 525.703 292.531 521.487 303.482C517.27 314.433 478.764 384.931 478.764 384.931L473.843 392.628Z" stroke="#263238" stroke-linecap="round" stroke-linejoin="round"/>
<path d="M514.119 243.069C514.119 243.069 500.391 267.36 499.729 269.721Z" fill="white"/>
<path d="M514.119 243.069C514.119 243.069 500.391 267.36 499.729 269.721" stroke="#263238" stroke-linecap="round" stroke-linejoin="round"/>
<path d="M341.142 297.112C341.142 297.112 339.458 297.112 334.738 295.199C330.018 293.285 327.256 291.19 323.227 291.008C319.198 290.827 308.736 299.291 308.736 303.887C308.736 308.483 324.435 308.622 329.788 308.776C335.141 308.93 341.228 309.363 342.437 308.93C343.645 308.497 343.516 297.755 342.595 297.378C342.15 297.146 341.643 297.053 341.142 297.112Z" fill="white" stroke="#263238" stroke-linecap="round" stroke-linejoin="round"/>
<path d="M346.782 296.065L339.918 296.666C340.843 299.892 341.255 303.236 341.142 306.583C341.116 310.636 340.55 314.67 339.458 318.582L348.61 318.428C348.61 318.428 352.927 308.064 352.927 303.762C352.927 299.459 346.782 296.065 346.782 296.065Z" fill="white" stroke="#263238" stroke-linecap="round" stroke-linejoin="round"/>
<path d="M420.918 256.395C420.918 256.395 405.363 275.643 400.024 282.306C394.686 288.969 383.85 293.117 382.627 293.564C381.404 294.011 346.783 296.079 346.783 296.079C348.488 299.425 349.125 303.19 348.61 306.89C347.848 313.413 346.322 320.216 346.322 320.216C346.322 320.216 354.265 320.817 367.374 318.149C380.483 315.481 387.966 317.702 395.592 311.164C403.219 304.627 417.407 270.74 420.155 264.818C422.903 258.895 424.27 255.221 420.918 256.395Z" fill="#263238" stroke="#263238" stroke-linecap="round" stroke-linejoin="round"/>
<path d="M238.329 453.627C238.329 453.627 229.479 461.031 220.327 468.727C211.176 476.424 192.268 482.36 181.893 484.428C171.518 486.495 159.934 487.389 159.014 489.163C158.093 490.937 157.186 493.605 165.115 495.686C173.856 498.006 182.718 499.871 191.663 501.273C199.894 502.461 203.866 501.874 207.823 500.687C210.823 499.871 213.882 499.278 216.975 498.913L216.068 503.103C216.068 503.103 220.385 503.983 231.897 503.69C243.408 503.397 246.545 503.103 247.725 501.315C248.495 500.044 248.912 498.6 248.934 497.125C248.934 497.125 254.431 485.573 253.826 480.237C253.576 477.348 252.745 474.533 251.38 471.954L258.157 461.031L238.329 453.627Z" fill="white" stroke="#263238" stroke-linecap="round" stroke-linejoin="round"/>
<path d="M253.841 480.279C253.575 477.664 252.875 475.107 251.768 472.708C245.4 473.964 238.954 474.813 232.472 475.251C232.472 475.251 236.141 469.663 233.695 465.766C231.249 461.869 225.162 464.886 225.162 464.886H224.788L220.27 468.672C211.118 476.382 192.21 482.305 181.835 484.372C171.46 486.439 159.877 487.333 158.956 489.107C158.035 490.881 157.128 493.549 165.057 495.63C173.798 497.95 182.66 499.815 191.606 501.218C199.837 502.405 203.808 501.818 207.765 500.631C210.765 499.815 213.824 499.222 216.917 498.857L216.01 503.048C216.01 503.048 220.327 503.928 231.839 503.634C243.351 503.341 246.488 503.048 247.667 501.26C248.438 499.988 248.854 498.544 248.876 497.069C248.876 497.069 254.502 485.615 253.841 480.279Z" fill="#263238" stroke="#263238" stroke-linecap="round" stroke-linejoin="round"/>
<path d="M160.539 491.244C171.634 495.877 183.546 498.39 195.621 498.647C214.226 498.647 212.399 497.46 219.119 497.46C225.839 497.46 238.948 499.234 246.258 496.273" stroke="white" stroke-linecap="round" stroke-linejoin="round"/>
<path d="M289.886 340.205C289.886 340.205 286.231 338.431 282.879 347.315C279.526 356.199 243.768 419.866 238.012 429.043C233.262 436.158 228.068 442.982 222.457 449.479C222.457 449.479 233.436 458.363 241.667 462.805C247.074 465.661 252.686 468.135 258.46 470.208C258.46 470.208 278.605 434.673 288.347 416.025C298.088 397.377 316.421 366.27 316.421 366.27C316.421 366.27 320.997 357.092 308.794 348.209C296.592 339.325 289.886 340.205 289.886 340.205Z" fill="#263238" stroke="#263238" stroke-linecap="round" stroke-linejoin="round"/>
<path d="M398.499 360.934C398.499 360.934 386.296 359.16 371.95 344.06C357.604 328.96 352.121 325.259 352.121 325.259C352.121 325.259 339.919 310.299 328.019 304.376C316.118 298.453 302.707 299.333 295.081 316.808C287.455 334.282 267.928 392.921 265.784 404.18C263.64 415.438 261.827 422.534 262.733 424.601C263.64 426.669 275.252 429.937 283.483 432.312C291.714 434.686 291.714 433.792 293.556 430.831C295.398 427.87 316.737 374.86 316.737 374.86C316.737 374.86 331.99 398.257 356.093 402.992C380.195 407.728 393.304 404.18 407.348 398.257C421.392 392.334 435.408 382.892 431.81 372.485C428.213 362.079 398.499 360.934 398.499 360.934Z" fill="#263238" stroke="#263238" stroke-linecap="round" stroke-linejoin="round"/>
<path d="M274.634 406.247C274.634 406.247 293.239 369.524 297.815 350.863" stroke="white" stroke-linecap="round" stroke-linejoin="round"/>
<path d="M316.737 374.86C316.737 374.86 330.767 329.547 331.688 322.73" stroke="white" stroke-linecap="round" stroke-linejoin="round"/>
<path d="M326.493 343.767C326.493 343.767 365.849 354.131 389.03 361.227" stroke="white" stroke-linecap="round" stroke-linejoin="round"/>
<path d="M357.92 335.33C357.92 335.33 391.016 365.432 403.736 370.251" stroke="white" stroke-linecap="round" stroke-linejoin="round"/>
<path d="M469.885 263.365L468.978 263.267C464.374 262.764 443.509 260.474 436.472 258.616C428.544 256.548 423.205 253.88 420.917 256.395C418.629 258.909 389.793 314.894 389.649 317.702C389.505 320.509 396.973 331.475 396.211 334.282C395.448 337.09 389.491 341.266 389.016 343.613C388.849 344.729 388.545 345.822 388.109 346.868C387.951 347.315 387.649 348.642 387.649 348.642C387.649 348.642 370.568 337.984 362.323 332.215C354.078 326.446 351.502 324.812 352.107 325.231C352.711 325.65 359.733 340.917 374.079 350.248C388.426 359.579 394.671 362.987 404.729 367.01C414.787 371.033 439.969 380.475 443.02 380.978C446.07 381.481 452.776 383.94 461.021 377.137C469.266 370.334 524.018 296.121 523.86 293.774C523.702 291.427 496.405 272.444 491.066 270.377C485.728 268.31 469.482 263.393 469.482 263.393" fill="#263238"/>
<path d="M469.885 263.365L468.978 263.267C464.374 262.764 443.509 260.474 436.472 258.616C428.544 256.548 423.205 253.88 420.917 256.395C418.629 258.909 389.793 314.894 389.649 317.702C389.505 320.509 396.973 331.475 396.211 334.282C395.448 337.09 389.491 341.266 389.016 343.613C388.849 344.729 388.545 345.822 388.109 346.868C387.951 347.315 387.649 348.642 387.649 348.642C387.649 348.642 370.568 337.984 362.323 332.215C354.078 326.446 351.502 324.812 352.107 325.231C352.711 325.65 359.733 340.917 374.079 350.248C388.426 359.579 394.671 362.987 404.729 367.01C414.787 371.033 439.969 380.475 443.02 380.978C446.07 381.481 452.776 383.94 461.021 377.137C469.266 370.334 524.018 296.121 523.86 293.774C523.702 291.427 496.405 272.444 491.066 270.377C485.728 268.31 469.482 263.393 469.482 263.393" stroke="#263238" stroke-linecap="round" stroke-linejoin="round"/>
<path d="M413.449 345.834C413.633 346.485 413.601 347.175 413.36 347.808C413.118 348.441 412.678 348.984 412.101 349.361C411.525 349.738 410.841 349.931 410.147 349.911C409.452 349.892 408.781 349.661 408.228 349.252C407.675 348.843 407.268 348.276 407.065 347.631C406.861 346.985 406.871 346.294 407.093 345.655C407.315 345.015 407.738 344.46 408.303 344.066C408.867 343.672 409.545 343.46 410.24 343.459C410.989 343.368 411.745 343.565 412.345 344.009C412.945 344.453 413.342 345.109 413.449 345.834Z" fill="white" stroke="#263238" stroke-linecap="round" stroke-linejoin="round"/>
<path d="M406.729 352.343C406.916 352.993 406.888 353.682 406.65 354.316C406.411 354.949 405.975 355.494 405.402 355.874C404.828 356.254 404.146 356.45 403.452 356.435C402.758 356.42 402.086 356.194 401.531 355.789C400.976 355.384 400.565 354.821 400.356 354.178C400.148 353.535 400.152 352.845 400.368 352.204C400.585 351.564 401.002 351.005 401.562 350.606C402.123 350.208 402.797 349.99 403.492 349.983C404.243 349.883 405.004 350.075 405.61 350.517C406.217 350.959 406.619 351.615 406.729 352.343Z" fill="white" stroke="#263238" stroke-linecap="round" stroke-linejoin="round"/>
<path d="M458.446 273.282C458.446 273.282 441.351 284.834 429.666 296.372C417.982 307.91 404.355 320.817 404.039 323.624C403.722 326.432 410.14 332.801 410.298 334.282C411.012 336.993 411.877 339.665 412.888 342.286L433.034 329.994L491.009 271.648C491.009 271.648 475.742 270.908 467.511 271.201C459.28 271.494 458.446 273.282 458.446 273.282Z" fill="white" stroke="#263238" stroke-linecap="round" stroke-linejoin="round"/>
<path d="M452.186 287.684L451.725 293.02C451.725 293.02 429.767 311.179 426.414 314.335C423.061 317.492 417.104 322.479 416.644 324.407C416.183 326.334 416.802 329.882 415.118 332.997C414.165 334.787 413.098 336.517 411.924 338.179L412.83 342.37L428.385 332.592C428.385 332.592 439.681 317.492 445.02 310.089C448.638 304.923 451.898 299.529 454.776 293.942L464.23 290.24L463.625 279.135L452.186 287.684Z" fill="#5E79EC" stroke="#263238" stroke-linecap="round" stroke-linejoin="round"/>
<path d="M459.611 284.527L446.2 291.79L455.194 273.632C455.194 273.632 462.058 268.156 462.058 271.564C462.058 274.972 459.611 284.527 459.611 284.527Z" fill="white" stroke="#263238" stroke-linecap="round" stroke-linejoin="round"/>
<path d="M458.374 236.895H460.705" stroke="#263238" stroke-linecap="round" stroke-linejoin="round"/>
<path d="M453.711 213.749C453.711 213.749 447.955 220.859 447.61 222.633C447.264 224.407 449.293 228.221 449.437 229.617C449.581 231.014 451.423 230.064 452.315 227.089C453.207 224.114 457.337 214.657 457.337 214.657C457.337 214.657 456.301 210.942 453.711 213.749Z" fill="#263238" stroke="#263238" stroke-linecap="round" stroke-linejoin="round"/>
<path d="M452.848 218.457C452.848 218.457 450.229 226.517 448.92 232.425C447.612 238.777 447.388 245.294 448.258 251.715C449.136 257.442 450.229 272.486 450.877 274.19C451.524 275.895 455.194 276.733 457.208 276.984C458.251 277.147 459.321 276.995 460.273 276.551C460.273 276.551 458.575 284.555 459.654 284.555C460.734 284.555 485.556 270.587 487.556 269.357C489.556 268.128 491.7 255.152 491.7 255.152L497.139 250.528C498.334 249.75 499.245 248.626 499.744 247.315C500.204 244.997 501.614 240.611 501.183 238.529C501.053 237.664 500.694 236.847 500.142 236.156C499.59 235.466 498.862 234.926 498.031 234.59C498.031 234.59 503.039 218.694 502.175 214.029C502.175 214.029 503.917 208.525 491.685 204.921C479.454 201.318 461.568 201.527 455.884 206.193C450.2 210.858 451.567 214.029 452.603 215.09L453.697 216.152L452.848 218.457Z" fill="white" stroke="#263238" stroke-linecap="round" stroke-linejoin="round"/>
<path d="M491.699 204.894C479.483 201.29 461.582 201.499 455.898 206.165C450.214 210.83 451.581 214.001 452.617 215.063L453.711 216.124C457.155 218.833 461.518 220.193 465.942 219.938C473.367 219.518 483.843 215.063 489.526 215.063C495.21 215.063 491.93 220.65 487.771 223.541C483.612 226.433 485.152 227.732 488.433 230.106C491.714 232.481 490.39 234.297 489.526 236.895C488.663 239.493 492.404 240.289 493.671 239.018C494.601 237.903 495.407 236.695 496.074 235.414C496.324 235.148 496.628 234.935 496.968 234.788C497.307 234.642 497.674 234.565 498.045 234.562C498.045 234.562 503.053 218.666 502.189 214.001C502.189 214.001 503.93 208.497 491.699 204.894Z" fill="#263238" stroke="#263238" stroke-linecap="round" stroke-linejoin="round"/>
<path d="M460.258 257.875L453.279 256.185L459.021 243.74V236.239" stroke="#263238" stroke-linecap="round" stroke-linejoin="round"/>
<path d="M455.021 264.021L461.353 264.664" stroke="#263238" stroke-linecap="round" stroke-linejoin="round"/>
<path d="M460.273 276.509C460.273 276.509 481.858 267.192 484.505 265.335C487.153 263.477 489.743 256.018 489.743 256.018" stroke="#263238" stroke-linecap="round" stroke-linejoin="round"/>
<path d="M460.705 236.895H474.821C476.229 236.895 477.58 237.438 478.576 238.404C479.572 239.371 480.131 240.682 480.131 242.049V243.446C480.131 245.232 479.4 246.944 478.1 248.207C476.799 249.469 475.035 250.179 473.195 250.179H467.641C465.801 250.179 464.037 249.469 462.737 248.207C461.436 246.944 460.705 245.232 460.705 243.446V236.825V236.895Z" fill="#263238" stroke="#263238" stroke-linecap="round" stroke-linejoin="round"/>
<path d="M452.157 248.852H447.193C445.544 248.852 443.963 248.216 442.797 247.084C441.631 245.953 440.976 244.418 440.976 242.817V241.518C440.976 240.296 441.477 239.123 442.367 238.259C443.258 237.395 444.466 236.909 445.725 236.909H458.445V242.762C458.445 244.362 457.79 245.897 456.625 247.029C455.459 248.16 453.878 248.796 452.229 248.796L452.157 248.852Z" fill="#263238" stroke="#263238" stroke-linecap="round" stroke-linejoin="round"/>
<path d="M474.174 236.895L496.075 234.939L495.585 236.001L480.232 239.158C480.232 239.158 476.131 236.811 474.174 236.895Z" fill="#263238" stroke="#263238" stroke-linecap="round" stroke-linejoin="round"/>
<path d="M499.47 242.776C499.47 242.776 499.672 238.711 497.83 238.334C495.988 237.957 492.88 242.776 492.463 243.334C492.045 243.893 494.117 243.153 494.319 244.815C494.52 246.477 493.297 246.477 492.88 247.218" stroke="#263238" stroke-linecap="round" stroke-linejoin="round"/>
<path d="M492.462 243.334C492.462 243.334 494.318 240.373 496.376 242.594C496.955 243.215 497.31 244.003 497.385 244.838C497.461 245.672 497.253 246.508 496.793 247.218" stroke="#263238" stroke-linecap="round" stroke-linejoin="round"/>
<path d="M463.784 235.666C463.784 235.666 470.648 232.118 474.461 232.271C478.274 232.425 479.181 234.339 479.181 234.339C479.181 234.339 475.67 232.565 473.54 233.305C471.41 234.045 467.784 236.266 465.611 236.406C463.438 236.546 463.784 235.666 463.784 235.666Z" fill="#263238" stroke="#263238" stroke-linecap="round" stroke-linejoin="round"/>
<path d="M457.223 235.526C455.805 234.944 454.315 234.545 452.791 234.339C448.675 233.445 447.913 233.752 448.834 234.185C451.126 235.011 453.465 235.706 455.841 236.266C458.374 236.895 457.223 235.526 457.223 235.526Z" fill="#263238" stroke="#263238" stroke-linecap="round" stroke-linejoin="round"/>
<path d="M461.87 283.633L463.021 298.006L492.448 270.768L488.951 267.066L461.87 283.633Z" fill="white" stroke="#263238" stroke-linecap="round" stroke-linejoin="round"/>
<path d="M306.204 296.372C306.204 296.372 302.852 298.9 302.708 300.381C302.564 301.862 306.823 308.972 308.463 310.005C310.104 311.039 309.687 311.193 310.305 309.852C310.924 308.511 307.557 296.679 307.255 295.883C306.953 295.087 306.204 296.372 306.204 296.372Z" fill="white" stroke="#263238" stroke-linecap="round" stroke-linejoin="round"/>
<path d="M311.399 291.343C311.399 291.343 307.284 291.343 306.061 292.978C304.838 294.612 305.758 296.819 306.665 299.487C307.572 302.155 309.255 308.371 310.334 309.851C311.414 311.332 314.148 311.779 314.45 309.404C314.752 307.03 313.385 294.891 313.011 292.978C312.637 291.064 311.399 291.343 311.399 291.343Z" fill="white" stroke="#263238" stroke-linecap="round" stroke-linejoin="round"/>
<path d="M322.219 290.478C322.219 290.478 315.212 287.083 313.686 287.083C312.161 287.083 310.478 289.151 310.478 291.958C310.478 294.766 312.161 304.53 312.305 306.625C312.449 308.72 313.384 310.815 314.751 310.327C316.118 309.838 316.881 309.433 317.629 306.471C318.275 302.451 318.683 298.398 318.852 294.333" fill="white"/>
<path d="M322.219 290.478C322.219 290.478 315.212 287.083 313.686 287.083C312.161 287.083 310.478 289.151 310.478 291.958C310.478 294.766 312.161 304.53 312.305 306.625C312.449 308.72 313.384 310.815 314.751 310.327C316.118 309.838 316.881 309.433 317.629 306.471C318.275 302.451 318.683 298.398 318.852 294.333" stroke="#263238" stroke-linecap="round" stroke-linejoin="round"/>
<path d="M333.818 301.121L325.789 312.52C325.789 312.52 326.551 315.481 328.666 314.587C330.782 313.693 333.847 310.396 336.135 308.078C338.423 305.759 339.804 305.563 338.883 303.342C338.076 301.815 336.798 300.57 335.228 299.78C335.228 299.78 331.559 293.565 327.602 291.05C323.645 288.536 321.947 288.382 320.407 290.757C318.867 293.132 316.752 306.89 316.752 309.558C316.752 312.226 318.191 313.749 319.342 312.967C320.493 312.184 322.393 309.111 322.997 306.751C323.601 304.39 327.314 295.576 327.314 295.576" fill="white"/>
<path d="M333.818 301.121L325.789 312.52C325.789 312.52 326.551 315.481 328.666 314.587C330.782 313.693 333.847 310.396 336.135 308.078C338.423 305.759 339.804 305.563 338.883 303.342C338.076 301.815 336.798 300.57 335.228 299.78C335.228 299.78 331.559 293.565 327.602 291.05C323.645 288.536 321.947 288.382 320.407 290.757C318.867 293.132 316.752 306.89 316.752 309.558C316.752 312.226 318.191 313.749 319.342 312.967C320.493 312.184 322.393 309.111 322.997 306.751C323.601 304.39 327.314 295.576 327.314 295.576" stroke="#263238" stroke-linecap="round" stroke-linejoin="round"/>
<path d="M262.733 424.573L274.633 406.219L288.361 425.775C287.087 428.853 286.066 432.024 285.31 435.259C284.706 438.807 284.404 445.624 283.181 446.434C281.957 447.244 271.583 446.434 265.481 443.766C259.38 441.098 259.999 436.67 260.603 433.108C261.208 429.546 262.733 424.573 262.733 424.573Z" fill="white" stroke="#263238" stroke-linecap="round" stroke-linejoin="round"/>
<path d="M279.828 437.34C279.828 437.34 281.036 430.23 274.935 428.75C268.834 427.269 262.129 427.269 260.301 429.937C258.474 432.605 253.898 439.715 252.056 440.008C250.214 440.302 228.874 434.672 223.694 433.192C218.514 431.711 218.499 439.715 220.025 444.743C221.55 449.772 233.148 457.776 240.17 460.109C247.192 462.441 254.214 464.299 254.214 464.299L253.596 466.38C253.596 466.38 276.173 472.303 278.317 472.303C280.461 472.303 281.051 468.113 281.051 468.113C281.051 468.113 287.469 465.445 287.469 459.522C287.469 453.599 287.771 442.341 287.771 442.341C287.771 442.341 284.058 437.634 279.828 437.34Z" fill="#263238" stroke="#263238" stroke-linecap="round" stroke-linejoin="round"/>
<path d="M277.08 465.18C274.505 464.03 271.857 463.041 269.152 462.218C269.152 462.218 266.101 463.112 264.576 463.406C263.051 463.699 261.525 463.406 254.503 458.07C247.481 452.734 229.48 440.302 224.285 437.634C221.163 436.028 219.81 438.514 219.234 440.735C219.365 442.092 219.625 443.434 220.011 444.744C221.537 449.772 233.135 457.776 240.157 460.109C247.179 462.442 254.201 464.3 254.201 464.3L253.582 466.381C253.582 466.381 276.159 472.303 278.303 472.303C280.448 472.303 281.037 468.113 281.037 468.113C280.003 466.818 278.64 465.807 277.08 465.18V465.18Z" fill="white" stroke="#263238" stroke-linecap="round" stroke-linejoin="round"/>
<path d="M264.878 469.328L265.784 464.285H254.201L253.582 466.367L264.878 469.328Z" fill="#263238" stroke="#263238" stroke-linecap="round" stroke-linejoin="round"/>
<path d="M316.435 391.734C316.435 391.734 322.537 402.992 341.142 404.18C359.748 405.367 375.922 402.098 385.074 393.215C394.225 384.331 399.103 373.072 410.083 367.15C421.062 361.227 429.307 366.27 445.783 370.418C462.259 374.567 469.569 372.192 469.569 372.192C469.569 372.192 480.563 371.592 483.959 366.856C487.354 362.121 487.93 355.612 491.283 358.866C494.636 362.121 498.909 383.143 494.333 391.734C489.758 400.324 489.455 402.098 461.079 395.924C432.703 389.75 431.451 387.432 423.522 392.167C415.594 396.902 406.73 411.164 389.693 418.846C369.95 427.744 351.56 426.725 334.48 423.163C317.4 419.601 308.233 403.328 308.233 403.328" fill="#5E79EC"/>
<path d="M316.435 391.734C316.435 391.734 322.537 402.992 341.142 404.18C359.748 405.367 375.922 402.098 385.074 393.215C394.225 384.331 399.103 373.072 410.083 367.15C421.062 361.227 429.307 366.27 445.783 370.418C462.259 374.567 469.569 372.192 469.569 372.192C469.569 372.192 480.563 371.592 483.959 366.856C487.354 362.121 487.93 355.612 491.283 358.866C494.636 362.121 498.909 383.143 494.333 391.734C489.758 400.324 489.455 402.098 461.079 395.924C432.703 389.75 431.451 387.432 423.522 392.167C415.594 396.902 406.73 411.164 389.693 418.846C369.95 427.744 351.56 426.725 334.48 423.163C317.4 419.601 308.233 403.328 308.233 403.328" stroke="#263238" stroke-linecap="round" stroke-linejoin="round"/>
<path d="M433.134 315.537C433.134 315.537 428.558 311.262 425.392 307.686C422.687 304.82 420.598 301.457 419.248 297.797C417.32 293.187 415.205 289.597 412.744 290.45C410.283 291.302 401.679 290.282 400.614 291.986C399.549 293.69 393.764 301.54 393.246 303.245C392.728 304.949 396.225 307.337 397.635 308.706C399.045 310.075 400.614 311.43 401.851 311.43C403.089 311.43 404.484 309.223 404.484 309.223C405.925 310.888 407.514 312.425 409.233 313.818C410.865 314.668 412.656 315.19 414.5 315.355L424.572 325.943L433.134 315.537Z" fill="white" stroke="#263238" stroke-linecap="round" stroke-linejoin="round"/>
<path d="M417.147 318.428L426.976 309.558L429.609 311.947L419.594 320.649L417.147 318.428Z" fill="#263238" stroke="#263238" stroke-linecap="round" stroke-linejoin="round"/>
<path d="M404.485 309.223L400.269 307.854" stroke="#263238" stroke-linecap="round" stroke-linejoin="round"/>
<path d="M430.832 311.528C430.849 312.242 430.646 312.944 430.25 313.546C429.854 314.148 429.281 314.621 428.606 314.905C427.931 315.189 427.185 315.271 426.461 315.141C425.738 315.011 425.071 314.675 424.546 314.175C424.02 313.675 423.661 313.034 423.512 312.335C423.364 311.635 423.434 310.909 423.714 310.248C423.993 309.588 424.469 309.023 425.081 308.626C425.693 308.23 426.412 308.019 427.148 308.022C427.627 308.016 428.103 308.103 428.548 308.276C428.993 308.449 429.398 308.706 429.74 309.032C430.082 309.358 430.355 309.746 430.542 310.174C430.73 310.603 430.828 311.063 430.832 311.528V311.528Z" fill="white" stroke="#263238" stroke-linecap="round" stroke-linejoin="round"/>
<path d="M512.852 285.421C512.852 285.421 519.256 288.382 522.004 291.008C524.752 293.635 526.58 295.45 524.45 301.666C522.321 307.882 484.16 373.631 481.728 377.179C479.296 380.727 474.101 383.102 469.842 380.741C465.583 378.38 418.284 327.131 418.284 327.131L433.839 312.631L465.367 339.367L491.599 301.163" fill="#263238"/>
<path d="M512.852 285.421C512.852 285.421 519.256 288.382 522.004 291.008C524.752 293.635 526.58 295.45 524.45 301.666C522.321 307.882 484.16 373.631 481.728 377.179C479.296 380.727 474.101 383.102 469.842 380.741C465.583 378.38 418.284 327.131 418.284 327.131L433.839 312.631L465.367 339.367L491.599 301.163" stroke="#263238" stroke-linecap="round" stroke-linejoin="round"/>
<path d="M483.57 352.036L465.31 339.325L484.98 343.85" stroke="white" stroke-linecap="round" stroke-linejoin="round"/>
<path d="M443.883 321.599L465.309 339.325L488.188 304.138" stroke="white" stroke-linecap="round" stroke-linejoin="round"/>
</svg>
