<svg width="561" height="518" viewBox="0 0 561 518" fill="none" xmlns="http://www.w3.org/2000/svg">
<g opacity="0.24">
<path d="M465.619 99.3462C435.289 74.7267 404.79 48.6142 370.98 28.7876C316.63 -3.08681 240.424 -15.0037 190.798 31.1056C175.52 45.3142 172.408 64.9182 166.325 83.2911C159.676 103.563 147.284 118.544 127.479 129.518C109.089 139.707 88.3224 145.416 68.5317 152.999C43.1673 162.715 19.7552 176.911 7.70249 200.574C-6.59944 228.769 -0.00724601 253.69 19.4157 277.733C38.2868 301.017 67.0888 322.742 62.5053 354.709C60.5814 368.367 54.6258 381.201 49.9151 394.257C45.2044 407.313 41.6254 421.312 44.7941 434.774C54.9654 478.775 128.47 490.195 166.877 475.593C233.365 450.319 298.862 484.76 365.859 486.161C412.952 487.157 474.064 474.716 488.38 426.551C500.702 385.129 456.509 339.4 491.068 303.256C518.045 275.049 544.145 238.879 541.146 199.448C538.218 161.17 506.672 132.124 477.007 108.513C473.215 105.536 469.42 102.48 465.619 99.3462Z" fill="#5E79EC"/>
<path opacity="0.7" d="M465.619 99.3462C435.289 74.7267 404.79 48.6142 370.98 28.7876C316.63 -3.08681 240.424 -15.0037 190.798 31.1056C175.52 45.3142 172.408 64.9182 166.325 83.2911C159.676 103.563 147.284 118.544 127.479 129.518C109.089 139.707 88.3224 145.416 68.5317 152.999C43.1673 162.715 19.7552 176.911 7.70249 200.574C-6.59944 228.769 -0.00724601 253.69 19.4157 277.733C38.2868 301.017 67.0888 322.742 62.5053 354.709C60.5814 368.367 54.6258 381.201 49.9151 394.257C45.2044 407.313 41.6254 421.312 44.7941 434.774C54.9654 478.775 128.47 490.195 166.877 475.593C233.365 450.319 298.862 484.76 365.859 486.161C412.952 487.157 474.064 474.716 488.38 426.551C500.702 385.129 456.509 339.4 491.068 303.256C518.045 275.049 544.145 238.879 541.146 199.448C538.218 161.17 506.672 132.124 477.007 108.513C473.215 105.536 469.42 102.48 465.619 99.3462Z" fill="white"/>
</g>
<path d="M170.725 516.674C206.75 516.674 235.953 511.268 235.953 504.6C235.953 497.932 206.75 492.526 170.725 492.526C134.7 492.526 105.496 497.932 105.496 504.6C105.496 511.268 134.7 516.674 170.725 516.674Z" fill="#5E79EC"/>
<path opacity="0.5" d="M170.725 516.674C206.75 516.674 235.953 511.268 235.953 504.6C235.953 497.932 206.75 492.526 170.725 492.526C134.7 492.526 105.496 497.932 105.496 504.6C105.496 511.268 134.7 516.674 170.725 516.674Z" fill="white"/>
<path d="M421.108 388.5C498.368 316.979 498.368 201.021 421.108 129.5C343.848 57.9791 218.585 57.9791 141.325 129.5C64.0651 201.021 64.0651 316.979 141.325 388.5C218.585 460.021 343.848 460.021 421.108 388.5Z" fill="#5E79EC" stroke="#2E353A" stroke-miterlimit="10" stroke-linecap="round"/>
<path d="M281.221 426.223C380.99 426.223 461.869 351.352 461.869 258.994C461.869 166.635 380.99 91.7642 281.221 91.7642C181.451 91.7642 100.572 166.635 100.572 258.994C100.572 351.352 181.451 426.223 281.221 426.223Z" fill="#2E353A" stroke="#2E353A" stroke-miterlimit="10" stroke-linecap="round"/>
<path d="M281.22 413.73C373.536 413.73 448.373 344.452 448.373 258.994C448.373 173.535 373.536 104.257 281.22 104.257C188.904 104.257 114.067 173.535 114.067 258.994C114.067 344.452 188.904 413.73 281.22 413.73Z" fill="white" stroke="#2E353A" stroke-miterlimit="10" stroke-linecap="round"/>
<path d="M281.221 119.094C251.328 119.094 222.106 127.301 197.251 142.675C172.396 158.049 153.025 179.901 141.586 205.468C130.147 231.034 127.154 259.167 132.987 286.307C138.82 313.448 153.216 338.378 174.355 357.945C195.493 377.511 222.425 390.835 251.744 396.232C281.063 401.63 311.453 398.857 339.07 388.265C366.687 377.674 390.29 359.739 406.896 336.728C423.502 313.718 432.364 286.666 432.361 258.994C432.361 240.621 428.451 222.428 420.856 205.454C413.26 188.479 402.127 173.056 388.092 160.065C374.057 147.074 357.396 136.77 339.059 129.74C320.722 122.71 301.069 119.093 281.221 119.094ZM281.221 387.552C253.743 387.552 226.883 380.009 204.035 365.877C181.188 351.746 163.381 331.659 152.866 308.159C142.351 284.658 139.599 258.799 144.96 233.851C150.321 208.903 163.552 185.986 182.982 168C202.412 150.013 227.167 137.764 254.117 132.802C281.067 127.839 309.002 130.386 334.388 140.12C359.774 149.855 381.472 166.339 396.738 187.489C412.004 208.639 420.152 233.505 420.152 258.941C420.16 275.835 416.572 292.565 409.593 308.175C402.615 323.785 392.382 337.969 379.481 349.917C366.579 361.865 351.261 371.343 334.401 377.81C317.542 384.276 299.471 387.605 281.221 387.605V387.552Z" fill="#5E79EC" stroke="#2E353A" stroke-miterlimit="10" stroke-linecap="round"/>
<path d="M281.22 181.979C264.763 181.979 248.675 186.497 234.991 194.961C221.307 203.426 210.642 215.457 204.344 229.532C198.047 243.608 196.4 259.096 199.612 274.039C202.823 288.981 210.75 302.706 222.388 313.478C234.026 324.25 248.854 331.585 264.996 334.556C281.138 337.526 297.869 335.999 313.073 330.167C328.277 324.335 341.271 314.46 350.413 301.791C359.554 289.122 364.432 274.229 364.429 258.993C364.429 248.879 362.277 238.863 358.095 229.518C353.913 220.173 347.784 211.683 340.057 204.531C332.33 197.38 323.157 191.707 313.062 187.837C302.967 183.968 292.147 181.977 281.22 181.979V181.979ZM281.22 329.788C266.095 329.788 251.309 325.636 238.733 317.857C226.157 310.078 216.355 299.021 210.567 286.085C204.779 273.149 203.264 258.915 206.215 245.182C209.166 231.449 216.449 218.835 227.144 208.934C237.84 199.034 251.466 192.291 266.301 189.559C281.136 186.828 296.512 188.23 310.486 193.588C324.46 198.946 336.404 208.02 344.807 219.662C353.21 231.304 357.695 244.992 357.695 258.993C357.695 277.769 349.638 295.776 335.296 309.053C320.955 322.329 301.503 329.788 281.22 329.788Z" fill="#5E79EC" stroke="#2E353A" stroke-miterlimit="10" stroke-linecap="round"/>
<path d="M281.221 214.469C271.708 214.469 262.409 217.08 254.499 221.973C246.589 226.865 240.425 233.819 236.784 241.955C233.144 250.091 232.191 259.043 234.047 267.68C235.903 276.317 240.484 284.251 247.21 290.477C253.937 296.704 262.507 300.945 271.837 302.663C281.167 304.381 290.838 303.499 299.627 300.129C308.415 296.759 315.927 291.052 321.212 283.73C326.497 276.408 329.318 267.8 329.318 258.994C329.318 253.147 328.074 247.357 325.657 241.955C323.24 236.553 319.697 231.644 315.231 227.51C310.764 223.375 305.462 220.096 299.627 217.858C293.791 215.621 287.537 214.469 281.221 214.469V214.469ZM284.913 221.449C293.388 222.15 301.411 225.302 307.844 230.459L284.941 251.686L284.913 221.449ZM277.543 251.686L254.611 230.459C261.043 225.3 269.066 222.147 277.543 221.449V251.686ZM272.337 256.506H240.578C241.118 248.773 244.232 241.385 249.49 235.356L272.337 256.506ZM272.337 263.315L250.396 283.639C245.042 277.92 241.684 270.835 240.762 263.315H272.337ZM277.543 268.147V296.552C269.543 295.895 261.935 293.05 255.686 288.38L277.543 268.147ZM284.913 268.147L306.769 288.38C300.527 293.043 292.93 295.887 284.941 296.552L284.913 268.147ZM290.119 263.315H321.721C320.794 270.833 317.436 277.917 312.088 283.639L290.119 263.315ZM290.119 256.506L312.951 235.356C318.209 241.385 321.323 248.773 321.863 256.506H290.119Z" fill="#5E79EC" stroke="#2E353A" stroke-miterlimit="10" stroke-linecap="round"/>
<path d="M281.221 284.216C296.269 284.216 308.467 272.923 308.467 258.994C308.467 245.064 296.269 233.772 281.221 233.772C266.174 233.772 253.976 245.064 253.976 258.994C253.976 272.923 266.174 284.216 281.221 284.216Z" fill="white" stroke="#2E353A" stroke-miterlimit="10" stroke-linecap="round"/>
<g style="mix-blend-mode:multiply">
<path d="M478.082 277.196C277.204 219.38 139.404 308.311 102.072 336.755C120.466 373.047 151.214 402.751 189.599 421.31C227.984 439.869 271.887 446.258 314.572 439.496C357.256 432.735 396.367 413.198 425.902 383.88C455.438 354.563 473.768 317.085 478.082 277.196V277.196Z" fill="#5E79EC"/>
</g>
<path d="M461.785 106.536H458.177C452.396 106.536 447.709 110.874 447.709 116.226V135.477C447.709 140.829 452.396 145.167 458.177 145.167H461.785C467.566 145.167 472.253 140.829 472.253 135.477V116.226C472.253 110.874 467.566 106.536 461.785 106.536Z" fill="#2E353A" stroke="#2E353A" stroke-miterlimit="10" stroke-linecap="round"/>
<path d="M461.785 378.071H458.177C452.396 378.071 447.709 382.41 447.709 387.762V407.012C447.709 412.364 452.396 416.703 458.177 416.703H461.785C467.566 416.703 472.253 412.364 472.253 407.012V387.762C472.253 382.41 467.566 378.071 461.785 378.071Z" fill="#2E353A" stroke="#2E353A" stroke-miterlimit="10" stroke-linecap="round"/>
<path d="M283.032 106.536H279.424C273.643 106.536 268.956 110.874 268.956 116.226V135.477C268.956 140.829 273.643 145.167 279.424 145.167H283.032C288.813 145.167 293.5 140.829 293.5 135.477V116.226C293.5 110.874 288.813 106.536 283.032 106.536Z" fill="#2E353A" stroke="#2E353A" stroke-miterlimit="10" stroke-linecap="round"/>
<path d="M283.032 378.071H279.424C273.643 378.071 268.956 382.41 268.956 387.762V407.012C268.956 412.364 273.643 416.703 279.424 416.703H283.032C288.813 416.703 293.5 412.364 293.5 407.012V387.762C293.5 382.41 288.813 378.071 283.032 378.071Z" fill="#2E353A" stroke="#2E353A" stroke-miterlimit="10" stroke-linecap="round"/>
<path d="M281.221 66.6598C283.424 66.6598 285.21 65.0064 285.21 62.9669C285.21 60.9273 283.424 59.2739 281.221 59.2739C279.017 59.2739 277.231 60.9273 277.231 62.9669C277.231 65.0064 279.017 66.6598 281.221 66.6598Z" fill="white" stroke="#2E353A" stroke-miterlimit="10" stroke-linecap="round"/>
<path d="M212.555 73.522C212.284 72.8365 211.8 72.2406 211.164 71.8096C210.528 71.3785 209.768 71.1316 208.98 71.1001C208.192 71.0686 207.412 71.2539 206.738 71.6325C206.064 72.0111 205.526 72.5661 205.193 73.2274C204.859 73.8888 204.745 74.6267 204.864 75.3482C204.984 76.0696 205.331 76.7422 205.863 77.2809C206.395 77.8197 207.087 78.2005 207.853 78.3752C208.618 78.5499 209.422 78.5107 210.164 78.2626C210.658 78.0974 211.111 77.8435 211.499 77.5156C211.886 77.1877 212.2 76.7922 212.422 76.3518C212.644 75.9114 212.771 75.4347 212.793 74.9491C212.816 74.4635 212.735 73.9786 212.555 73.522V73.522Z" fill="white" stroke="#2E353A" stroke-miterlimit="10" stroke-linecap="round"/>
<path d="M148.16 106.457C147.649 105.903 146.973 105.502 146.216 105.304C145.459 105.105 144.655 105.118 143.906 105.341C143.157 105.564 142.496 105.987 142.007 106.557C141.517 107.127 141.22 107.818 141.153 108.544C141.086 109.269 141.253 109.997 141.632 110.635C142.011 111.274 142.585 111.794 143.283 112.131C143.98 112.468 144.77 112.606 145.552 112.528C146.335 112.451 147.075 112.161 147.679 111.695C148.087 111.384 148.424 111 148.669 110.566C148.915 110.132 149.064 109.658 149.109 109.17C149.154 108.682 149.093 108.191 148.93 107.725C148.767 107.259 148.506 106.828 148.16 106.457Z" fill="white" stroke="#2E353A" stroke-miterlimit="10" stroke-linecap="round"/>
<path d="M99.8363 157.739C99.1563 157.369 98.3729 157.193 97.5852 157.235C96.7974 157.276 96.0406 157.533 95.4106 157.973C94.7806 158.413 94.3057 159.016 94.0458 159.705C93.7859 160.395 93.7528 161.141 93.9507 161.848C94.1486 162.555 94.5686 163.192 95.1575 163.678C95.7464 164.164 96.4779 164.478 97.2593 164.579C98.0407 164.68 98.8371 164.565 99.5476 164.247C100.258 163.929 100.851 163.424 101.251 162.794C101.783 161.949 101.934 160.944 101.669 159.997C101.404 159.05 100.745 158.238 99.8363 157.739Z" fill="white" stroke="#2E353A" stroke-miterlimit="10" stroke-linecap="round"/>
<path d="M73.3692 221.318C72.5923 221.192 71.7926 221.282 71.071 221.576C70.3494 221.871 69.7383 222.357 69.3149 222.973C68.8916 223.589 68.6749 224.307 68.6924 225.037C68.7098 225.767 68.9606 226.476 69.413 227.074C69.8654 227.672 70.4991 228.132 71.2341 228.397C71.9691 228.662 72.7724 228.719 73.5424 228.561C74.3124 228.403 75.0147 228.038 75.5605 227.511C76.1062 226.984 76.471 226.319 76.6087 225.6C76.7003 225.122 76.6891 224.632 76.5758 224.158C76.4624 223.684 76.2492 223.235 75.9483 222.837C75.6474 222.439 75.2647 222.1 74.8222 221.84C74.3796 221.579 73.8859 221.402 73.3692 221.318V221.318Z" fill="white" stroke="#2E353A" stroke-miterlimit="10" stroke-linecap="round"/>
<path d="M71.9823 289.401C71.2057 289.529 70.4874 289.867 69.9181 290.372C69.3488 290.877 68.954 291.527 68.7836 292.24C68.6133 292.953 68.675 293.696 68.961 294.377C69.2469 295.057 69.7444 295.644 70.3904 296.063C71.0364 296.481 71.802 296.714 72.5904 296.73C73.3789 296.746 74.1548 296.545 74.8202 296.153C75.4856 295.761 76.0106 295.196 76.3288 294.528C76.647 293.86 76.7442 293.119 76.6081 292.4C76.5176 291.922 76.326 291.465 76.0445 291.055C75.7629 290.646 75.3968 290.291 74.9671 290.013C74.5374 289.734 74.0526 289.537 73.5404 289.432C73.0283 289.327 72.4988 289.317 71.9823 289.401V289.401Z" fill="white" stroke="#2E353A" stroke-miterlimit="10" stroke-linecap="round"/>
<path d="M95.8338 353.818C95.1536 354.188 94.6075 354.737 94.2643 355.395C93.9211 356.053 93.7963 356.79 93.9057 357.513C94.0152 358.237 94.3539 358.914 94.879 359.459C95.4042 360.004 96.0922 360.393 96.856 360.576C97.6198 360.759 98.4252 360.728 99.1702 360.488C99.9153 360.247 100.567 359.808 101.042 359.224C101.517 358.641 101.794 357.941 101.839 357.211C101.884 356.482 101.695 355.757 101.294 355.128C101.03 354.708 100.679 354.342 100.26 354.049C99.8424 353.756 99.3659 353.543 98.8584 353.421C98.3509 353.299 97.8223 353.272 97.3032 353.34C96.7841 353.408 96.2847 353.57 95.8338 353.818V353.818Z" fill="white" stroke="#2E353A" stroke-miterlimit="10" stroke-linecap="round"/>
<path d="M142.063 406.79C141.562 407.351 141.251 408.036 141.169 408.761C141.087 409.485 141.239 410.215 141.605 410.86C141.97 411.505 142.534 412.035 143.224 412.385C143.914 412.734 144.701 412.886 145.484 412.823C146.268 412.759 147.014 412.483 147.628 412.028C148.243 411.573 148.698 410.96 148.937 410.266C149.176 409.573 149.189 408.829 148.972 408.129C148.756 407.428 148.321 406.803 147.722 406.331C147.319 406.014 146.853 405.774 146.349 405.626C145.846 405.477 145.315 405.422 144.789 405.465C144.263 405.508 143.75 405.647 143.283 405.874C142.815 406.101 142.4 406.413 142.063 406.79V406.79Z" fill="white" stroke="#2E353A" stroke-miterlimit="10" stroke-linecap="round"/>
<path d="M205.042 441.912C204.774 442.598 204.732 443.343 204.921 444.051C205.109 444.76 205.521 445.401 206.103 445.893C206.685 446.386 207.411 446.707 208.191 446.818C208.97 446.928 209.767 446.822 210.481 446.513C211.196 446.205 211.795 445.707 212.204 445.083C212.613 444.459 212.814 443.737 212.779 443.008C212.745 442.278 212.479 441.575 212.013 440.986C211.547 440.397 210.904 439.949 210.163 439.699C209.67 439.53 209.146 439.453 208.621 439.474C208.096 439.494 207.58 439.61 207.104 439.816C206.628 440.022 206.2 440.313 205.846 440.673C205.492 441.032 205.219 441.454 205.042 441.912V441.912Z" fill="white" stroke="#2E353A" stroke-miterlimit="10" stroke-linecap="round"/>
<path d="M277.231 455.007C277.229 455.741 277.461 456.46 277.9 457.071C278.339 457.683 278.964 458.16 279.696 458.442C280.428 458.724 281.234 458.798 282.012 458.656C282.79 458.513 283.505 458.16 284.066 457.641C284.626 457.122 285.008 456.46 285.162 455.74C285.316 455.02 285.236 454.274 284.931 453.596C284.626 452.918 284.111 452.34 283.45 451.933C282.79 451.527 282.014 451.312 281.221 451.314C280.163 451.314 279.148 451.703 278.4 452.396C277.652 453.088 277.231 454.028 277.231 455.007V455.007Z" fill="white" stroke="#2E353A" stroke-miterlimit="10" stroke-linecap="round"/>
<path d="M349.902 444.531C350.172 445.216 350.656 445.812 351.292 446.243C351.929 446.674 352.688 446.921 353.476 446.953C354.264 446.984 355.044 446.799 355.718 446.42C356.392 446.042 356.93 445.487 357.263 444.825C357.597 444.164 357.711 443.426 357.592 442.705C357.473 441.983 357.125 441.311 356.593 440.772C356.061 440.233 355.369 439.852 354.603 439.678C353.838 439.503 353.034 439.542 352.292 439.79C351.798 439.955 351.345 440.209 350.957 440.537C350.57 440.865 350.256 441.26 350.034 441.701C349.812 442.141 349.686 442.618 349.663 443.104C349.64 443.589 349.721 444.074 349.902 444.531V444.531Z" fill="white" stroke="#2E353A" stroke-miterlimit="10" stroke-linecap="round"/>
<path d="M414.281 411.543C414.791 412.102 415.469 412.509 416.228 412.712C416.988 412.915 417.796 412.906 418.549 412.685C419.303 412.463 419.969 412.04 420.464 411.469C420.958 410.898 421.259 410.204 421.328 409.475C421.396 408.746 421.231 408.014 420.851 407.372C420.471 406.73 419.894 406.206 419.194 405.867C418.493 405.528 417.7 405.389 416.913 405.467C416.127 405.545 415.383 405.836 414.776 406.305C414.369 406.617 414.033 407.001 413.787 407.434C413.542 407.867 413.391 408.341 413.345 408.828C413.299 409.316 413.358 409.807 413.519 410.273C413.679 410.739 413.939 411.171 414.281 411.543V411.543Z" fill="white" stroke="#2E353A" stroke-miterlimit="10" stroke-linecap="round"/>
<path d="M462.618 360.222C463.298 360.592 464.082 360.768 464.87 360.726C465.657 360.685 466.414 360.428 467.044 359.988C467.674 359.548 468.149 358.945 468.409 358.256C468.669 357.566 468.702 356.82 468.504 356.113C468.306 355.406 467.886 354.769 467.297 354.283C466.708 353.797 465.977 353.484 465.195 353.382C464.414 353.281 463.618 353.396 462.907 353.714C462.197 354.032 461.604 354.537 461.204 355.167C460.671 356.012 460.521 357.017 460.786 357.964C461.051 358.911 461.71 359.723 462.618 360.222V360.222Z" fill="white" stroke="#2E353A" stroke-miterlimit="10" stroke-linecap="round"/>
<path d="M489.073 296.683C489.85 296.809 490.65 296.719 491.371 296.424C492.093 296.129 492.704 295.643 493.127 295.027C493.551 294.411 493.767 293.693 493.75 292.963C493.733 292.233 493.482 291.525 493.029 290.927C492.577 290.329 491.943 289.868 491.208 289.603C490.473 289.339 489.67 289.282 488.9 289.439C488.13 289.597 487.428 289.962 486.882 290.489C486.336 291.016 485.971 291.681 485.834 292.4C485.742 292.878 485.753 293.369 485.867 293.843C485.98 294.317 486.193 294.766 486.494 295.163C486.795 295.561 487.178 295.9 487.62 296.161C488.063 296.421 488.557 296.599 489.073 296.683V296.683Z" fill="white" stroke="#2E353A" stroke-miterlimit="10" stroke-linecap="round"/>
<path d="M490.459 228.599C491.236 228.471 491.954 228.134 492.523 227.629C493.093 227.123 493.487 226.473 493.658 225.76C493.828 225.048 493.766 224.304 493.48 223.624C493.194 222.943 492.697 222.357 492.051 221.938C491.405 221.519 490.639 221.287 489.851 221.271C489.063 221.255 488.287 221.455 487.621 221.847C486.956 222.239 486.431 222.805 486.113 223.473C485.794 224.141 485.697 224.881 485.833 225.6C485.924 226.078 486.115 226.535 486.397 226.945C486.679 227.355 487.045 227.709 487.474 227.988C487.904 228.266 488.389 228.464 488.901 228.568C489.413 228.673 489.943 228.684 490.459 228.599V228.599Z" fill="white" stroke="#2E353A" stroke-miterlimit="10" stroke-linecap="round"/>
<path d="M466.609 164.182C467.291 163.813 467.839 163.265 468.185 162.608C468.53 161.95 468.657 161.212 468.548 160.488C468.44 159.764 468.102 159.085 467.577 158.539C467.052 157.993 466.364 157.603 465.6 157.419C464.835 157.235 464.029 157.265 463.283 157.506C462.537 157.747 461.885 158.187 461.41 158.771C460.935 159.356 460.658 160.057 460.614 160.787C460.57 161.517 460.761 162.243 461.163 162.872C461.699 163.713 462.573 164.322 463.594 164.568C464.614 164.813 465.698 164.674 466.609 164.182V164.182Z" fill="white" stroke="#2E353A" stroke-miterlimit="10" stroke-linecap="round"/>
<path d="M420.407 111.211C420.915 110.65 421.232 109.962 421.318 109.234C421.404 108.507 421.256 107.772 420.891 107.122C420.527 106.473 419.963 105.937 419.27 105.584C418.577 105.231 417.787 105.076 416.999 105.138C416.211 105.2 415.461 105.476 414.843 105.933C414.224 106.389 413.766 107.005 413.525 107.702C413.284 108.399 413.272 109.147 413.49 109.85C413.707 110.554 414.145 111.182 414.748 111.656C415.151 111.972 415.617 112.212 416.119 112.36C416.622 112.509 417.152 112.564 417.677 112.523C418.203 112.482 418.715 112.344 419.184 112.119C419.652 111.894 420.068 111.585 420.407 111.211V111.211Z" fill="white" stroke="#2E353A" stroke-miterlimit="10" stroke-linecap="round"/>
<path d="M357.399 76.0493C357.669 75.3625 357.712 74.6173 357.523 73.9079C357.335 73.1984 356.923 72.5567 356.341 72.0638C355.758 71.5709 355.031 71.249 354.251 71.1389C353.471 71.0288 352.673 71.1353 351.958 71.445C351.243 71.7548 350.644 72.2538 350.236 72.879C349.827 73.5042 349.628 74.2274 349.664 74.9572C349.7 75.687 349.969 76.3906 350.437 76.9789C350.905 77.5673 351.55 78.0139 352.293 78.2624C352.785 78.429 353.308 78.5039 353.831 78.4827C354.355 78.4616 354.869 78.3448 355.343 78.1391C355.818 77.9334 356.244 77.6429 356.597 77.2842C356.95 76.9256 357.222 76.5059 357.399 76.0493V76.0493Z" fill="white" stroke="#2E353A" stroke-miterlimit="10" stroke-linecap="round"/>
<path d="M474.714 162.205V130.396H256.068V180.813H319.727C322.547 180.813 325.339 181.328 327.945 182.327C330.55 183.326 332.917 184.79 334.911 186.636C336.905 188.482 338.487 190.673 339.566 193.085C340.646 195.497 341.201 198.082 341.201 200.692V318.172C341.197 323.442 338.933 328.495 334.906 332.22C330.88 335.946 325.42 338.038 319.727 338.038H256.068V391.73H474.714V359.895H419.826C415.124 359.891 410.615 358.159 407.292 355.08C403.968 352.001 402.101 347.826 402.101 343.473V178.692C402.101 174.339 403.968 170.164 407.292 167.085C410.615 164.005 415.124 162.274 419.826 162.27L474.714 162.205Z" fill="white" stroke="#2E353A" stroke-miterlimit="10" stroke-linecap="round"/>
<path d="M351.896 266.013V318.172C351.885 326.077 348.487 333.656 342.449 339.245C336.411 344.835 328.224 347.98 319.685 347.991H266.806V381.751H463.977V369.886H419.826C412.276 369.879 405.038 367.1 399.699 362.158C394.36 357.215 391.357 350.514 391.35 343.525V268.514C378.27 266.895 365.092 266.059 351.896 266.013V266.013Z" fill="#5E79EC"/>
<path d="M266.806 159.664C293.132 152.855 329.417 145.691 377.897 140.348H266.806V159.664Z" fill="#5E79EC"/>
<path d="M396.231 163.881C374.417 167.81 354.358 171.987 337.481 175.85C341.916 178.574 345.553 182.272 348.068 186.613C350.584 190.955 351.899 195.805 351.897 200.732V214.94C365.534 209.06 378.775 203.809 391.351 199.147V178.692C391.335 173.413 393.035 168.252 396.231 163.881Z" fill="#5E79EC"/>
<path d="M280.004 27.8577V19.7385" stroke="#2E353A" stroke-miterlimit="10" stroke-linecap="round"/>
<path d="M280.004 52.5691V32.677" stroke="#2E353A" stroke-miterlimit="10" stroke-linecap="round"/>
<path d="M280.004 485.886V464.58" stroke="#2E353A" stroke-miterlimit="10" stroke-linecap="round"/>
<path d="M485.663 259.989H520.958" stroke="#2E353A" stroke-miterlimit="10" stroke-linecap="round"/>
<path d="M31.2129 259.989H76.2972" stroke="#2E353A" stroke-miterlimit="10" stroke-linecap="round"/>
<path d="M20.6455 259.989H24.6772" stroke="#2E353A" stroke-miterlimit="10" stroke-linecap="round"/>
<path d="M528.64 259.989H536.873" stroke="#2E353A" stroke-miterlimit="10" stroke-linecap="round"/>
<path d="M197.66 498.222C194.804 497.132 192.038 495.85 189.384 494.385C189.384 494.385 204.691 423.957 205.257 400.831C205.822 377.704 209.232 329.84 209.232 329.84H140.65C140.65 329.84 144.06 377.691 144.626 400.831C145.191 423.97 157.357 494.385 157.357 494.385C154.698 495.848 151.928 497.131 149.067 498.222C145.389 499.531 140.792 501.195 143.084 502.046C146.197 502.986 149.495 503.281 152.746 502.91C157.554 501.726 162.19 500.007 166.552 497.79C168.391 496.48 170.796 359.292 170.796 359.292H175.705C175.705 359.292 178.28 496.519 180.119 497.79C184.482 500.004 189.117 501.723 193.925 502.91C197.176 503.281 200.474 502.986 203.587 502.046C205.936 501.234 201.338 499.531 197.66 498.222Z" fill="#2E353A" stroke="#2E353A" stroke-linecap="round" stroke-linejoin="round"/>
<path d="M136.407 242.519C134.03 242.716 131.742 243.454 129.748 244.667C127.754 245.88 126.115 247.531 124.976 249.473C121.143 256.138 119.219 287.659 120.662 291.221C122.105 294.783 125.457 298.319 132.163 293.434C138.868 288.55 139.363 283.665 139.363 283.665L136.407 242.519Z" fill="white" stroke="#2E353A" stroke-linecap="round" stroke-linejoin="round"/>
<path d="M214.366 241.786C214.366 241.786 224.269 240.149 226.221 247.26C228.173 254.371 236.293 275.232 233.422 283.665C230.55 292.099 219.502 291.667 211.834 287.214C204.167 282.762 214.366 241.786 214.366 241.786Z" fill="white" stroke="#2E353A" stroke-linecap="round" stroke-linejoin="round"/>
<path d="M169.156 230.471L136.436 242.519L140.708 329.879H209.233L214.368 241.786L185.467 230.877L169.156 230.471Z" fill="white" stroke="#2E353A" stroke-linecap="round" stroke-linejoin="round"/>
<path d="M165.195 256.557H142.504V259.936H165.195V256.557Z" fill="#2E353A" stroke="#2E353A" stroke-linecap="round" stroke-linejoin="round"/>
<path d="M209.36 256.557H186.669V259.936H209.36V256.557Z" fill="#2E353A" stroke="#2E353A" stroke-linecap="round" stroke-linejoin="round"/>
<path d="M209.43 319.193H140.707V329.879H209.43V319.193Z" fill="#2E353A" stroke="#2E353A" stroke-linecap="round" stroke-linejoin="round"/>
<path d="M181.123 318.748H170.089V324.523H181.123V318.748Z" fill="white" stroke="#2E353A" stroke-miterlimit="10" stroke-linecap="round"/>
<path d="M182.212 242.336L175.917 239.664L171.135 241.746L175.096 253.703L168.349 317.255L174.743 323.633L182.212 316.993L177.657 253.703L182.212 242.336Z" fill="#5E79EC"/>
<path d="M191.082 233.536L215.583 241.877L212.231 246.788L189.922 239.56L191.082 233.536Z" fill="#2E353A" stroke="#2E353A" stroke-linecap="round" stroke-linejoin="round"/>
<path d="M172.494 242.859L163.384 250.861C163.384 250.861 158.107 237.097 158.107 234.871C158.107 232.645 164.332 225.992 164.332 225.992L187.843 225.547L196.472 235.316L189.286 250.415L179.214 243.305L172.494 242.859Z" fill="white" stroke="#2E353A" stroke-linecap="round" stroke-linejoin="round"/>
<path d="M158.107 234.819L133.592 243.174L136.944 248.085L159.253 240.856L158.107 234.819Z" fill="#2E353A" stroke="#2E353A" stroke-linecap="round" stroke-linejoin="round"/>
<path d="M189.03 236.639L176.935 246.435L165.095 236.639V210.527H189.03V236.639Z" fill="white"/>
<g style="mix-blend-mode:multiply">
<path d="M164.728 227.367L173.3 236.574H181.109L189.031 228.481L188.267 220.807L165.095 219.785L164.728 227.367Z" fill="#5E79EC"/>
</g>
<path d="M189.03 236.639L176.935 246.435L165.095 236.639V210.527H189.03V236.639Z" stroke="#2E353A" stroke-linecap="round" stroke-linejoin="round"/>
<path d="M162.507 203.573C162.507 203.573 158.079 202.499 158.518 205.367C158.956 208.235 160.3 213.591 162.507 214.822L164.728 216.053L162.507 203.573Z" fill="white" stroke="#2E353A" stroke-linecap="round" stroke-linejoin="round"/>
<path d="M192.214 203.573C192.214 203.573 196.656 202.499 196.203 205.367C195.751 208.235 194.435 213.591 192.214 214.822L189.993 216.053L192.214 203.573Z" fill="white" stroke="#2E353A" stroke-linecap="round" stroke-linejoin="round"/>
<path d="M194.308 198.819C194.31 196.565 193.785 194.336 192.768 192.287C191.752 190.239 190.267 188.418 188.418 186.951C186.569 185.484 184.398 184.405 182.055 183.788C179.712 183.172 177.253 183.033 174.846 183.38C172.44 183.728 170.143 184.554 168.115 185.802C166.086 187.049 164.373 188.689 163.094 190.608C161.816 192.527 161.001 194.679 160.707 196.917C160.412 199.156 160.645 201.426 161.389 203.573L165.633 222.26L173.47 232.449H181.039L188.649 223.57L193.303 204.005C193.954 202.342 194.294 200.588 194.308 198.819V198.819Z" fill="white" stroke="#2E353A" stroke-linecap="round" stroke-linejoin="round"/>
<path d="M164.699 201.923C164.699 201.923 167.401 199.212 169.848 200.116C172.296 201.019 171.334 203.743 178.421 204.424C182.411 204.875 186.46 204.481 190.262 203.272L190.644 197.588L164.699 194.223V201.923Z" fill="#5E79EC"/>
<path d="M190.672 197.588C189.729 199.543 189.132 201.626 188.903 203.756C188.903 206.218 191.124 211.142 191.124 211.142C191.124 211.142 196.443 200.875 196.005 197.182C195.566 193.49 190.233 196.357 190.672 197.588Z" fill="#2E353A" stroke="#2E353A" stroke-linecap="round" stroke-linejoin="round"/>
<path d="M162.719 210.33C162.719 210.33 162.719 209.689 162.832 208.733C163.087 206.114 163.752 200.967 165.378 200.05C167.599 198.819 167.373 192.35 167.373 192.35C167.373 192.35 164.275 195.585 174.927 198.898C185.579 202.211 194.223 200.902 199.995 193.922C205.766 186.942 200.433 182.005 199.556 184.467C198.679 186.929 196.882 190.229 193.784 187.754C190.686 185.279 185.792 180.368 176.922 180.368C168.052 180.368 164.049 187.754 164.049 187.754C162.626 188.4 161.42 189.392 160.561 190.624C159.701 191.856 159.219 193.281 159.168 194.747C159.168 199.644 162.719 210.33 162.719 210.33Z" fill="#2E353A" stroke="#2E353A" stroke-linecap="round" stroke-linejoin="round"/>
<path d="M193.94 197.326C187.659 197.562 182.311 193.647 176.851 190.189C171.39 186.732 167.698 190.189 167.698 190.189C168.121 188.311 169.202 186.614 170.772 185.362C172.342 184.109 174.315 183.371 176.384 183.262C183.797 182.817 186.287 192.245 193.119 193.07" stroke="white" stroke-width="0.5" stroke-linecap="round" stroke-linejoin="round"/>
<path d="M176.228 209.99H161.389L162.959 214.521C163.108 214.951 163.401 215.325 163.795 215.591C164.189 215.857 164.664 216 165.152 216.001H172.819C173.33 216 173.826 215.841 174.229 215.549C174.631 215.257 174.917 214.849 175.04 214.39L176.228 209.99Z" fill="#2E353A" stroke="#2E353A" stroke-linecap="round" stroke-linejoin="round"/>
<path d="M192.709 209.99H177.855L179.426 214.521C179.575 214.951 179.868 215.325 180.262 215.591C180.656 215.857 181.131 216 181.618 216.001H189.286C189.799 216.001 190.297 215.842 190.702 215.551C191.107 215.259 191.395 214.85 191.521 214.39L192.709 209.99Z" fill="#2E353A" stroke="#2E353A" stroke-linecap="round" stroke-linejoin="round"/>
<path d="M161.389 209.99L160.64 203.272" stroke="#2E353A" stroke-linecap="round" stroke-linejoin="round"/>
<path d="M192.709 209.99L194.392 203.613" stroke="#2E353A" stroke-linecap="round" stroke-linejoin="round"/>
<path d="M176.229 209.99H177.855" stroke="#2E353A" stroke-linecap="round" stroke-linejoin="round"/>
<path d="M175.818 212.124H178.45" stroke="#2E353A" stroke-linecap="round" stroke-linejoin="round"/>
<path d="M180.133 220.807C180.133 220.807 179.015 222.365 177.7 222.365C176.384 222.365 175.267 220.807 175.267 220.807" stroke="#2E353A" stroke-linecap="round" stroke-linejoin="round"/>
<path d="M140.353 323.187C140.353 323.187 128.357 328.072 128.357 331.189C128.357 334.305 132.191 354.276 134.596 358.689C137.001 363.102 138.911 364.91 143.225 362.238C147.54 359.567 140.353 323.187 140.353 323.187Z" fill="#2E353A" stroke="#2E353A" stroke-linecap="round" stroke-linejoin="round"/>
<path d="M215.187 312.973H208.468V351.605H215.187V312.973Z" fill="#2E353A" stroke="#2E353A" stroke-linecap="round" stroke-linejoin="round"/>
<path d="M218.54 304.984H205.115V316.535H218.54V304.984Z" fill="#2E353A" stroke="#2E353A" stroke-linecap="round" stroke-linejoin="round"/>
<path d="M232.941 276.567C232.941 276.567 235.771 286.337 228.613 289.886C225.911 291.195 213.264 288.995 198.396 285.446C183.528 281.897 175.366 279.226 175.366 279.226L133.634 278.335C133.634 278.335 129.801 271.238 135.558 267.23C141.316 263.223 162.436 269.011 162.436 269.011L205.611 269.902C205.611 269.902 214.721 265.973 227.198 269.457" fill="white"/>
<path d="M232.941 276.567C232.941 276.567 235.771 286.337 228.613 289.886C225.911 291.195 213.264 288.995 198.396 285.446C183.528 281.897 175.366 279.226 175.366 279.226L133.634 278.335C133.634 278.335 129.801 271.238 135.558 267.23C141.316 263.223 162.436 269.011 162.436 269.011L205.611 269.902C205.611 269.902 214.721 265.973 227.198 269.457" stroke="#2E353A" stroke-linecap="round" stroke-linejoin="round"/>
<path d="M127.919 279.226C127.919 279.226 137.991 271.683 145.672 269.011C153.354 266.34 196.048 265.462 196.048 265.462C196.048 265.462 208.029 269.011 205.639 269.902C203.248 270.792 193.643 271.683 189.328 273.451C185.013 275.219 160.059 291.221 129.913 295.215C123.293 296.093 121.751 295.661 120.322 289.44" fill="white"/>
<path d="M127.919 279.226C127.919 279.226 137.991 271.683 145.672 269.011C153.354 266.34 196.048 265.462 196.048 265.462C196.048 265.462 208.029 269.011 205.639 269.902C203.248 270.792 193.643 271.683 189.328 273.451C185.013 275.219 160.059 291.221 129.913 295.215C123.293 296.093 121.751 295.661 120.322 289.44" stroke="#2E353A" stroke-linecap="round" stroke-linejoin="round"/>
<path d="M189.102 265.934L189.908 272.311H192.751L193.147 265.567L189.102 265.934Z" fill="#2E353A" stroke="#2E353A" stroke-linecap="round" stroke-linejoin="round"/>
</svg>
