<svg width="33" height="32" viewBox="0 0 33 32" fill="none" xmlns="http://www.w3.org/2000/svg">
<path d="M28.5078 19.7995L22.6453 17.2995C22.3428 17.1639 22.0108 17.1077 21.6805 17.1362C21.3502 17.1646 21.0327 17.2767 20.7578 17.462L17.6203 19.5495C15.7081 18.6208 14.1599 17.0814 13.2203 15.1745L15.2953 11.9995C15.4794 11.7244 15.5918 11.4076 15.6223 11.078C15.6529 10.7484 15.6006 10.4163 15.4703 10.112L12.9578 4.24952C12.7825 3.85366 12.4856 3.52394 12.1103 3.30818C11.7349 3.09241 11.3006 3.00181 10.8703 3.04952C9.1823 3.27065 7.63203 4.09724 6.50772 5.37559C5.3834 6.65395 4.76157 8.29709 4.75781 9.99952C4.75781 19.9245 12.8328 27.9995 22.7578 27.9995C24.4602 27.9958 26.1034 27.3739 27.3817 26.2496C28.6601 25.1253 29.4867 23.575 29.7078 21.887C29.7555 21.4567 29.6649 21.0224 29.4492 20.647C29.2334 20.2717 28.9037 19.9748 28.5078 19.7995Z" fill="black"/>
</svg>
