<svg width="33" height="32" viewBox="0 0 33 32" fill="none" xmlns="http://www.w3.org/2000/svg">
<path d="M16.7578 2C13.8414 2.00331 11.0455 3.1633 8.98329 5.22548C6.92111 7.28766 5.76112 10.0836 5.75781 13C5.75781 22.4125 15.7578 29.525 16.1828 29.825C16.3531 29.9384 16.5532 29.9989 16.7578 29.9989C16.9624 29.9989 17.1625 29.9384 17.3328 29.825C17.7578 29.525 27.7578 22.4125 27.7578 13C27.7545 10.0836 26.5945 7.28766 24.5323 5.22548C22.4701 3.1633 19.6742 2.00331 16.7578 2ZM16.7578 9C17.5489 9 18.3223 9.2346 18.9801 9.67412C19.6379 10.1136 20.1506 10.7384 20.4533 11.4693C20.7561 12.2002 20.8353 13.0044 20.681 13.7804C20.5266 14.5563 20.1456 15.269 19.5862 15.8284C19.0268 16.3878 18.3141 16.7688 17.5382 16.9231C16.7622 17.0775 15.958 16.9983 15.2271 16.6955C14.4962 16.3928 13.8715 15.8801 13.4319 15.2223C12.9924 14.5645 12.7578 13.7911 12.7578 13C12.7578 11.9391 13.1792 10.9217 13.9294 10.1716C14.6795 9.42143 15.6969 9 16.7578 9Z" fill="black"/>
</svg>
