<svg width="20" height="19" viewBox="0 0 20 19" fill="none" xmlns="http://www.w3.org/2000/svg">
<g clip-path="url(#clip0_1301_5750)">
<path d="M15.3652 2.84233C15.3652 2.84233 16.8761 2.25316 16.7502 3.684C16.7082 4.27317 16.3305 6.33526 16.0367 8.56569L15.0294 15.1728C15.0294 15.1728 14.9455 16.1407 14.19 16.3091C13.4345 16.4774 12.3013 15.7199 12.0914 15.5515C11.9235 15.4253 8.94363 13.5315 7.89433 12.6057C7.60052 12.3532 7.26476 11.8482 7.93629 11.259L12.3433 7.0507C12.8469 6.54569 13.3506 5.36735 11.252 6.79819L5.37608 10.7961C5.37608 10.7961 4.70455 11.2169 3.44544 10.8382L0.717313 9.99653C0.717313 9.99653 -0.289991 9.36529 1.43082 8.734C5.62792 6.75607 10.7903 4.73607 15.3652 2.84233Z" fill="#5E79EC"/>
</g>
<defs>
<clipPath id="clip0_1301_5750">
<rect width="18.6667" height="18.6667" fill="white" transform="translate(0.424316)"/>
</clipPath>
</defs>
</svg>
