<svg width="19" height="19" viewBox="0 0 19 19" fill="none" xmlns="http://www.w3.org/2000/svg">
<g clip-path="url(#clip0_1304_2164)">
<path fill-rule="evenodd" clip-rule="evenodd" d="M2.79553 15.4784C2.63665 15.8443 2.94918 16.2398 3.34189 16.1698L6.19124 15.662C6.29576 15.6434 6.40326 15.659 6.49967 15.7034C7.99521 16.3929 9.68795 16.5337 11.2796 16.0977C12.9239 15.6473 14.3473 14.6123 15.2826 13.187C16.218 11.7617 16.601 10.044 16.3599 8.35632C16.1188 6.66863 15.27 5.12694 13.9729 4.0206C12.6758 2.91425 11.0195 2.3193 9.31495 2.34739C7.61034 2.37548 5.97458 3.02468 4.71464 4.17316C3.45471 5.32164 2.6572 6.89045 2.4718 8.58517C2.29659 10.1867 2.67938 11.7966 3.55057 13.145C3.6452 13.2915 3.66527 13.4754 3.59582 13.6353L2.79553 15.4784ZM7.47971 6.11108C7.24396 6.11108 7.01787 6.20473 6.85117 6.37143C6.68447 6.53813 6.59082 6.76423 6.59082 6.99997V7.77775C6.59082 8.94176 7.05322 10.0581 7.8763 10.8812C8.69937 11.7042 9.8157 12.1666 10.9797 12.1666H11.7575C11.9932 12.1666 12.2193 12.073 12.386 11.9063C12.5527 11.7396 12.6464 11.5135 12.6464 11.2778C12.6464 11.042 12.5527 10.8159 12.386 10.6492C12.2193 10.4825 11.9932 10.3889 11.7575 10.3889H10.9797C10.744 10.3889 10.5179 10.4825 10.3512 10.6492C10.2379 10.7624 10.1584 10.9031 10.119 11.0555C9.543 10.9043 9.01177 10.6024 8.5834 10.1741C8.15504 9.74569 7.8532 9.21446 7.70192 8.63842C7.85438 8.59905 7.99502 8.51952 8.10825 8.40629C8.27495 8.23959 8.3686 8.0135 8.3686 7.77775V6.99997C8.3686 6.76423 8.27495 6.53813 8.10825 6.37143C7.94155 6.20473 7.71546 6.11108 7.47971 6.11108Z" fill="#5E79EC"/>
</g>
<defs>
<clipPath id="clip0_1304_2164">
<rect width="18.6667" height="18.6667" fill="white" transform="translate(0.0908203)"/>
</clipPath>
</defs>
</svg>
